<svg width="590" height="414" viewBox="0 0 590 414" fill="none" xmlns="http://www.w3.org/2000/svg">
<path fill-rule="evenodd" clip-rule="evenodd" d="M143.931 291.064C144.724 291.301 145.175 292.137 144.937 292.931C142.362 301.525 137.057 306.78 130.649 309.845C124.3 312.881 116.921 313.747 110.124 313.747C97.2109 313.747 83.1696 321.163 79.3385 336.08C79.2605 336.384 79.1812 336.694 79.1003 337.01C78.2098 340.49 77.1384 344.678 75.7311 348.682C74.2043 353.027 72.2261 357.327 69.5194 360.339C66.3371 363.879 62.0813 365.804 57.7323 366.894C53.3895 367.981 48.8331 368.263 44.953 368.429C32.9287 368.944 22.46 372.999 15.0072 380.336C7.5679 387.658 3 398.381 3 412.5C3 413.329 2.32843 414 1.5 414C0.671573 414 0 413.329 0 412.5C0 397.702 4.80715 386.166 12.9026 378.198C20.9845 370.242 32.2103 365.972 44.8248 365.432C48.6926 365.267 52.9819 364.991 57.0035 363.984C61.0191 362.978 64.6468 361.272 67.2883 358.333C69.5898 355.773 71.4101 351.929 72.9008 347.687C74.2622 343.814 75.3021 339.751 76.1972 336.254C76.2768 335.942 76.3553 335.636 76.4328 335.334C80.6938 318.743 96.2362 310.747 110.124 310.747C116.72 310.747 123.585 309.897 129.354 307.138C135.063 304.408 139.75 299.789 142.063 292.07C142.301 291.276 143.137 290.826 143.931 291.064Z" fill="#D6D92B"/>
<path d="M545.465 69.5559C536.016 69.7877 535.289 60.2274 542.993 36.9061C545.465 29.4028 543.371 24.9413 537.905 26.1001C534.329 26.8534 531.044 32.5603 527.962 43.3952C525.316 52.7527 522.467 55.3604 517.844 52.753C513.047 50.0298 512.64 44.5541 516.419 32.8789C517.001 31.1117 517.728 28.8234 518.047 27.7804C522.845 12.513 536.452 1.50395 551.105 1.01145C558.228 0.779691 550.727 -0.69769 543.691 0.403189C530.55 2.48907 517.67 14.8303 513.221 29.6922C507.435 49.0735 509.18 55.0993 520.606 55.1283C526.973 55.1573 527.642 54.4043 532.032 42.0629C537.237 27.4617 541.045 22.9134 540.377 32.126C540.202 34.3278 533.108 52.5502 533.108 59.9956C533.108 68.4261 539.708 73.7566 547.326 71.468C550.524 70.483 549.506 69.44 545.465 69.5559Z" fill="#D7DB2D"/>
<path d="M581.808 13.3531C575.208 5.7627 561.717 -1.01657 556.949 0.866512C554.972 1.64872 555.292 2.57589 557.56 2.57589C561.979 2.57589 570.411 7.00832 575.382 11.9333C588.902 25.3466 589.6 49.7687 576.982 65.7025C574.481 68.8603 568.172 71.2649 566.224 64.0222C564.887 58.9814 566.195 54.8096 568.637 49.0445C572.94 38.9627 572.504 34.4433 567.154 34.4433C563.084 34.4433 561.747 36.2975 556.949 48.6389C553.082 58.5758 550.233 65.4128 549.448 66.6006C547.645 69.2949 550.873 69.2372 552.908 66.514C554.158 64.8337 557.298 58.2571 558.199 55.447C560.176 49.3342 561.95 42.4392 565.235 38.0936C566.922 35.8339 568.259 35.747 567.852 38.8758C567.59 40.7879 566.573 43.598 564.596 48.0305C558.49 61.6177 560.293 70.3088 569.364 70.8883C576.371 71.3228 581.052 68.165 584.919 59.5028C593.176 40.9617 590.821 23.7245 581.808 13.3531Z" fill="#D7DB2D"/>
</svg>
