<svg width="90" height="113" viewBox="0 0 90 113" fill="none" xmlns="http://www.w3.org/2000/svg">
<path d="M90 45C90 79.3013 47.9068 110.808 46.1142 112.133C45.7916 112.371 45.4011 112.5 45 112.5C44.5989 112.5 44.2083 112.371 43.8858 112.133C42.0932 110.808 0 79.3013 0 45C1.77842e-07 33.0653 4.74106 21.6193 13.1802 13.1802C21.6193 4.74106 33.0653 0 45 0C56.9347 0 68.3807 4.74106 76.8198 13.1802C85.2589 21.6193 90 33.0653 90 45ZM78.75 45C78.75 38.3249 76.7706 31.7997 73.0621 26.2495C69.3536 20.6993 64.0826 16.3735 57.9156 13.8191C51.7486 11.2646 44.9626 10.5962 38.4157 11.8985C31.8688 13.2007 25.8552 16.4151 21.1351 21.1351C16.4151 25.8552 13.2007 31.8688 11.8985 38.4157C10.5962 44.9626 11.2646 51.7486 13.8191 57.9156C16.3735 64.0826 20.6993 69.3536 26.2495 73.0621C31.7997 76.7706 38.3249 78.75 45 78.75C53.9479 78.7398 62.5265 75.1808 68.8536 68.8536C75.1808 62.5265 78.7398 53.9479 78.75 45Z" fill="#414141"/>
<path d="M78.75 45C78.75 38.3249 76.7706 31.7997 73.0621 26.2495C69.3536 20.6993 64.0826 16.3735 57.9156 13.8191C51.7486 11.2646 44.9626 10.5962 38.4157 11.8985C31.8688 13.2007 25.8552 16.4151 21.1351 21.1351C16.4151 25.8552 13.2007 31.8688 11.8985 38.4157C10.5962 44.9626 11.2646 51.7486 13.8191 57.9156C16.3735 64.0826 20.6993 69.3536 26.2495 73.0621C31.7997 76.7706 38.3249 78.75 45 78.75C53.9479 78.7398 62.5265 75.1808 68.8536 68.8536C75.1808 62.5265 78.7398 53.9479 78.75 45Z" fill="white"/>
<path d="M55.406 31C52.2846 31 49.5981 32.8885 48.4319 35.5796L48.4302 35.5789L45.5 42.0722L42.5698 35.5789L42.5681 35.5796C41.4021 32.8885 38.7154 31 35.594 31C31.4068 31 28 34.3977 28 38.5741C28 42.7506 31.4066 46.1483 35.594 46.1483C37.4504 46.1483 39.1525 45.4796 40.4732 44.3722L42.4677 48.792L37.0777 60.736L42.1207 63L45.5 55.5116L48.8793 63L53.9223 60.736L48.5323 48.792L50.5268 44.3722C51.8475 45.4796 53.5496 46.1483 55.406 46.1483C59.5932 46.1483 63 42.7506 63 38.5741C63 34.3977 59.5934 31 55.406 31ZM35.5942 40.6325C34.4564 40.6325 33.5306 39.7093 33.5306 38.5743C33.5306 37.4394 34.4562 36.5162 35.5942 36.5162C36.7322 36.5162 37.6578 37.4394 37.6578 38.5743C37.6576 39.7091 36.732 40.6325 35.5942 40.6325ZM55.406 40.6325C54.2682 40.6325 53.3424 39.7093 53.3424 38.5743C53.3424 37.4394 54.268 36.5162 55.406 36.5162C56.5439 36.5162 57.4696 37.4394 57.4696 38.5743C57.4696 39.7091 56.5439 40.6325 55.406 40.6325Z" fill="#414141"/>
</svg>
