<svg width="90" height="113" viewBox="0 0 90 113" fill="none" xmlns="http://www.w3.org/2000/svg">
<path d="M27.9503 47.3339V34.2904C27.9503 33.7962 28.1466 33.3222 28.4961 32.9728C28.8455 32.6233 29.3195 32.427 29.8137 32.427H55.9006C56.3948 32.427 56.8688 32.6233 57.2182 32.9728C57.5677 33.3222 57.764 33.7962 57.764 34.2904V47.3339C57.7607 50.298 56.5818 53.1398 54.4858 55.2358C52.3898 57.3318 49.548 58.5107 46.5839 58.514H39.1304C36.1663 58.5107 33.3245 57.3318 31.2285 55.2358C29.1325 53.1398 27.9536 50.298 27.9503 47.3339ZM57.764 62.2407H27.9503C27.4561 62.2407 26.9822 62.437 26.6327 62.7864C26.2833 63.1359 26.087 63.6098 26.087 64.104C26.087 64.5982 26.2833 65.0722 26.6327 65.4216C26.9822 65.7711 27.4561 65.9674 27.9503 65.9674H57.764C58.2582 65.9674 58.7321 65.7711 59.0816 65.4216C59.431 65.0722 59.6273 64.5982 59.6273 64.104C59.6273 63.6098 59.431 63.1359 59.0816 62.7864C58.7321 62.437 58.2582 62.2407 57.764 62.2407ZM61.4907 36.1537V39.8804C61.9844 39.8819 62.4575 40.0787 62.8066 40.4278C63.1558 40.777 63.3526 41.25 63.354 41.7438V43.6071C63.3526 44.1009 63.1558 44.574 62.8066 44.9231C62.4575 45.2722 61.9844 45.469 61.4907 45.4705V47.3339C61.492 47.9588 61.4359 48.5825 61.323 49.1972H61.4907C62.9719 49.1929 64.3913 48.6025 65.4387 47.5551C66.4861 46.5077 67.0764 45.0884 67.0807 43.6071V41.7438C67.0764 40.2625 66.4861 38.8432 65.4387 37.7958C64.3913 36.7484 62.9719 36.158 61.4907 36.1537ZM42.8571 28.7003C43.3513 28.7003 43.8253 28.504 44.1747 28.1545C44.5242 27.8051 44.7205 27.3311 44.7205 26.837V23.1102C44.7205 22.6161 44.5242 22.1421 44.1747 21.7927C43.8253 21.4432 43.3513 21.2469 42.8571 21.2469C42.3629 21.2469 41.889 21.4432 41.5396 21.7927C41.1901 22.1421 40.9938 22.6161 40.9938 23.1102V26.837C40.9938 27.3311 41.1901 27.8051 41.5396 28.1545C41.889 28.504 42.3629 28.7003 42.8571 28.7003ZM35.4037 28.7003C35.8979 28.7003 36.3719 28.504 36.7213 28.1545C37.0708 27.8051 37.2671 27.3311 37.2671 26.837V23.1102C37.2671 22.6161 37.0708 22.1421 36.7213 21.7927C36.3719 21.4432 35.8979 21.2469 35.4037 21.2469C34.9095 21.2469 34.4356 21.4432 34.0861 21.7927C33.7367 22.1421 33.5404 22.6161 33.5404 23.1102V26.837C33.5404 27.3311 33.7367 27.8051 34.0861 28.1545C34.4356 28.504 34.9095 28.7003 35.4037 28.7003ZM50.3106 28.7003C50.8048 28.7003 51.2787 28.504 51.6282 28.1545C51.9776 27.8051 52.1739 27.3311 52.1739 26.837V23.1102C52.1739 22.6161 51.9776 22.1421 51.6282 21.7927C51.2787 21.4432 50.8048 21.2469 50.3106 21.2469C49.8164 21.2469 49.3424 21.4432 48.993 21.7927C48.6435 22.1421 48.4472 22.6161 48.4472 23.1102V26.837C48.4472 27.3311 48.6435 27.8051 48.993 28.1545C49.3424 28.504 49.8164 28.7003 50.3106 28.7003ZM89.441 45.4705C89.441 79.5587 47.6092 110.87 45.8278 112.186C45.5072 112.423 45.1191 112.551 44.7205 112.551C44.3219 112.551 43.9338 112.423 43.6132 112.186C41.8318 110.87 0 79.5587 0 45.4705C1.76737e-07 33.6099 4.71161 22.2351 13.0983 13.8483C21.4851 5.46161 32.8599 0.75 44.7205 0.75C56.5811 0.75 67.9559 5.46161 76.3427 13.8483C84.7294 22.2351 89.441 33.6099 89.441 45.4705ZM78.2609 45.4705C78.2609 38.8368 76.2938 32.3521 72.6083 26.8365C68.9228 21.3208 63.6845 17.0218 57.5558 14.4832C51.4271 11.9446 44.6833 11.2804 38.1771 12.5746C31.6709 13.8688 25.6946 17.0632 21.0039 21.7539C16.3132 26.4446 13.1188 32.4209 11.8246 38.9271C10.5304 45.4333 11.1946 52.1771 13.7332 58.3058C16.2718 64.4345 20.5708 69.6728 26.0865 73.3583C31.6021 77.0438 38.0868 79.0109 44.7205 79.0109C53.6129 79.0008 62.1381 75.4638 68.426 69.176C74.7138 62.8881 78.2508 54.3629 78.2609 45.4705Z" fill="#414141"/>
<path fill-rule="evenodd" clip-rule="evenodd" d="M78.2609 45.4705C78.2609 38.8368 76.2938 32.3521 72.6083 26.8365C68.9228 21.3208 63.6845 17.0218 57.5558 14.4832C51.4271 11.9446 44.6833 11.2804 38.1771 12.5746C31.6709 13.8688 25.6946 17.0632 21.0039 21.7539C16.3132 26.4446 13.1188 32.4209 11.8246 38.9271C10.5304 45.4333 11.1946 52.1771 13.7332 58.3058C16.2718 64.4345 20.5708 69.6728 26.0865 73.3583C31.6021 77.0438 38.0868 79.0109 44.7205 79.0109C53.6129 79.0008 62.1381 75.4638 68.426 69.176C74.7138 62.8881 78.2508 54.3629 78.2609 45.4705ZM27.9503 34.2904V47.3339C27.9536 50.298 29.1325 53.1398 31.2285 55.2358C33.3245 57.3318 36.1663 58.5107 39.1304 58.514H46.5839C49.548 58.5107 52.3898 57.3318 54.4858 55.2358C56.5818 53.1398 57.7607 50.298 57.764 47.3339V34.2904C57.764 33.7962 57.5677 33.3222 57.2182 32.9728C56.8688 32.6233 56.3948 32.427 55.9006 32.427H29.8137C29.3195 32.427 28.8455 32.6233 28.4961 32.9728C28.1466 33.3222 27.9503 33.7962 27.9503 34.2904ZM27.9503 62.2407H57.764C58.2582 62.2407 58.7321 62.437 59.0816 62.7864C59.431 63.1359 59.6273 63.6098 59.6273 64.104C59.6273 64.5982 59.431 65.0722 59.0816 65.4216C58.7321 65.7711 58.2582 65.9674 57.764 65.9674H27.9503C27.4561 65.9674 26.9822 65.7711 26.6327 65.4216C26.2833 65.0722 26.087 64.5982 26.087 64.104C26.087 63.6098 26.2833 63.1359 26.6327 62.7864C26.9822 62.437 27.4561 62.2407 27.9503 62.2407ZM61.4907 39.8804V36.1537C62.9719 36.158 64.3913 36.7484 65.4387 37.7958C66.4861 38.8432 67.0764 40.2625 67.0807 41.7438V43.6071C67.0764 45.0884 66.4861 46.5077 65.4387 47.5551C64.3913 48.6025 62.9719 49.1929 61.4907 49.1972H61.323C61.4359 48.5825 61.492 47.9588 61.4907 47.3339V45.4705C61.9844 45.469 62.4575 45.2722 62.8066 44.9231C63.1558 44.574 63.3526 44.1009 63.354 43.6071V41.7438C63.3526 41.25 63.1558 40.777 62.8066 40.4278C62.4575 40.0787 61.9844 39.8819 61.4907 39.8804ZM44.1747 28.1545C43.8253 28.504 43.3513 28.7003 42.8571 28.7003C42.3629 28.7003 41.889 28.504 41.5396 28.1545C41.1901 27.8051 40.9938 27.3311 40.9938 26.837V23.1102C40.9938 22.6161 41.1901 22.1421 41.5396 21.7927C41.889 21.4432 42.3629 21.2469 42.8571 21.2469C43.3513 21.2469 43.8253 21.4432 44.1747 21.7927C44.5242 22.1421 44.7205 22.6161 44.7205 23.1102V26.837C44.7205 27.3311 44.5242 27.8051 44.1747 28.1545ZM36.7213 28.1545C36.3719 28.504 35.8979 28.7003 35.4037 28.7003C34.9095 28.7003 34.4356 28.504 34.0861 28.1545C33.7367 27.8051 33.5404 27.3311 33.5404 26.837V23.1102C33.5404 22.6161 33.7367 22.1421 34.0861 21.7927C34.4356 21.4432 34.9095 21.2469 35.4037 21.2469C35.8979 21.2469 36.3719 21.4432 36.7213 21.7927C37.0708 22.1421 37.2671 22.6161 37.2671 23.1102V26.837C37.2671 27.3311 37.0708 27.8051 36.7213 28.1545ZM51.6282 28.1545C51.2787 28.504 50.8048 28.7003 50.3106 28.7003C49.8164 28.7003 49.3424 28.504 48.993 28.1545C48.6435 27.8051 48.4472 27.3311 48.4472 26.837V23.1102C48.4472 22.6161 48.6435 22.1421 48.993 21.7927C49.3424 21.4432 49.8164 21.2469 50.3106 21.2469C50.8048 21.2469 51.2787 21.4432 51.6282 21.7927C51.9776 22.1421 52.1739 22.6161 52.1739 23.1102V26.837C52.1739 27.3311 51.9776 27.8051 51.6282 28.1545Z" fill="white"/>
</svg>
