<svg width="151" height="129" viewBox="0 0 151 129" fill="none" xmlns="http://www.w3.org/2000/svg">
<path fill-rule="evenodd" clip-rule="evenodd" d="M103.293 19.1721C82.2562 2.75264 55.5495 4.55746 35.6559 18.5613C26.5396 24.9789 18.359 33.6012 16.064 44.886C14.4859 52.645 15.5075 65.2138 21.8469 74.0243C22.2556 74.592 11.6059 93.3062 11.8202 93.4085C12.0284 93.5078 37.2259 89.5424 36.9305 89.4209C50.5203 101.161 71.2533 105.291 88.3547 99.3053C115.926 89.6555 133.327 59.6226 116.534 33.1755C112.851 27.3764 108.71 23.3076 103.293 19.1721Z" stroke="#222222" stroke-width="2.5961" stroke-miterlimit="1.5" stroke-linecap="round" stroke-linejoin="round"/>
<path fill-rule="evenodd" clip-rule="evenodd" d="M120.202 40.1705C121.574 40.1621 122.944 40.2477 124.285 40.5427Z" fill="white"/>
<path d="M120.202 40.1705C121.574 40.1621 122.944 40.2477 124.285 40.5427" stroke="#222222" stroke-width="2.5961" stroke-miterlimit="1.5" stroke-linecap="round" stroke-linejoin="round"/>
<path fill-rule="evenodd" clip-rule="evenodd" d="M122.425 47.5988C124.217 47.4815 125.987 47.3216 127.779 47.4534Z" fill="white"/>
<path d="M122.425 47.5988C124.217 47.4815 125.987 47.3216 127.779 47.4534" stroke="#222222" stroke-width="2.5961" stroke-miterlimit="1.5" stroke-linecap="round" stroke-linejoin="round"/>
<path fill-rule="evenodd" clip-rule="evenodd" d="M123.137 55.2492C125.355 55.5035 127.605 55.5161 129.834 55.6419Z" fill="white"/>
<path d="M123.137 55.2492C125.355 55.5035 127.605 55.5161 129.834 55.6419" stroke="#222222" stroke-width="2.5961" stroke-miterlimit="1.5" stroke-linecap="round" stroke-linejoin="round"/>
<path fill-rule="evenodd" clip-rule="evenodd" d="M122.362 62.7956C124.187 62.7435 126.043 63.038 127.836 63.3644Z" fill="white"/>
<path d="M122.362 62.7956C124.187 62.7435 126.043 63.038 127.836 63.3644" stroke="#222222" stroke-width="2.5961" stroke-miterlimit="1.5" stroke-linecap="round" stroke-linejoin="round"/>
<path fill-rule="evenodd" clip-rule="evenodd" d="M120.031 70.4225C121.683 70.7457 123.365 70.8667 125.031 71.0956Z" fill="white"/>
<path d="M120.031 70.4225C121.683 70.7457 123.365 70.8667 125.031 71.0956" stroke="#222222" stroke-width="2.5961" stroke-miterlimit="1.5" stroke-linecap="round" stroke-linejoin="round"/>
<path fill-rule="evenodd" clip-rule="evenodd" d="M115.093 79.4078C116.814 79.2209 118.51 79.1432 120.237 79.1851Z" fill="white"/>
<path d="M115.093 79.4078C116.814 79.2209 118.51 79.1432 120.237 79.1851" stroke="#222222" stroke-width="2.5961" stroke-miterlimit="1.5" stroke-linecap="round" stroke-linejoin="round"/>
<path fill-rule="evenodd" clip-rule="evenodd" d="M108.316 87.1854C110.296 87.0884 112.366 87.0437 114.345 87.2348Z" fill="white"/>
<path d="M108.316 87.1854C110.296 87.0884 112.366 87.0437 114.345 87.2348" stroke="#222222" stroke-width="2.5961" stroke-miterlimit="1.5" stroke-linecap="round" stroke-linejoin="round"/>
<path fill-rule="evenodd" clip-rule="evenodd" d="M98.7653 94.4344C100.974 94.2501 103.574 93.9742 105.792 94.3548Z" fill="white"/>
<path d="M98.7653 94.4344C100.974 94.2501 103.574 93.9742 105.792 94.3548" stroke="#222222" stroke-width="2.5961" stroke-miterlimit="1.5" stroke-linecap="round" stroke-linejoin="round"/>
<path fill-rule="evenodd" clip-rule="evenodd" d="M86.3368 99.9679C90.2903 99.9685 94.4056 99.6721 98.3546 99.9581Z" fill="white"/>
<path d="M86.3368 99.9679C90.2903 99.9685 94.4056 99.6721 98.3546 99.9581" stroke="#222222" stroke-width="2.5961" stroke-miterlimit="1.5" stroke-linecap="round" stroke-linejoin="round"/>
<path fill-rule="evenodd" clip-rule="evenodd" d="M27.2902 92.3221C33.531 93.4157 33.7947 93.5516 44.3687 94.6958Z" fill="white"/>
<path d="M27.2902 92.3221C33.531 93.4157 33.7947 93.5516 44.3687 94.6958" stroke="#222222" stroke-width="2.59291" stroke-miterlimit="1.5" stroke-linecap="round" stroke-linejoin="round"/>
<path fill-rule="evenodd" clip-rule="evenodd" d="M29.8917 96.3702C25.8733 95.1271 21.7117 94.9253 17.6695 93.9145Z" fill="white"/>
<path d="M29.8917 96.3702C25.8733 95.1271 21.7117 94.9253 17.6695 93.9145" stroke="#222222" stroke-width="2.5961" stroke-miterlimit="1.5" stroke-linecap="round" stroke-linejoin="round"/>
<path fill-rule="evenodd" clip-rule="evenodd" d="M20.453 98.809C16.3427 97.3615 11.9449 97.357 7.69302 96.8192Z" fill="white"/>
<path d="M20.453 98.809C16.3427 97.3615 11.9449 97.357 7.69302 96.8192" stroke="#222222" stroke-width="2.5961" stroke-miterlimit="1.5" stroke-linecap="round" stroke-linejoin="round"/>
<path fill-rule="evenodd" clip-rule="evenodd" d="M46.5691 101.301C60.6806 101.649 75.1435 104.457 89.17 106.248Z" fill="white"/>
<path d="M46.5691 101.301C60.6806 101.649 75.1435 104.457 89.17 106.248" stroke="#222222" stroke-width="2.5961" stroke-miterlimit="1.5" stroke-linecap="round" stroke-linejoin="round"/>
<path fill-rule="evenodd" clip-rule="evenodd" d="M59.421 109.179C65.6974 109.879 72.1542 110.037 78.3894 110.995Z" fill="white"/>
<path d="M59.421 109.179C65.6974 109.879 72.1542 110.037 78.3894 110.995" stroke="#222222" stroke-width="2.5961" stroke-miterlimit="1.5" stroke-linecap="round" stroke-linejoin="round"/>
<path d="M81.7761 43.04C76.6241 32.7275 59.2656 34.9968 56.7861 46.3257C55.2901 53.1616 61.5982 57.9455 62.4131 64.347H76.8742C77.2994 62.6353 78.1646 60.5995 78.7637 59.3483C80.0088 56.7487 81.77 55.0496 82.4388 52.1494C83.075 49.3899 83.0013 45.4929 81.7761 43.04Z" stroke="#222222" stroke-width="3" stroke-miterlimit="1.5" stroke-linecap="round" stroke-linejoin="round"/>
<path fill-rule="evenodd" clip-rule="evenodd" d="M62.1474 73.0714C62.1432 71.0961 62.0463 69.1208 62.0806 67.1461C62.0942 66.3641 61.9606 65.4077 62.6373 64.8609C63.6256 64.063 65.0956 63.9467 66.322 63.9172C68.6206 63.8622 70.937 63.8816 73.238 63.8863C74.2859 63.8881 75.8499 63.7061 76.7944 64.2269C77.6934 64.7216 77.9209 66.0702 78.022 66.981C78.2159 68.7264 78.7319 72.6238 77.2501 73.975C76.3168 74.8261 74.861 75.0042 73.6659 75.1513C70.4955 75.5414 62.1521 75.464 62.1474 73.0714Z" stroke="#222222" stroke-width="3" stroke-miterlimit="1.5" stroke-linecap="round" stroke-linejoin="round"/>
<path d="M70.5978 75.3198C70.6237 76.3948 70.6363 77.4755 70.5518 78.5488" stroke="#222222" stroke-width="3" stroke-miterlimit="1.5" stroke-linecap="round" stroke-linejoin="round"/>
<path d="M45.5244 58.9074C46.6524 58.3121 47.8303 57.8224 48.9704 57.2529" stroke="#222222" stroke-width="3" stroke-miterlimit="1.5" stroke-linecap="round" stroke-linejoin="round"/>
<path d="M45.5244 35.771C46.7835 36.5705 47.9879 37.4541 49.2499 38.2467" stroke="#222222" stroke-width="3" stroke-miterlimit="1.5" stroke-linecap="round" stroke-linejoin="round"/>
<path d="M70.3768 26.2942C70.3325 24.7107 70.3423 23.1386 70.3929 21.5557" stroke="#222222" stroke-width="3" stroke-miterlimit="1.5" stroke-linecap="round" stroke-linejoin="round"/>
<path d="M89.8682 37.0804C91.4488 36.0341 93.0765 35.0512 94.6842 34.0469" stroke="#222222" stroke-width="3" stroke-miterlimit="1.5" stroke-linecap="round" stroke-linejoin="round"/>
<path d="M87.1104 58.6582C88.3292 59.7505 89.5532 60.8301 90.7329 61.965" stroke="#222222" stroke-width="3" stroke-miterlimit="1.5" stroke-linecap="round" stroke-linejoin="round"/>
</svg>
