<svg width="90" height="113" viewBox="0 0 90 113" fill="none" xmlns="http://www.w3.org/2000/svg">
<path d="M90 45C90 79.3013 47.9068 110.808 46.1142 112.133C45.7916 112.371 45.4011 112.5 45 112.5C44.5989 112.5 44.2083 112.371 43.8858 112.133C42.0932 110.808 0 79.3013 0 45C1.77842e-07 33.0653 4.74106 21.6193 13.1802 13.1802C21.6193 4.74106 33.0653 0 45 0C56.9347 0 68.3807 4.74106 76.8198 13.1802C85.2589 21.6193 90 33.0653 90 45ZM78.75 45C78.75 38.3249 76.7706 31.7997 73.0621 26.2495C69.3536 20.6993 64.0826 16.3735 57.9156 13.8191C51.7486 11.2646 44.9626 10.5962 38.4157 11.8985C31.8688 13.2007 25.8552 16.4151 21.1351 21.1351C16.4151 25.8552 13.2007 31.8688 11.8985 38.4157C10.5962 44.9626 11.2646 51.7486 13.8191 57.9156C16.3735 64.0826 20.6993 69.3536 26.2495 73.0621C31.7997 76.7706 38.3249 78.75 45 78.75C53.9479 78.7398 62.5265 75.1808 68.8536 68.8536C75.1808 62.5265 78.7398 53.9479 78.75 45Z" fill="#414141"/>
<path d="M78.75 45C78.75 38.3249 76.7706 31.7997 73.0621 26.2495C69.3536 20.6993 64.0826 16.3735 57.9156 13.8191C51.7486 11.2646 44.9626 10.5962 38.4157 11.8985C31.8688 13.2007 25.8552 16.4151 21.1351 21.1351C16.4151 25.8552 13.2007 31.8688 11.8985 38.4157C10.5962 44.9626 11.2646 51.7486 13.8191 57.9156C16.3735 64.0826 20.6993 69.3536 26.2495 73.0621C31.7997 76.7706 38.3249 78.75 45 78.75C53.9479 78.7398 62.5265 75.1808 68.8536 68.8536C75.1808 62.5265 78.7398 53.9479 78.75 45Z" fill="white"/>
<path d="M48.2091 51.7448C47.8422 51.2976 47.54 50.79 47.3131 50.2401C46.6504 50.2605 45.9883 50.1797 45.3454 50C44.6972 51.1763 43.7903 52.1501 42.7101 52.8299L42.0073 61.0171C41.9858 61.2685 42.0118 61.5221 42.0837 61.7617C42.1556 62.0012 42.2718 62.2214 42.4248 62.4082C42.5778 62.5949 42.7643 62.744 42.9723 62.8459C43.1803 62.9478 43.4051 63.0003 43.6324 63H47.3693C47.5965 63 47.8211 62.9474 48.0289 62.8453C48.2367 62.7433 48.4229 62.5941 48.5758 62.4074C48.7286 62.2207 48.8447 62.0006 48.9165 61.7612C48.9882 61.5218 49.0142 61.2683 48.9927 61.0171L48.2091 51.7448Z" fill="#414141"/>
<path d="M57.8724 35.4355C57.668 35.3338 57.5008 35.1698 57.3949 34.9671C57.289 34.7645 57.2496 34.5334 57.2826 34.3069C57.334 33.9475 57.3599 33.5849 57.3601 33.2218C57.3582 31.2524 56.5771 29.3642 55.1881 27.9716C53.7992 26.5791 51.916 25.7959 49.9517 25.794C48.2706 25.7888 46.6388 26.3635 45.3302 27.4217C45.2017 27.5249 45.0514 27.5974 44.8907 27.6336C44.7301 27.6698 44.5633 27.6688 44.403 27.6306C44.2428 27.5924 44.0934 27.5181 43.9662 27.4132C43.839 27.3084 43.7373 27.1758 43.6689 27.0256C43.3973 26.4208 42.957 25.9077 42.401 25.5483C41.845 25.1889 41.1971 24.9984 40.5356 25C40.0429 25.0014 39.5562 25.1081 39.1078 25.313C38.6595 25.5178 38.2599 25.8161 37.9356 26.188C37.6113 26.5599 37.3697 26.9968 37.2271 27.4696C37.0844 27.9424 37.0439 28.4403 37.1083 28.93C37.1083 28.9789 37.1227 29.0277 37.1317 29.0765C37.1573 29.2213 37.1533 29.3697 37.12 29.5128C37.0867 29.6559 37.0247 29.7908 36.9378 29.9092C36.851 30.0275 36.741 30.127 36.6147 30.2015C36.4883 30.276 36.3481 30.324 36.2027 30.3425C35.006 30.504 33.8984 31.0652 33.0589 31.9354C32.2194 32.8057 31.6969 33.9343 31.5759 35.1389C31.5542 35.3684 31.4601 35.5851 31.3074 35.7574C31.1546 35.9298 30.9511 36.0489 30.7262 36.0974C30.0295 36.2484 29.3964 36.6116 28.9136 37.1373C28.4308 37.663 28.122 38.3256 28.0293 39.0341C27.9367 39.7427 28.0648 40.4627 28.3962 41.0954C28.7275 41.7281 29.2459 42.2427 29.8802 42.5685C30.0753 42.6691 30.2353 42.8267 30.3391 43.0205C30.4428 43.2143 30.4853 43.4351 30.4611 43.6537C30.4469 43.781 30.4396 43.909 30.4394 44.0371C30.4371 44.7313 30.6439 45.41 31.0327 45.9844C31.4215 46.5588 31.9742 47.0021 32.6185 47.2563C32.7767 47.3196 32.9178 47.4193 33.0304 47.5476C33.1429 47.6758 33.2237 47.8288 33.2661 47.9942C33.5451 49.0688 34.1505 50.0298 34.9983 50.7443C35.8461 51.4587 36.8944 51.8913 37.9982 51.9821C39.102 52.0729 40.2067 51.8174 41.1593 51.251C42.1119 50.6846 42.8653 49.8354 43.3153 48.8208C43.4288 48.5654 43.6362 48.3638 43.8943 48.258C44.1524 48.1522 44.4413 48.1504 44.7007 48.2529C45.5679 48.5981 46.5107 48.7073 47.4335 48.5694C47.6976 48.5299 47.9669 48.5897 48.1896 48.7373C48.4124 48.8848 48.5729 49.1097 48.6403 49.3688C48.8088 50.0016 49.1638 50.5687 49.6588 50.9961C50.1539 51.4235 50.766 51.6912 51.4152 51.7642C52.0644 51.8373 52.7205 51.7123 53.2977 51.4056C53.875 51.0989 54.3465 50.6248 54.6507 50.0452C54.7311 49.889 54.8481 49.7547 54.9917 49.6539C55.1353 49.5531 55.3012 49.4887 55.4751 49.4664C57.0599 49.2756 58.5408 48.5766 59.6973 47.4737C60.8539 46.3708 61.6242 44.9228 61.8937 43.3455C62.1631 41.7681 61.9172 40.1457 61.1926 38.7197C60.4681 37.2938 59.3035 36.1406 57.8724 35.4319V35.4355Z" fill="#414141"/>
</svg>
