<svg width="90" height="113" viewBox="0 0 90 113" fill="none" xmlns="http://www.w3.org/2000/svg">
<path d="M90 45C90 79.3013 47.9068 110.808 46.1142 112.133C45.7916 112.371 45.4011 112.5 45 112.5C44.5989 112.5 44.2083 112.371 43.8858 112.133C42.0932 110.808 0 79.3013 0 45C1.77842e-07 33.0653 4.74106 21.6193 13.1802 13.1802C21.6193 4.74106 33.0653 0 45 0C56.9347 0 68.3807 4.74106 76.8198 13.1802C85.2589 21.6193 90 33.0653 90 45ZM78.75 45C78.75 38.3249 76.7706 31.7997 73.0621 26.2495C69.3536 20.6993 64.0826 16.3735 57.9156 13.8191C51.7486 11.2646 44.9626 10.5962 38.4157 11.8985C31.8688 13.2007 25.8552 16.4151 21.1351 21.1351C16.4151 25.8552 13.2007 31.8688 11.8985 38.4157C10.5962 44.9626 11.2646 51.7486 13.8191 57.9156C16.3735 64.0826 20.6993 69.3536 26.2495 73.0621C31.7997 76.7706 38.3249 78.75 45 78.75C53.9479 78.7398 62.5265 75.1808 68.8536 68.8536C75.1808 62.5265 78.7398 53.9479 78.75 45Z" fill="#414141"/>
<path d="M78.75 45C78.75 38.3249 76.7706 31.7997 73.0621 26.2495C69.3536 20.6993 64.0826 16.3735 57.9156 13.8191C51.7486 11.2646 44.9626 10.5962 38.4157 11.8985C31.8688 13.2007 25.8552 16.4151 21.1351 21.1351C16.4151 25.8552 13.2007 31.8688 11.8985 38.4157C10.5962 44.9626 11.2646 51.7486 13.8191 57.9156C16.3735 64.0826 20.6993 69.3536 26.2495 73.0621C31.7997 76.7706 38.3249 78.75 45 78.75C53.9479 78.7398 62.5265 75.1808 68.8536 68.8536C75.1808 62.5265 78.7398 53.9479 78.75 45Z" fill="white"/>
<path d="M37.6286 60.5363C37.6286 61.1897 37.8881 61.8164 38.3501 62.2784C38.8122 62.7404 39.4388 63 40.0922 63H50.8831C51.5365 63 52.1632 62.7404 52.6252 62.2784C53.0872 61.8164 53.3468 61.1897 53.3468 60.5363V51.3468H62.5363C63.1897 51.3468 63.8164 51.0872 64.2784 50.6252C64.7404 50.1632 65 49.5365 65 48.8831V38.1169C65 37.4635 64.7404 36.8368 64.2784 36.3748C63.8164 35.9128 63.1897 35.6532 62.5363 35.6532H53.3468V26.4637C53.3468 25.8103 53.0872 25.1836 52.6252 24.7216C52.1632 24.2596 51.5365 24 50.8831 24H40.0922C39.4388 24 38.8122 24.2596 38.3501 24.7216C37.8881 25.1836 37.6286 25.8103 37.6286 26.4637V35.6532H28.4637C27.8103 35.6532 27.1836 35.9128 26.7216 36.3748C26.2596 36.8368 26 37.4635 26 38.1169V48.8831C26 49.5365 26.2596 50.1632 26.7216 50.6252C27.1836 51.0872 27.8103 51.3468 28.4637 51.3468H37.6286V60.5363ZM30.9274 46.4195V40.5805H40.0922C40.7456 40.5805 41.3723 40.321 41.8343 39.859C42.2963 39.3969 42.5559 38.7703 42.5559 38.1169V28.9274H48.4195V38.1169C48.4195 38.7703 48.679 39.3969 49.1411 39.859C49.6031 40.321 50.2297 40.5805 50.8831 40.5805H60.0726V46.4195H50.8831C50.2297 46.4195 49.6031 46.679 49.1411 47.1411C48.679 47.6031 48.4195 48.2297 48.4195 48.8831V58.0726H42.5559V48.8831C42.5559 48.2297 42.2963 47.6031 41.8343 47.1411C41.3723 46.679 40.7456 46.4195 40.0922 46.4195H30.9274Z" fill="#414141"/>
</svg>
