<svg width="90" height="114" viewBox="0 0 90 114" fill="none" xmlns="http://www.w3.org/2000/svg">
<path d="M45 32.4L61.875 46.2V62.625C61.8735 63.1218 61.6755 63.5979 61.3242 63.9492C60.9729 64.3005 60.4968 64.4985 60 64.5H50.625V49.5C50.6235 49.0032 50.4255 48.5271 50.0742 48.1758C49.7229 47.8245 49.2468 47.6265 48.75 47.625H41.25C40.7532 47.6265 40.2771 47.8245 39.9258 48.1758C39.5745 48.5271 39.3765 49.0032 39.375 49.5V64.5H30C29.5032 64.4985 29.0271 64.3005 28.6758 63.9492C28.3245 63.5979 28.1265 63.1218 28.125 62.625V46.2L45 32.4ZM46.1874 23.6739C45.8525 23.3995 45.433 23.2495 45 23.2495C44.567 23.2495 44.1475 23.3995 43.8126 23.6739L23.1876 40.5489C22.997 40.7048 22.839 40.8968 22.7226 41.1138C22.6062 41.3307 22.5337 41.5685 22.5093 41.8135C22.4848 42.0586 22.5088 42.306 22.5799 42.5417C22.6511 42.7775 22.7679 42.9969 22.9239 43.1874C23.0798 43.378 23.2718 43.536 23.4888 43.6524C23.7057 43.7688 23.9435 43.8413 24.1886 43.8657C24.4336 43.8902 24.681 43.8662 24.9167 43.7951C25.1525 43.7239 25.3719 43.6071 25.5624 43.4511L45 27.5475L64.4376 43.4511C64.8224 43.7661 65.3166 43.9152 65.8115 43.8658C66.3063 43.8163 66.7612 43.5723 67.0761 43.1875C67.391 42.8026 67.5402 42.3084 67.4907 41.8136C67.4413 41.3187 67.1973 40.8638 66.8124 40.5489L46.1874 23.6739ZM90 45.75C90 80.0513 47.9068 111.558 46.1142 112.883C45.7916 113.121 45.4011 113.25 45 113.25C44.5989 113.25 44.2083 113.121 43.8858 112.883C42.0932 111.558 0 80.0513 0 45.75C1.77842e-07 33.8153 4.74106 22.3693 13.1802 13.9302C21.6193 5.49106 33.0653 0.75 45 0.75C56.9347 0.75 68.3807 5.49106 76.8198 13.9302C85.2589 22.3693 90 33.8153 90 45.75ZM78.75 45.75C78.75 39.0749 76.7706 32.5497 73.0621 26.9995C69.3536 21.4493 64.0826 17.1235 57.9156 14.5691C51.7486 12.0146 44.9626 11.3462 38.4157 12.6485C31.8688 13.9507 25.8552 17.1651 21.1351 21.8851C16.4151 26.6052 13.2007 32.6188 11.8985 39.1657C10.5962 45.7126 11.2646 52.4986 13.8191 58.6656C16.3735 64.8326 20.6993 70.1036 26.2495 73.8121C31.7997 77.5206 38.3249 79.5 45 79.5C53.9479 79.4898 62.5265 75.9308 68.8536 69.6036C75.1808 63.2765 78.7398 54.6979 78.75 45.75Z" fill="#414141"/>
<path fill-rule="evenodd" clip-rule="evenodd" d="M78.75 45.75C78.75 39.0749 76.7706 32.5497 73.0621 26.9995C69.3536 21.4493 64.0826 17.1235 57.9156 14.5691C51.7486 12.0146 44.9626 11.3462 38.4157 12.6485C31.8688 13.9507 25.8552 17.1651 21.1351 21.8851C16.4151 26.6052 13.2007 32.6188 11.8985 39.1657C10.5962 45.7126 11.2646 52.4986 13.8191 58.6656C16.3735 64.8326 20.6993 70.1036 26.2495 73.8121C31.7997 77.5206 38.3249 79.5 45 79.5C53.9479 79.4898 62.5265 75.9308 68.8536 69.6036C75.1808 63.2765 78.7398 54.6979 78.75 45.75ZM61.875 46.2L45 32.4L28.125 46.2V62.625C28.1265 63.1218 28.3245 63.5979 28.6758 63.9492C29.0271 64.3005 29.5032 64.4985 30 64.5H39.375V49.5C39.3765 49.0032 39.5745 48.5271 39.9258 48.1758C40.2771 47.8245 40.7532 47.6265 41.25 47.625H48.75C49.2468 47.6265 49.7229 47.8245 50.0742 48.1758C50.4255 48.5271 50.6235 49.0032 50.625 49.5V64.5H60C60.4968 64.4985 60.9729 64.3005 61.3242 63.9492C61.6755 63.5979 61.8735 63.1218 61.875 62.625V46.2ZM45 23.2495C45.433 23.2495 45.8525 23.3995 46.1874 23.6739L66.8124 40.5489C67.1973 40.8638 67.4413 41.3187 67.4907 41.8136C67.5402 42.3084 67.391 42.8026 67.0761 43.1875C66.7612 43.5723 66.3063 43.8163 65.8115 43.8658C65.3166 43.9152 64.8224 43.7661 64.4376 43.4511L45 27.5475L25.5624 43.4511C25.3719 43.6071 25.1525 43.7239 24.9167 43.7951C24.681 43.8662 24.4336 43.8902 24.1886 43.8657C23.9435 43.8413 23.7057 43.7688 23.4888 43.6524C23.2718 43.536 23.0798 43.378 22.9239 43.1874C22.7679 42.9969 22.6511 42.7775 22.5799 42.5417C22.5088 42.306 22.4848 42.0586 22.5093 41.8135C22.5337 41.5685 22.6062 41.3307 22.7226 41.1138C22.839 40.8968 22.997 40.7048 23.1876 40.5489L43.8126 23.6739C44.1475 23.3995 44.567 23.2495 45 23.2495Z" fill="white"/>
</svg>
