<svg width="770" height="686" viewBox="0 0 770 686" fill="none" xmlns="http://www.w3.org/2000/svg">
<path d="M128.551 569.834C130.256 570.938 131.951 572.036 133.721 572.786L133.748 572.787C134.441 573.094 135.189 573.376 135.955 573.305C138.278 573.12 137.538 570.469 136.873 569.048C136.592 568.474 136.233 567.949 135.875 567.426C135.381 566.704 134.89 565.987 134.615 565.152C134.569 564.986 134.522 564.821 134.612 564.662C134.7 564.53 134.893 564.485 135.057 564.466C137.451 563.958 139.379 562.392 139.255 559.936C139.138 557.27 139.113 554.648 139.087 552.02L139.087 552.019C139.077 550.909 139.066 549.797 139.048 548.681C139.033 546.774 138.896 544.589 137.403 543.399C136.769 542.894 135.962 542.625 135.167 542.361C134.09 542.003 133.037 541.653 132.471 540.733C131.994 539.919 132.015 538.94 132.061 538.017L132.975 521.154C133.331 514.373 142.279 509.512 148.777 505.982L148.778 505.981C150.217 505.2 151.535 504.484 152.613 503.826C153.202 503.474 153.975 503.267 154.555 503.65C155.136 504.005 155.292 504.721 155.395 505.379C155.835 508.45 155.882 511.545 155.929 514.639C155.965 516.961 156 519.283 156.201 521.592C156.256 522.139 156.467 522.83 157.01 522.857C157.227 522.868 157.396 522.767 157.565 522.64C158.175 522.228 158.568 521.609 158.966 520.982C159.23 520.566 159.497 520.147 159.83 519.783C160.468 519.077 161.173 518.921 161.901 518.761C162.354 518.661 162.817 518.558 163.278 518.32C164.258 517.769 165.602 516.447 166.327 515.557C166.784 515.002 167.086 514.319 167.389 513.633C167.643 513.058 167.898 512.481 168.246 511.976C170.852 508.266 176.015 507.35 180.539 507.791C182.196 507.942 183.843 508.232 185.487 508.521C188.334 509.022 191.174 509.522 194.049 509.301C194.275 509.283 194.505 509.261 194.738 509.238L194.74 509.238C196.621 509.059 198.676 508.863 199.97 510.138C200.945 511.092 201.116 512.46 201.289 513.85C201.397 514.718 201.506 515.593 201.812 516.382C202.785 518.924 205.527 520.174 208.21 521.397C211.181 522.75 214.081 524.072 214.433 527.079C217.569 529.428 217.724 530.7 218.164 534.304L218.207 534.657L218.239 534.918C218.518 537.185 218.53 539.465 218.543 541.747C218.554 543.599 218.564 545.453 218.717 547.302C218.81 548.723 219.087 550.288 220.156 551.239C221.562 552.475 223.522 552.119 225.464 551.767C226.152 551.643 226.837 551.518 227.495 551.465C230.257 551.229 232.828 552.36 235.421 553.5C237.19 554.278 238.97 555.061 240.83 555.418C242.729 555.773 244.662 555.672 246.599 555.572C247.688 555.515 248.778 555.458 249.865 555.482C252.882 555.577 256.213 556.476 257.801 559.059C258.653 560.428 258.875 562.032 259.099 563.645C259.28 564.946 259.461 566.252 259.973 567.444C261.167 570.28 264.021 572.027 266.845 573.283C272.245 575.683 277.75 576.264 283.34 576.854C285.168 577.047 287.005 577.241 288.851 577.499C291.041 577.798 293.687 577.139 294.524 575.084C295.395 572.867 293.426 570.292 291.073 569.985C291.026 569.98 290.979 569.975 290.932 569.97C290.568 569.93 290.193 569.89 289.89 569.682C289.523 569.392 289.384 568.895 289.271 568.426C288.815 566.634 287.945 564.958 286.734 563.564C286.405 563.191 286.053 562.836 285.701 562.483L285.7 562.482C284.951 561.729 284.205 560.979 283.695 560.065C282.946 558.694 282.905 556.759 284.122 555.811C285.017 555.128 286.166 555.226 287.331 555.326C288.302 555.41 289.286 555.494 290.145 555.128C291.778 554.454 292.327 552.602 292.854 550.823L292.854 550.821C292.973 550.42 293.091 550.023 293.22 549.644C293.985 547.367 295.554 545.376 297.579 544.06C299.531 542.809 300.492 543.678 302.152 545.179C302.237 545.256 302.323 545.334 302.412 545.414C302.678 545.658 302.933 545.927 303.187 546.195L303.189 546.197C303.955 547.005 304.717 547.808 305.773 547.922C309.593 548.301 309.803 541.831 307.91 539.914C307.822 539.83 307.729 539.748 307.634 539.665C307.341 539.405 307.039 539.139 306.849 538.799C306.628 538.386 306.597 537.876 306.567 537.391L306.566 537.37C306.409 534.476 306.58 531.571 307.102 528.711C307.359 527.362 307.983 525.759 309.348 525.663C310.661 525.537 311.518 526.941 312.086 528.113C315.311 535.024 321.007 536.557 328.468 535.973L328.967 535.933C333.474 535.57 338.315 535.181 342.079 537.624L342.108 537.644C343.316 538.464 344.88 539.525 346.03 538.663C346.432 538.352 346.646 537.877 346.859 537.405C347.066 536.945 347.272 536.487 347.649 536.184C348.642 535.389 350.156 536.144 350.895 537.161C351.195 537.562 351.439 538.013 351.684 538.466C352.043 539.131 352.403 539.799 352.945 540.311C354.524 540.478 355.824 540.527 357.151 540.577C358.281 540.62 359.43 540.663 360.789 540.78L367.644 541.363C369.929 541.558 372.214 541.752 374.507 541.947C376.242 542.087 378.114 542.207 379.628 541.328C380.118 541.028 380.543 540.632 380.968 540.236C381.469 539.77 381.97 539.305 382.574 538.996C384.858 537.812 387.192 539.245 389.548 540.691C390.505 541.279 391.467 541.869 392.43 542.287C393.417 542.72 394.525 543.007 395.626 543.291C398.032 543.913 400.409 544.528 401.443 546.652C402.606 549.013 401.289 551.376 399.926 553.82C398.825 555.797 397.693 557.826 397.82 559.951C398.035 563.31 402.133 565.772 405.197 564.372C405.269 564.338 405.342 564.302 405.416 564.266C405.825 564.066 406.254 563.856 406.69 563.901C407.927 564.024 407.98 565.46 408.031 566.852C408.047 567.29 408.063 567.723 408.116 568.11C408.422 570.282 410.454 571.258 412.563 572.272C414.207 573.062 415.898 573.874 416.854 575.293C417.641 576.463 417.842 577.916 418.04 579.352C418.275 581.062 418.508 582.747 419.723 583.902C421.62 585.738 424.784 585.05 427.131 583.832C427.537 583.618 427.945 583.391 428.356 583.161C430.289 582.082 432.281 580.969 434.451 581.144C437.787 581.39 440.071 579.243 442.421 576.854C442.779 576.516 443.094 576.147 443.411 575.775C443.701 575.434 443.993 575.091 444.321 574.769C446.034 573.139 448.387 572.356 450.627 571.65C450.672 571.637 450.717 571.623 450.763 571.609C451.188 571.48 451.615 571.35 452.054 571.421C453.567 571.659 453.81 573.904 452.956 575.196C452.337 576.128 451.714 576.762 451.164 577.322C450.017 578.49 449.182 579.341 449.331 581.905C449.548 585.238 452.059 588.411 454.231 590.751C454.809 591.36 455.406 591.96 456.003 592.56C458.403 594.971 460.817 597.396 462.078 600.531C463.356 603.695 463.308 607.236 463.26 610.745C463.201 615.031 463.143 619.272 465.502 622.727C465.925 623.343 466.417 623.913 466.909 624.483C467.454 625.114 467.998 625.745 468.45 626.439C470.008 628.865 470.321 631.759 470.636 634.676C470.884 636.965 471.133 639.269 471.987 641.37C472.837 643.454 474.942 645.492 477.049 644.724C479.015 643.988 479.201 641.744 479.391 639.46C479.474 638.458 479.558 637.449 479.793 636.555C479.996 635.748 480.583 634.879 481.397 634.946C482.311 635.027 482.804 636.884 483.221 638.458C483.436 639.265 483.63 639.997 483.851 640.377C485.307 642.872 487.991 644.747 490.664 645.75C494.567 647.195 498.873 647.108 502.989 646.44C503.329 646.384 503.668 646.326 504.006 646.267C505.72 645.969 507.424 645.674 509.142 645.872C511.201 646.082 513.298 647.166 514.102 649.084C514.354 649.675 514.46 650.311 514.567 650.95C514.646 651.426 514.726 651.902 514.866 652.362C515.473 654.348 517.09 655.716 518.72 657.093C520.175 658.323 521.639 659.562 522.403 661.256C522.924 662.39 523.1 663.667 523.273 664.929C523.518 666.707 523.758 668.456 524.952 669.741C526.502 671.423 529.08 671.605 531.365 671.636L531.457 671.638L531.458 671.638C534.775 671.709 536.222 671.74 537.06 671.041C537.707 670.501 537.991 669.526 538.495 667.796C538.66 667.228 538.849 666.578 539.083 665.836C539.275 665.247 539.525 664.606 540.057 664.305C540.868 663.855 541.906 664.342 542.413 665.102C542.884 665.846 542.978 666.781 543.068 667.669L543.073 667.721C543.545 672.509 544.699 677.249 546.439 681.719C547.067 683.329 547.908 685.058 549.509 685.709C552.017 686.731 554.657 684.547 556.104 682.25C556.38 681.812 556.646 681.358 556.912 680.902L556.915 680.897C558.047 678.963 559.195 677 561.197 676.13C561.876 675.842 562.615 675.696 563.348 675.552C564.478 675.329 565.595 675.108 566.456 674.375C569.893 671.427 573.915 669.445 577.944 667.459L577.946 667.457L577.948 667.456C579.583 666.65 581.22 665.844 582.819 664.972C585.44 663.539 587.68 661.483 589.901 659.445C592.208 657.328 594.494 655.229 597.169 653.864C600.893 651.982 603.047 654.482 605.201 656.983C607.052 659.132 608.903 661.282 611.752 660.655C612.699 660.453 613.498 659.904 614.296 659.356C614.982 658.885 615.668 658.415 616.448 658.164C619.188 657.264 622.405 659.928 622.047 662.769C624.122 667.609 630.332 669.195 635.486 670.13C638.838 670.754 642.255 670.753 645.669 670.753C647.531 670.752 649.391 670.752 651.24 670.853C651.91 670.886 652.585 670.931 653.263 670.977C656.624 671.204 660.04 671.435 663.116 670.159C666.812 668.626 669.473 663.802 667.157 660.53C666.939 660.237 666.692 659.965 666.445 659.693C666.143 659.36 665.84 659.027 665.589 658.655C664.674 657.33 664.54 655.636 664.509 654.055C664.383 647.242 665.837 640.398 668.727 634.224C669.399 632.76 670.207 631.275 671.507 630.304C672.78 629.332 674.675 628.99 676.02 629.874C676.789 630.376 677.263 631.185 677.742 632.004C678.133 632.672 678.528 633.347 679.09 633.864C679.959 634.655 681.167 634.965 682.329 635.262L682.396 635.28C683.338 635.507 684.278 635.738 685.217 635.969C687.954 636.641 690.687 637.312 693.455 637.894C694.621 638.152 695.922 638.237 697.24 638.323C699.332 638.46 701.468 638.6 703.18 639.436C705.686 640.633 706.723 643.545 707.671 646.207L707.785 646.525C707.978 647.049 708.176 647.644 708.386 648.278C709.614 651.976 711.289 657.021 715.205 657.237C716.624 657.325 718.015 656.996 719.398 656.669C720.078 656.508 720.756 656.348 721.434 656.237C724.218 655.776 727.073 656.102 729.914 656.427C733.404 656.826 736.874 657.223 740.168 656.154C740.859 655.943 741.527 655.65 742.015 655.129C742.91 654.102 742.766 652.666 742.623 651.237C742.597 650.98 742.571 650.722 742.552 650.468C742.536 650.267 742.524 650.068 742.519 649.872C742.468 648.154 743.157 646.337 744.593 645.373C746 644.435 748.223 644.626 749.188 646.035C749.581 646.587 749.743 647.166 749.902 647.737C750.093 648.421 750.28 649.092 750.859 649.684C752.264 651.113 755.111 651.523 757.272 651.835C757.622 651.886 757.954 651.934 758.259 651.983L768.468 653.63C770.09 653.873 771.79 654.175 773.044 655.244C773.9 655.992 774.438 657.028 774.97 658.053C775.054 658.215 775.138 658.377 775.222 658.537C776.867 661.613 779.817 664.727 783.252 664.079C784.051 663.921 784.8 663.57 785.553 663.218C785.939 663.036 786.327 662.855 786.723 662.699C789.549 661.556 792.367 661.883 795.201 662.213C796.881 662.408 798.566 662.604 800.263 662.495C804.251 662.229 808.095 661.003 811.162 658.432C812.024 657.715 812.846 656.947 813.667 656.181L813.668 656.18C815.498 654.471 817.32 652.769 819.554 651.658C820.662 651.104 821.839 650.715 823.016 650.325L823.018 650.325C823.945 650.018 824.873 649.711 825.768 649.324C827.771 648.442 829.749 646.988 830.343 644.866C830.427 644.59 830.485 644.309 830.543 644.029C830.643 643.546 830.743 643.064 830.972 642.61C831.349 641.845 832.066 641.298 832.773 640.758L832.863 640.689C834.605 639.407 836.33 638.057 838.052 636.711C839.792 635.349 841.529 633.99 843.275 632.708C845.503 631.088 847.212 631.585 849.267 632.183C850.286 632.479 851.39 632.8 852.685 632.9C855.123 633.087 857.292 631.906 859.488 630.711C860.882 629.952 862.287 629.187 863.778 628.764C866.476 627.963 869.313 628.32 872.144 628.675C873.111 628.796 874.078 628.918 875.037 628.993C878.807 629.288 883.2 628.524 885.13 625.27C885.4 624.805 885.616 624.314 885.832 623.825C886.022 623.395 886.211 622.967 886.435 622.558C887.106 621.389 888.116 620.726 889.132 620.059C890.233 619.336 891.342 618.608 892.033 617.225C893.243 614.78 893.185 611.537 891.358 609.405C891.265 609.303 891.17 609.202 891.074 609.1L891.072 609.098C890.66 608.661 890.243 608.218 890.027 607.678C889.762 606.985 889.856 606.173 889.947 605.442C890.434 601.641 890.928 597.839 891.422 594.038C891.915 590.237 892.409 586.436 892.896 582.635C892.924 582.429 892.955 582.212 892.987 581.986C893.349 579.441 893.881 575.703 892.331 573.677C891.616 572.716 890 572.364 889.221 573.251C888.821 573.71 888.731 574.316 888.641 574.926C888.561 575.46 888.482 575.997 888.193 576.44C887.916 576.877 887.465 577.151 887.003 577.43C886.822 577.54 886.64 577.65 886.467 577.771C885.646 578.345 885.287 579.086 884.926 579.834C884.679 580.345 884.43 580.86 884.032 581.326C883.629 581.769 882.859 581.922 882.47 581.522C882.185 581.235 882.151 580.825 882.142 580.444C881.964 575.779 882.303 571.113 883.183 566.527C883.593 564.288 884.368 561.821 886.404 560.833C887.038 560.528 887.738 560.405 888.435 560.281C889.208 560.145 889.978 560.008 890.656 559.626C891.144 559.329 891.546 558.908 891.948 558.487C892.123 558.303 892.299 558.12 892.481 557.947C893.684 556.726 895.175 555.765 896.782 555.191C897.747 554.851 898.703 554.559 899.647 554.271C902.147 553.508 904.563 552.77 906.833 551.222C907.749 550.609 908.644 549.956 909.541 549.302C911.757 547.687 913.978 546.067 916.53 545.03C921.614 542.966 927.332 543.493 932.803 544.063C934.618 544.234 936.513 544.464 938.103 545.332C939.8 546.26 941.03 547.818 942.206 549.346C943.841 551.495 945.484 553.637 947.126 555.779C948.77 557.924 950.415 560.069 952.052 562.22C952.692 563.041 953.332 563.863 953.72 564.834C953.923 565.327 954.058 565.857 954.193 566.384C954.445 567.373 954.697 568.356 955.388 569.083C956.391 570.115 957.848 570.255 959.323 570.397C960.096 570.471 960.875 570.546 961.595 570.75C963.663 571.315 965.216 572.944 966.662 574.54C967.263 575.192 967.854 575.86 968.443 576.527L968.445 576.53C972.338 580.936 976.179 585.283 982.69 584.588C984.415 584.401 986.177 583.997 987.432 582.834C987.948 582.382 988.346 581.827 988.746 581.271C989.052 580.845 989.36 580.417 989.721 580.034C991.128 578.551 993.208 577.783 995.249 577.802C997.291 577.793 999.298 578.491 1001.04 579.585C1001.55 579.9 1002.05 580.25 1002.56 580.601C1004.08 581.665 1005.62 582.738 1007.44 582.868C1008.2 582.93 1008.96 582.82 1009.71 582.71C1010.62 582.577 1011.52 582.445 1012.41 582.623C1016.02 583.319 1018.6 587.339 1018.48 590.792C1018.47 591.08 1018.44 591.44 1018.4 591.84C1018.23 593.588 1017.99 596.095 1019.47 596.721C1020 596.965 1020.61 597.004 1021.21 597.042C1021.36 597.052 1021.51 597.062 1021.66 597.074C1023.06 597.253 1024.42 597.81 1025.5 598.68C1025.71 598.853 1025.92 599.038 1026.13 599.224L1026.13 599.225C1026.79 599.815 1027.45 600.407 1028.29 600.614C1029.28 600.881 1030.42 600.502 1031.03 599.688C1031.71 598.796 1031.69 597.769 1031.67 596.753C1031.65 595.945 1031.63 595.144 1031.97 594.425C1032.59 593.061 1034.57 592.197 1036.11 591.523C1036.26 591.458 1036.41 591.394 1036.55 591.333C1036.74 591.247 1036.92 591.164 1037.09 591.083C1038.98 590.197 1040.81 589.143 1042.52 587.948C1043.68 587.161 1044.91 585.915 1044.46 584.613C1044.35 584.267 1044.14 583.96 1043.92 583.657C1043.61 583.212 1043.3 582.777 1043.38 582.245C1043.42 581.839 1043.69 581.498 1043.95 581.184C1046.18 578.49 1048.51 575.882 1050.92 573.333C1051.17 573.069 1051.47 572.718 1051.8 572.325C1053.4 570.439 1055.81 567.592 1057.98 568.781C1058.73 569.194 1059.07 569.996 1059.42 570.808C1059.63 571.288 1059.83 571.772 1060.13 572.181C1060.42 572.577 1060.8 572.902 1061.18 573.227C1061.56 573.552 1061.93 573.877 1062.23 574.272C1063.04 575.402 1062.96 577.14 1062.04 578.184C1061.91 578.324 1061.77 578.456 1061.63 578.588C1061.33 578.87 1061.04 579.152 1060.85 579.514C1060.64 579.939 1060.62 580.401 1060.6 580.862L1060.59 580.947C1060.55 583.003 1060.49 585.672 1061.66 587.395C1061.91 587.763 1062.2 588.092 1062.5 588.421C1062.83 588.796 1063.16 589.172 1063.43 589.606C1064.29 590.936 1064.39 592.584 1064.48 594.199C1064.49 594.379 1064.5 594.558 1064.51 594.736C1064.52 594.887 1064.53 595.038 1064.54 595.188C1064.74 597.534 1065.36 599.831 1065.97 602.12C1066.8 605.193 1067.62 608.252 1067.42 611.394C1067.41 611.512 1067.41 611.63 1067.4 611.748C1067.36 612.334 1067.33 612.914 1067.48 613.466C1067.66 613.994 1068.01 614.435 1068.35 614.878L1068.35 614.88C1068.46 615.017 1068.57 615.154 1068.67 615.295C1069.74 616.845 1070.07 619.502 1068.58 620.899C1067.64 621.778 1066.32 622.094 1065.04 622.031C1064.9 622.024 1064.75 622.012 1064.6 621.998C1064.45 621.985 1064.31 621.969 1064.16 621.953L1064.16 621.953C1063.71 621.905 1063.26 621.856 1062.82 621.867C1062.08 621.885 1061.31 622.147 1060.85 622.723C1060.64 622.985 1060.5 623.308 1060.37 623.627C1060.17 624.103 1059.98 624.57 1059.54 624.809C1059.15 625.015 1058.83 625.14 1058.57 625.242C1057.77 625.559 1057.56 625.643 1057.52 627.187C1057.51 627.416 1057.51 627.644 1057.51 627.871L1057.5 627.886C1057.48 629.438 1057.45 630.945 1056.32 632.192C1055.79 632.798 1055.09 633.228 1054.39 633.654C1053.49 634.2 1052.61 634.739 1052.12 635.634C1051.56 636.64 1051.63 637.923 1052.1 638.954C1052.75 640.351 1053.89 641.208 1055.04 642.07C1056.38 643.082 1057.74 644.102 1058.33 646.014C1058.53 646.647 1058.65 647.31 1058.77 647.971C1058.99 649.214 1059.21 650.453 1059.94 651.484C1060.48 652.21 1061.22 652.745 1061.96 653.282C1062.34 653.56 1062.72 653.838 1063.08 654.144C1065.58 656.337 1066.55 659.951 1066.83 663.15C1066.96 664.688 1066.71 666.347 1066.46 668.003L1066.46 668.004C1066.15 670 1065.85 671.992 1066.22 673.766C1066.51 675.033 1067.74 676.182 1069 675.891C1069.91 675.691 1070.49 674.876 1071.02 674.112C1071.87 672.931 1072.69 671.721 1073.51 670.512L1073.51 670.505C1074.13 669.637 1074.75 668.714 1074.99 667.692C1075.17 666.878 1075.11 666.031 1075.05 665.2L1075.03 665.012C1075.03 664.943 1075.03 664.875 1075.02 664.807C1074.82 661.612 1074.92 657.424 1076.13 654.407C1076.47 653.58 1077.25 652.665 1078.11 652.98C1078.64 653.196 1078.86 653.806 1079.05 654.36C1079.45 655.632 1079.85 656.904 1080.28 658.178C1080.35 658.399 1080.42 658.648 1080.6 658.793C1080.81 658.967 1081.05 659.006 1081.29 659.045C1082.89 659.26 1084.73 659.405 1085.91 658.265C1086.41 657.771 1086.68 657.107 1086.95 656.44C1087.22 655.779 1087.49 655.115 1087.99 654.611C1089.47 653.126 1091.22 653.651 1092.97 654.175C1094.67 654.686 1096.38 655.197 1097.83 653.844C1098.69 653.028 1098.91 651.835 1099.14 650.64C1099.24 650.128 1099.33 649.616 1099.48 649.133C1100.01 647.403 1101.21 646.043 1102.41 644.68C1103.25 643.718 1104.1 642.755 1104.72 641.659C1106.54 638.4 1107 635.237 1107.15 631.542C1107.59 619.772 1108.18 607.994 1108.78 596.225L1108.78 596.221C1108.96 592.691 1109.13 589.162 1109.31 585.634C1109.38 584.114 1109.38 582.613 1109.38 581.115L1109.38 581.112L1109.38 581.109C1109.38 578.917 1109.37 576.733 1109.61 574.514C1109.64 574.229 1109.67 573.943 1109.7 573.656L1109.7 573.653C1110.06 570.329 1110.43 566.837 1108.78 563.8C1108.58 563.429 1108.39 563.078 1108.2 562.74C1106.76 560.116 1105.76 558.302 1105.95 554.839L1107.51 528.315C1107.68 525.201 1106.3 523.343 1104.61 521.06C1104.22 520.535 1103.81 519.989 1103.4 519.399C1100.33 514.973 1097.26 510.554 1094.19 506.134C1091.12 501.715 1088.05 497.296 1084.97 492.87C1082.56 489.374 1080.03 485.519 1080.24 481.255C1080.27 480.516 1080.39 479.782 1080.51 479.047C1080.68 478.053 1080.84 477.059 1080.79 476.055C1080.79 475.998 1080.79 475.94 1080.79 475.881C1080.78 475.814 1080.78 475.746 1080.78 475.677C1080.77 475.488 1080.76 475.294 1080.74 475.097C1080.63 473.277 1080.5 471.236 1082.07 470.645C1083.34 470.163 1084.65 471.208 1085.64 472.183C1092.09 478.709 1097.81 485.936 1103.52 493.152C1105.57 495.746 1107.62 498.338 1109.7 500.896L1109.74 500.935C1111.75 503.447 1113.84 506.045 1114.66 509.173C1114.75 509.514 1114.82 509.866 1114.89 510.22C1115.17 511.557 1115.46 512.925 1116.44 513.835C1117.1 514.433 1117.93 514.719 1118.77 515.004C1119.1 515.116 1119.43 515.228 1119.74 515.359C1122.92 516.605 1125.07 519.488 1127.03 522.253L1136.35 535.292C1137.01 536.25 1137.7 537.21 1138.38 538.142C1139.21 539.315 1140.05 540.488 1140.88 541.661C1141.39 542.374 1141.9 543.086 1142.4 543.799C1142.73 544.255 1143.05 544.712 1143.37 545.168C1143.76 545.694 1144.14 546.353 1144.54 547.041L1144.54 547.045L1144.54 547.046C1145.36 548.464 1146.26 550.005 1147.37 550.756C1148.11 551.228 1149.11 551.359 1149.79 550.821C1150.21 550.515 1150.43 550.009 1150.62 549.528C1151.08 548.434 1151.52 547.312 1151.93 546.189C1152.24 545.333 1152.53 544.367 1152.17 543.505C1151.85 542.765 1151.14 542.36 1150.41 541.946C1150.07 541.753 1149.72 541.559 1149.42 541.328C1147.32 539.726 1147.25 536.674 1147.38 534.039C1147.4 533.632 1147.45 533.198 1147.76 532.996C1147.96 532.842 1148.2 532.854 1148.45 532.866C1148.79 532.892 1149.19 533.004 1149.61 533.122C1150.53 533.378 1151.55 533.661 1152.24 533.136C1152.41 533.031 1152.52 532.868 1152.63 532.695C1152.66 532.659 1152.68 532.623 1152.71 532.587C1153.06 532.114 1153.65 531.626 1154.18 531.924C1154.25 531.968 1154.3 532.019 1154.35 532.069C1154.38 532.098 1154.41 532.127 1154.44 532.155C1154.47 532.175 1154.49 532.195 1154.52 532.213C1154.88 532.504 1155.38 532.553 1155.86 532.599C1155.91 532.604 1155.95 532.608 1156 532.613C1157.24 532.729 1158.55 532.712 1159.79 532.528C1160.28 532.47 1160.77 532.359 1161.14 532.05C1161.51 531.714 1161.68 531.124 1161.4 530.729C1161.27 530.559 1161.09 530.441 1160.93 530.351C1160.8 530.274 1160.67 530.2 1160.55 530.13L1160.54 530.123C1158.96 529.191 1158.19 528.74 1157.42 526.884C1156.94 525.662 1156.21 524.455 1155.07 523.773C1153.39 522.775 1152.13 523.572 1150.96 524.307C1149.56 525.191 1148.3 525.985 1146.62 523.465C1145.74 522.114 1144.45 521.071 1142.96 520.507C1141.98 520.113 1140.94 519.934 1139.91 519.755C1138.91 519.582 1137.9 519.408 1136.96 519.04C1135.52 518.503 1134.61 517.582 1133.63 516.599C1133.3 516.264 1132.95 515.921 1132.58 515.584C1131.05 514.147 1129.49 512.546 1129.3 510.331C1129.26 509.796 1129.29 509.255 1129.33 508.714C1129.37 508.066 1129.42 507.421 1129.31 506.792C1129.12 505.531 1128.4 504.471 1127.67 503.399C1127.24 502.768 1126.8 502.133 1126.47 501.452C1125.46 499.332 1125.59 496.834 1125.7 494.471C1125.72 494.09 1125.74 493.683 1125.95 493.366C1126.18 493.024 1126.6 492.827 1126.99 492.683C1129.32 491.682 1131.03 490.813 1131.83 488.347C1132.56 486.151 1132.45 483.613 1130.37 482.149C1129.34 481.432 1128.13 481.143 1126.92 480.855C1126.45 480.743 1125.98 480.631 1125.52 480.494C1121.87 479.388 1118.96 476.74 1116.14 474.178C1109.65 468.204 1103.17 462.224 1096.68 456.244C1090.2 450.272 1083.72 444.299 1077.24 438.333L1077.01 438.12C1074.03 435.398 1071.03 432.642 1067.52 430.638C1065.72 429.597 1063.03 428.947 1061.85 430.659C1061.06 431.845 1061.55 433.53 1062.5 434.611C1063.07 435.267 1063.77 435.779 1064.47 436.293L1064.47 436.293C1064.92 436.626 1065.38 436.959 1065.8 437.333C1067.18 438.572 1068.19 440.147 1069.15 441.719C1069.78 442.754 1070.42 443.78 1071.06 444.801L1071.07 444.817L1071.07 444.82C1071.45 445.426 1071.83 446.03 1072.2 446.634C1071.32 446.917 1070.36 446.489 1069.54 446.012L1069.45 445.956C1068.68 445.469 1067.87 444.952 1066.98 444.96C1066.02 444.995 1065.08 445.929 1065.44 446.791C1064.17 447.862 1063.53 448.9 1062.82 450.047C1062.4 450.717 1061.96 451.425 1061.36 452.198C1060.2 453.72 1058.11 454.216 1056.18 454.066C1054.78 453.957 1053.42 453.552 1052.06 453.147C1051.8 453.071 1051.55 452.995 1051.29 452.921C1051.07 452.855 1050.84 452.791 1050.61 452.73C1045.02 451.31 1038.92 451.962 1033.75 454.566C1032.94 454.989 1032.1 455.465 1031.63 456.231C1030.74 457.603 1031.2 459.45 1032.03 460.852C1032.3 461.342 1032.61 461.811 1032.92 462.279L1032.92 462.282C1033.52 463.176 1034.11 464.065 1034.43 465.082C1035.5 468.32 1033.41 471.92 1030.52 473.765C1030.24 473.941 1029.9 474.116 1029.55 474.152C1028.48 474.209 1027.89 472.954 1027.59 471.932C1027.31 470.911 1027.01 469.889 1026.7 468.839C1026.1 466.794 1024.97 464.315 1022.82 464.318C1017.77 464.407 1020.3 470.214 1021.71 473.456C1022 474.134 1022.25 474.7 1022.37 475.078C1022.74 476.267 1022.63 478.059 1021.4 478.134C1020.66 478.207 1020.07 477.524 1019.66 476.932C1018.24 474.901 1016.96 472.769 1015.84 470.563C1015.39 469.724 1014.97 468.805 1015.02 467.881C1015.03 467.396 1015.16 466.926 1015.29 466.459L1015.29 466.458C1015.38 466.141 1015.47 465.827 1015.52 465.51C1015.64 464.699 1015.39 463.734 1014.67 463.426C1013.18 463.615 1012.19 464.471 1011.18 465.337C1010.52 465.909 1009.84 466.485 1009.02 466.878C1008.4 467.186 1007.67 467.334 1006.94 467.482C1005.62 467.751 1004.29 468.022 1003.54 469.248C1003.24 469.782 1003.13 470.399 1003.03 471.02C1002.95 471.476 1002.87 471.935 1002.71 472.366C1002.36 473.383 1001.07 474.245 1000.26 473.551C999.889 473.261 999.778 472.765 999.692 472.298C998.675 466.966 998.481 460.967 1001.97 456.51C1002.32 456.064 1002.69 455.635 1003.06 455.206C1003.8 454.347 1004.55 453.488 1005.11 452.499C1006.3 450.407 1006.53 447.913 1006.73 445.527L1007.36 437.636C1007.45 436.469 1007.54 435.248 1006.93 434.238C1006.69 433.797 1006.32 433.436 1005.96 433.077C1005.59 432.706 1005.22 432.336 1004.98 431.882C1004.48 430.905 1004.62 429.768 1004.76 428.685C1005.43 423.764 1006.11 418.842 1006.79 413.893C1007.14 411.187 1007.58 408.35 1009.24 406.199C1009.32 406.091 1009.41 405.983 1009.5 405.874C1009.6 405.752 1009.7 405.629 1009.8 405.505C1010.66 404.46 1011.57 403.368 1011.29 402.108C1010.96 400.567 1009.95 399.502 1008.94 398.439C1007.61 397.034 1006.28 395.631 1006.51 393.132C1006.7 391.017 1007.99 389.066 1009.84 388.041C1009.99 387.963 1010.14 387.887 1010.29 387.81C1011.02 387.451 1011.76 387.08 1012.04 386.353C1012.51 385.243 1011.71 384.313 1010.87 383.334C1010.27 382.643 1009.65 381.927 1009.45 381.106C1008.75 378.183 1011.65 373.74 1013.69 370.611C1014.17 369.877 1014.6 369.215 1014.93 368.662C1017.64 364.058 1020.66 359.633 1023.97 355.44C1025.89 353.002 1028.68 350.39 1031.69 351.246C1032.18 351.397 1032.64 351.636 1033.1 351.874C1033.62 352.148 1034.15 352.423 1034.73 352.567C1035.78 352.837 1037.22 352.363 1037.32 351.252C1037.37 350.819 1037.18 350.374 1036.98 349.983C1036.56 349.131 1035.99 348.348 1035.48 347.64C1033.99 345.565 1032.96 344.137 1037.35 343.521C1039.98 343.161 1042.12 341.251 1044.03 339.413C1044.38 339.092 1044.72 338.77 1045.06 338.449C1045.59 337.956 1046.11 337.462 1046.63 336.968C1047.5 336.153 1048.36 335.338 1049.23 334.523C1049.83 333.981 1050.46 333.25 1050.28 332.452C1050.13 331.893 1049.61 331.53 1049.13 331.185C1049.08 331.15 1049.03 331.115 1048.98 331.08C1048.94 331.051 1048.9 331.022 1048.86 330.993C1047.57 330.031 1045.87 326.543 1046.32 325.041C1046.88 323.227 1049.66 322.184 1051.84 321.368C1052.56 321.098 1053.21 320.853 1053.7 320.613C1057.07 318.983 1059.83 316.123 1061.41 312.717C1061.69 312.077 1062.05 311.332 1062.77 311.231C1063.37 311.152 1063.94 311.643 1064.13 312.225C1064.33 312.737 1064.27 313.329 1064.22 313.886L1064.21 314.025C1064.19 314.12 1064.18 314.221 1064.17 314.33C1064.15 314.43 1064.14 314.536 1064.13 314.647C1063.79 317.148 1063.12 322.179 1065.04 323.596C1066.04 324.326 1067.41 324.04 1068.63 323.718C1070.89 323.095 1073.61 322.004 1073.92 319.677C1074 319.119 1073.92 318.553 1073.84 317.989C1073.75 317.325 1073.66 316.664 1073.83 316.024C1074.1 315.04 1074.9 314.35 1075.69 313.659C1076.47 312.992 1077.24 312.323 1077.54 311.389C1077.78 310.712 1077.71 309.996 1077.65 309.271C1077.62 308.935 1077.59 308.596 1077.59 308.26C1077.54 305.364 1079.46 303.069 1081.39 300.757C1083.18 298.609 1084.98 296.446 1085.24 293.772C1085.29 293.284 1085.26 292.765 1085.01 292.317C1084.39 291.197 1082.69 291.359 1081.57 292.011C1081.24 292.214 1080.92 292.446 1080.6 292.676C1079.84 293.221 1079.1 293.759 1078.21 293.888C1076.81 294.091 1075.42 293.151 1074.69 291.944C1073.96 290.737 1073.73 289.283 1073.61 287.861C1073.46 285.893 1073.42 283.931 1073.52 281.948C1073.6 280.863 1073.66 279.641 1073.08 278.741C1072.8 278.311 1072.41 277.988 1072.01 277.664C1071.76 277.458 1071.51 277.252 1071.29 277.019C1069.65 275.381 1069.75 273.019 1069.84 270.593C1069.91 268.822 1069.98 267.016 1069.38 265.435C1068.76 263.786 1067.83 262.323 1066.92 260.91C1064.77 257.545 1062.79 254.458 1065.69 249.788C1066.4 248.648 1067.26 247.595 1068.12 246.546C1069.54 244.799 1070.96 243.06 1071.68 240.935C1071.87 240.384 1072.04 239.784 1072.21 239.173L1072.21 239.172C1072.94 236.581 1073.73 233.802 1076.2 233.725C1078.3 233.693 1079.63 235.909 1080.49 237.83C1080.71 238.332 1080.94 238.832 1081.16 239.332L1081.85 240.86L1081.86 240.89C1082.75 242.864 1083.64 244.83 1084.51 246.796C1085.03 247.938 1085.59 249.136 1086.68 249.707C1088.35 250.552 1090.48 249.459 1091.4 247.817C1092.33 246.201 1092.37 244.216 1092.38 242.338L1092.46 225.842L1092.46 225.832C1092.46 224.8 1092.45 223.742 1092.04 222.799C1091.83 222.36 1091.53 221.949 1091.24 221.543C1090.7 220.79 1090.17 220.052 1090.23 219.17C1090.29 218.292 1090.9 217.629 1091.52 216.958C1092.03 216.405 1092.55 215.847 1092.77 215.157C1093.32 213.306 1091.48 211.554 1089.63 210.973C1088.97 210.773 1088.28 210.65 1087.58 210.526C1086.36 210.308 1085.13 210.089 1084.07 209.446C1081.02 207.662 1080.8 203.431 1081.07 200.204C1081.09 199.769 1081.16 199.31 1081.43 198.969C1081.7 198.644 1082.12 198.483 1082.54 198.324C1083.07 198.125 1083.59 197.93 1083.76 197.424C1083.83 197.236 1083.83 197.046 1083.82 196.827C1083.82 196.171 1083.82 195.506 1083.83 194.838L1083.84 193.18C1083.83 192.662 1083.83 192.118 1084.07 191.64C1084.23 191.266 1084.54 190.982 1084.85 190.725C1086.08 189.642 1091.99 186.803 1090.77 191.017C1090.59 191.631 1090.22 192.158 1089.84 192.686C1089.52 193.151 1089.19 193.617 1088.99 194.142C1088.59 195.075 1088.62 196.111 1088.65 197.093C1088.72 199.629 1088.86 202.249 1090.14 204.436C1092.03 207.607 1095.84 208.959 1099.32 210.197L1099.6 210.294C1100.64 210.645 1101.71 211.051 1102.49 211.825C1103.32 212.683 1103.72 213.846 1103.99 215.003C1104.52 216.99 1104.99 219.136 1105.05 221.181C1105.1 222.855 1104.5 224.237 1103.86 225.716L1103.86 225.717C1103.7 226.093 1103.54 226.476 1103.38 226.871C1101.77 230.821 1101.82 234.826 1103.67 238.702C1103.92 239.23 1104.2 239.742 1104.49 240.252C1104.89 240.98 1105.29 241.705 1105.6 242.473C1106.22 243.934 1106.5 245.497 1106.78 247.068L1106.83 247.38C1107.94 253.615 1109.38 259.785 1111.12 265.888C1111.43 266.968 1111.74 268.045 1112.06 269.122L1112.07 269.137C1113.26 273.176 1114.45 277.21 1115.06 281.384C1115.23 282.481 1115.34 283.603 1115.09 284.68C1114.96 285.231 1114.74 285.771 1114.52 286.307C1114.09 287.344 1113.66 288.37 1113.93 289.442C1114.07 289.964 1114.36 290.448 1114.66 290.925C1115.11 291.657 1115.55 292.373 1115.38 293.189C1115.28 293.766 1114.87 294.235 1114.49 294.675L1114.4 294.775C1113.34 296.002 1112.43 297.863 1113.4 299.19C1113.76 299.678 1114.29 299.974 1114.8 300.267C1114.91 300.328 1115.02 300.39 1115.13 300.453C1115.19 300.49 1115.25 300.527 1115.32 300.565C1118.56 302.685 1120.67 308.534 1120.29 312.218C1120.28 312.326 1120.27 312.433 1120.25 312.541C1120.24 312.621 1120.23 312.701 1120.22 312.781C1120.13 313.493 1120.03 314.211 1120.19 314.909C1120.37 315.625 1120.8 316.273 1121.26 316.895C1126.3 323.977 1131.82 330.73 1137.8 337.069C1139.22 338.582 1140.83 340.159 1142.86 340.477C1144.04 340.678 1145.23 340.435 1146.41 340.192C1147.03 340.064 1147.65 339.936 1148.28 339.873C1150.16 339.694 1152.1 340.089 1153.72 341.04C1154.92 341.725 1155.9 342.667 1156.9 343.614C1157.29 343.984 1157.68 344.356 1158.08 344.713C1161.85 348.11 1166.49 350.41 1171.13 352.707C1176.6 355.416 1182.06 358.122 1186.08 362.621C1186.28 362.845 1186.47 363.072 1186.66 363.3C1187.28 364.031 1187.9 364.765 1188.64 365.362C1189.95 366.416 1191.66 366.912 1193.34 367.401C1196.14 368.215 1198.87 369.006 1199.49 372.322C1200.82 379.568 1200.85 386.973 1200.88 394.374L1200.88 394.376C1200.88 394.913 1200.88 395.45 1200.88 395.987C1200.89 396.608 1200.89 397.228 1200.9 397.849C1200.91 398.639 1200.98 399.541 1201.58 400.034C1202.31 400.641 1203.5 400.264 1204.11 399.532C1204.71 398.809 1204.87 397.825 1205.02 396.89L1205.03 396.855C1205.05 396.701 1205.08 396.549 1205.1 396.399C1205.12 396.278 1205.13 396.158 1205.15 396.039L1205.19 395.779C1205.61 392.931 1205.96 390.592 1207.61 388.079C1207.77 387.842 1207.92 387.603 1208.08 387.362C1209.72 384.87 1211.49 382.176 1210.7 379.083C1210.4 377.883 1209.67 376.877 1208.94 375.869C1208.4 375.118 1207.85 374.366 1207.49 373.534C1206.56 371.438 1206.76 369.085 1206.96 366.804C1206.97 366.661 1206.98 366.518 1207 366.376C1207.26 363.149 1207.34 359.886 1207.23 356.64C1207.13 354.321 1206.94 351.943 1206.02 349.801C1204.49 346.305 1201.33 343.992 1198.18 341.692C1197.2 340.971 1196.21 340.251 1195.28 339.497C1192.72 337.437 1190.49 334.496 1190.03 331.151C1189.81 329.516 1190.13 327.858 1190.45 326.205L1190.45 326.204C1190.87 324.006 1191.29 321.818 1190.43 319.709C1189.89 318.38 1188.85 317.346 1187.83 316.331L1187.82 316.325L1187.81 316.319C1187.69 316.192 1187.56 316.066 1187.43 315.939C1182.45 310.902 1178.91 304.464 1177.29 297.578C1177.1 296.764 1176.94 295.943 1176.78 295.122L1176.78 295.12C1176.32 292.773 1175.86 290.429 1174.83 288.281C1174.13 286.809 1173.17 285.454 1172.21 284.104L1172.21 284.103C1170.72 282.001 1169.24 279.912 1168.75 277.417C1168.59 276.572 1168.55 275.709 1168.51 274.845C1168.46 273.854 1168.41 272.86 1168.18 271.889C1167.21 267.786 1163.57 265.5 1159.85 263.16C1157.52 261.698 1155.16 260.215 1153.39 258.254C1152.26 257.006 1151.38 255.572 1150.51 254.137C1149.86 253.081 1149.21 252.024 1148.47 251.041C1147.52 249.796 1145.95 248.575 1144.55 249.241C1143.26 249.861 1143.25 251.362 1143.25 252.931C1143.25 254.297 1143.25 255.716 1142.39 256.649C1140.89 258.291 1138.21 257.069 1136.39 255.808C1135.1 254.901 1133.73 253.935 1132.98 252.537C1132.32 251.259 1132.23 249.806 1132.15 248.342C1132.09 247.243 1132.03 246.138 1131.72 245.096C1130.93 242.336 1128.64 240.518 1126.32 238.675C1124.69 237.383 1123.05 236.079 1121.9 234.428C1118.93 230.143 1120.04 223.582 1124.25 220.549C1124.38 220.456 1124.51 220.364 1124.65 220.273C1125.18 219.917 1125.72 219.557 1126.09 219.034C1127.33 217.361 1126.36 215.309 1125.38 213.241C1124.43 211.217 1123.47 209.179 1124.56 207.469C1125.16 206.736 1126 207.323 1126.89 207.936C1127.3 208.221 1127.72 208.512 1128.12 208.679C1130.13 209.459 1131.8 206.546 1131.19 204.474C1130.87 203.382 1130.25 202.427 1129.63 201.472C1129.07 200.614 1128.52 199.755 1128.18 198.798C1127.09 195.532 1128.81 192.05 1130.48 189.029L1136.57 178.139C1136.95 177.475 1137.37 177.712 1137.93 178.022C1138.26 178.207 1138.64 178.418 1139.09 178.481C1139.44 178.529 1139.79 178.605 1140.14 178.68C1141 178.867 1141.85 179.052 1142.69 178.822C1144.96 178.198 1145.41 174.981 1144.4 172.862C1143.9 171.8 1143.19 170.861 1142.48 169.923C1141.75 168.965 1141.03 168.009 1140.53 166.926C1139.7 165.102 1139.58 163.046 1139.46 161.041L1139.46 160.992C1138.54 146.598 1135.95 132.312 1131.7 118.516C1130.74 115.338 1129.47 111.953 1126.61 110.288C1125.39 109.574 1123.67 108.536 1124.31 107.288C1124.56 106.766 1125.16 106.546 1125.71 106.343L1125.83 106.301C1128.35 105.445 1130.75 104.148 1132.85 102.509C1136.5 99.6668 1139.33 94.1976 1136.43 90.624C1134.43 88.1564 1130.73 87.947 1127.67 88.7218C1126.51 89.0085 1125.37 89.4078 1124.23 89.8072C1122.39 90.4513 1120.54 91.0961 1118.62 91.27C1116.79 91.4297 1114.9 91.1761 1113.04 90.9246C1110.03 90.5191 1107.06 90.1195 1104.43 91.4682C1102.6 92.3842 1100.84 93.8646 1099.15 95.3C1098.22 96.0787 1097.32 96.8441 1096.42 97.499C1095.94 97.8565 1095.43 98.2398 1095.11 98.7411C1094.63 99.5616 1094.64 100.542 1094.67 101.497C1094.7 103.758 1094.64 106.123 1093.66 108.199C1093.48 108.626 1093.16 109.073 1092.69 109.159C1092 109.261 1091.52 108.502 1091.26 107.863C1090.04 104.944 1089.13 101.877 1088.57 98.7726C1088.4 97.8384 1088.29 96.8797 1088.5 95.9643C1088.84 94.5653 1089.95 93.504 1090.98 92.5473C1091.73 91.8569 1092.55 91.2158 1093.36 90.5769C1096.21 88.3458 1099.02 86.1413 1098.74 81.9578C1098.64 80.183 1097.85 78.5377 1097.06 76.9466C1095.13 73.0124 1092.75 68.6752 1088.54 67.487C1087.55 67.1953 1086.53 67.1051 1085.51 67.0152C1084.7 66.9439 1083.89 66.8728 1083.11 66.7016C1081.33 66.2873 1079.48 65.0799 1079.27 63.2725C1078.93 60.3965 1082.62 58.8093 1085.54 58.844C1085.94 58.8486 1086.35 58.8617 1086.76 58.8748C1089.34 58.9565 1092.1 59.0439 1093.76 57.1804C1094.73 56.1081 1095.04 54.6792 1095.35 53.2449C1095.51 52.5181 1095.66 51.7899 1095.91 51.106C1097.58 46.4231 1102.61 44.7113 1107.66 42.9933C1112.62 41.3051 1117.6 39.6109 1119.43 35.0863C1121.35 30.3075 1118.46 24.9644 1114.97 21.1711C1114.14 20.2623 1113.25 19.378 1112.36 18.4914L1112.36 18.4904L1112.36 18.4882C1109.57 15.7031 1106.75 12.8956 1105.41 9.23657C1105.17 8.58974 1104.95 7.89697 1104.73 7.19576C1103.83 4.31916 1102.88 1.30006 1100.11 0.725424C1096.12 -0.1519 1092.74 3.22089 1090.06 6.30127C1085.65 11.3112 1081.24 16.3482 1076.85 21.3866C1076.27 22.0117 1075.67 22.744 1075.57 23.5833C1075.32 25.9125 1078.57 26.8623 1080.85 26.4303C1081.09 26.3877 1081.34 26.3411 1081.59 26.2938C1083.73 25.8939 1086.1 25.4492 1087.49 27.003C1088.45 29.664 1085.72 32.443 1082.93 32.7137C1080.15 32.9567 1077.53 31.5554 1075.07 30.2386L1075.05 30.2284C1072.59 28.8815 1069.87 27.5498 1067.11 27.9305C1063.93 28.382 1061.63 30.949 1059.42 33.4138L1059.41 33.417L1059.41 33.4192C1059.05 33.8201 1058.7 34.2182 1058.34 34.6041C1055.08 38.1151 1051.13 40.8793 1047.19 43.633L1047 43.7646C1039.1 49.3105 1031.21 54.8293 1023.28 60.3467C1020.46 62.3312 1017.62 64.3416 1015.34 66.9247C1013.27 69.232 1011.73 71.9867 1010.2 74.7231L1010.13 74.8629C1009.57 75.8789 1009.03 76.9496 1008.48 78.0368L1008.48 78.0384L1008.48 78.0398C1006.62 81.7174 1004.66 85.5847 1001.58 88.1635C1000.49 89.0815 999.129 89.7796 997.758 90.4837C995.402 91.6935 993.012 92.9207 991.913 95.3103C991.7 95.7626 991.566 96.2733 991.652 96.7404C991.712 97.179 991.965 97.5726 992.247 97.9133C994.085 100.161 996.961 100.763 999.89 101.376C1001.95 101.807 1004.04 102.245 1005.81 103.266C1006.97 103.916 1007.94 104.803 1008.92 105.694C1009.24 105.989 1009.57 106.284 1009.9 106.571L1009.95 106.621L1010.06 106.711C1010.77 107.334 1011.54 108 1011.79 108.925C1012.35 110.831 1010.55 112.621 1008.69 113.291C1007.93 113.554 1007.14 113.711 1006.35 113.867C1005.2 114.093 1004.06 114.319 1003.04 114.863C1002.3 115.248 1001.67 115.773 1001.04 116.295C1000.61 116.651 1000.19 117.006 999.729 117.314C998.601 118.103 997.081 118.572 995.857 117.994C993.836 117.023 994.007 114.119 994.548 111.967C995.119 109.79 995.554 107.034 993.74 105.719C991.795 104.317 989.127 105.982 987.541 107.782C986.991 108.436 986.469 109.091 986.184 109.894C985.737 111.233 986.044 112.745 986.384 114.124C988.429 122.883 988.35 124.485 981.555 130.331C978.003 133.368 976.115 137.958 974.991 142.531L974.883 142.979C973.501 148.705 971.735 156.021 964.308 156.026C962.348 156.011 960.79 155.035 959.411 153.742C959.227 153.575 959.086 153.396 958.946 153.218C958.749 152.968 958.555 152.72 958.247 152.514C958.003 152.34 957.702 152.261 957.401 152.182C956.891 152.049 956.382 151.915 956.155 151.322C955.818 150.434 956.812 149.584 957.704 149.166C958.569 148.745 959.632 148.172 959.571 147.188C959.496 145.959 957.847 145.715 956.644 145.819C953.115 146.162 949.652 146.835 946.189 147.508L946.095 147.527C944.145 147.913 942.15 148.309 940.54 149.435C939.261 150.347 938.324 151.637 937.394 152.92L937.39 152.925L937.389 152.927C937.151 153.254 936.914 153.58 936.672 153.9C934.747 156.5 932.429 158.782 930.087 161.008C929.174 161.862 928.231 162.768 927.793 163.917C927.259 165.274 927.478 166.743 927.696 168.209C927.771 168.706 927.845 169.203 927.889 169.694C928.067 171.609 927.486 174.003 925.634 174.565C925.335 174.653 925.02 174.686 924.707 174.718C924.356 174.755 924.007 174.791 923.685 174.905C922.312 175.337 921.671 176.795 921.077 178.145L921.074 178.154C921.023 178.27 920.972 178.385 920.921 178.498C920.28 179.91 918.953 181.424 917.448 181.023C916.337 180.719 915.894 179.599 915.44 178.449C915.05 177.459 914.65 176.448 913.807 175.915C912.805 175.266 911.514 175.502 910.407 175.856C908.666 176.396 906.733 177.499 906.616 179.317C906.596 179.728 906.673 180.13 906.749 180.528C906.824 180.92 906.899 181.309 906.88 181.699C906.841 182.487 906.116 183.377 905.395 183.096C904.979 182.934 904.785 182.513 904.59 182.089L904.59 182.088C904.522 181.941 904.454 181.794 904.377 181.657C903.469 180.197 901.283 180.361 899.649 180.934C899.484 180.989 899.318 181.046 899.149 181.104L899.143 181.106L899.142 181.107C897.644 181.623 896.026 182.18 894.667 181.478C894.481 181.387 894.351 181.272 894.222 181.129C893.814 180.564 894.286 179.825 894.72 179.302C895.65 178.123 896.64 176.81 896.578 175.31C896.516 173.809 894.816 172.391 893.525 173.172C892.587 173.754 891.7 174.268 890.84 174.766C888.945 175.863 887.182 176.884 885.291 178.401C884.015 179.427 882.79 180.538 882.119 182.002C880.924 184.693 881.204 188.41 882.046 191.201C882.958 194.241 883.334 197.091 883.011 200.343C882.908 201.318 882.492 202.577 881.483 202.609C881.047 202.615 880.651 202.377 880.311 202.088C878.857 200.818 878.428 198.828 878.016 196.92L877.959 196.657C877.931 196.53 877.904 196.403 877.876 196.278C877.385 194.075 876.702 191.918 875.797 189.858C875.723 189.691 875.623 189.523 875.491 189.435C875.094 189.197 874.61 189.636 874.478 190.093C874.454 190.16 874.432 190.229 874.41 190.3C874.4 190.333 874.391 190.366 874.381 190.4C874.277 190.752 874.171 191.114 873.848 191.287C873.261 191.585 872.638 190.982 872.283 190.447C871.064 188.672 869.585 186.639 867.463 186.615C866.057 186.623 864.933 187.51 863.792 188.411C862.901 189.115 862 189.827 860.946 190.133C859.955 190.438 858.91 190.35 857.864 190.263C856.897 190.182 855.929 190.101 855.002 190.33C853.788 190.651 852.769 191.445 851.882 192.327C850.74 193.387 849.669 194.695 849.621 196.218C849.584 197.199 849.961 198.165 850.331 199.115C850.812 200.348 851.282 201.553 850.824 202.73C850.498 203.584 849.778 204.169 849.062 204.751L849.061 204.752C848.747 205.007 848.433 205.262 848.154 205.539C845.946 207.798 848.314 210.012 850.243 211.196L858.246 216.165C859.144 216.727 860.144 217.429 860.229 218.468C860.321 219.916 858.588 220.838 857.121 220.765C856.478 220.734 855.84 220.588 855.203 220.442C854.414 220.262 853.624 220.082 852.825 220.118C851.379 220.182 849.788 221.52 850.32 222.88C851.188 225.194 847.965 226.325 845.192 227.298C844.507 227.539 843.85 227.769 843.288 228.006C840.424 229.226 837.149 231.052 836.915 234.144C836.88 234.668 836.937 235.214 836.994 235.759C837.106 236.823 837.216 237.878 836.634 238.732C835.811 239.971 833.93 240.014 832.574 239.348C831.687 238.904 830.944 238.236 830.197 237.565C829.826 237.231 829.454 236.897 829.063 236.588C827.359 235.252 825.247 234.467 823.076 234.333C822.48 234.276 821.741 234.348 821.443 234.878C821.235 235.222 821.268 235.659 821.304 236.042C821.741 239.558 822.776 242.956 823.812 246.353C824.809 249.625 825.806 252.896 826.268 256.272C826.407 257.313 826.37 258.618 825.447 259.117C824.281 259.755 823.424 258.619 822.511 257.409C821.672 256.297 820.786 255.123 819.569 255.206C819.126 255.218 818.715 255.424 818.308 255.628C818.064 255.75 817.821 255.872 817.572 255.952C816.246 256.349 814.867 255.6 813.703 254.917C811.588 253.642 809.472 252.394 807.356 251.146C806.403 250.581 805.427 249.961 804.958 248.985C804.5 248.028 804.611 246.935 804.716 245.896L804.728 245.781L804.741 245.653C805.124 241.751 804.528 237.284 801.346 235.003C800.831 234.64 800.26 234.337 799.692 234.037C798.52 233.417 797.36 232.802 796.719 231.671C796.348 231.039 796.211 230.311 796.075 229.59C796.018 229.286 795.961 228.983 795.887 228.689C795.143 225.549 792.492 222.995 789.368 222.323C786.241 221.679 782.774 222.978 780.851 225.551C780.735 225.706 780.622 225.867 780.508 226.03L780.506 226.033C780.079 226.644 779.641 227.272 778.981 227.583C777.782 228.15 776.317 227.506 775.354 226.614C774.974 226.272 774.629 225.892 774.285 225.513C773.73 224.903 773.179 224.296 772.495 223.859C767.09 220.298 760.875 228.732 763.437 233.65C763.865 234.474 764.53 235.146 765.197 235.818C765.885 236.513 766.575 237.208 767.002 238.073C767.796 239.637 767.651 241.481 767.484 243.216C767.475 243.276 767.467 243.337 767.459 243.398C767.385 243.959 767.312 244.513 767.042 244.991C766.42 246.022 765.043 246.335 763.855 246.141C763.074 246.013 762.349 245.723 761.617 245.43C761.234 245.278 760.85 245.124 760.454 244.993C758.152 244.198 755.564 244.234 753.288 245.129C752.634 245.378 752.011 245.689 751.389 245.999C750.505 246.439 749.625 246.877 748.67 247.134C745.691 247.903 742.786 246.711 739.839 245.502C737.357 244.483 734.847 243.453 732.239 243.573C728.393 243.737 725.132 246.381 722.308 248.991L722.188 249.1C721.23 249.969 720.263 250.847 719.089 251.338C716.853 252.25 714.235 251.245 711.785 250.306C710.581 249.844 709.417 249.397 708.359 249.202C700.874 247.789 695.249 256.944 691.187 263.556L691.187 263.558C690.375 264.879 689.626 266.098 688.937 267.112C685.855 271.643 681.613 275.953 676.19 276.611C675.643 276.666 675.07 276.692 674.564 276.477C672.699 275.649 673.573 272.834 674.691 271.146C684.476 256.545 694.999 242.444 706.229 228.921C708.631 226.045 711.17 222.032 709.147 218.883C708.867 218.439 708.516 218.052 708.166 217.667C707.696 217.149 707.23 216.636 706.949 215.997C706.504 215.007 706.594 213.915 706.684 212.819C706.719 212.403 706.753 211.988 706.758 211.577C706.8 206.324 702.067 202.388 697.69 199.503C695.133 197.798 692.331 196.108 689.275 196.257C688.011 196.302 686.792 196.672 685.577 197.041C684.955 197.229 684.335 197.417 683.711 197.561C677.597 199.002 671.317 196.623 665.498 194.267C665.203 193.497 665.704 192.748 666.188 192.025C666.297 191.862 666.406 191.7 666.504 191.539C668.703 187.809 663.961 182.946 659.7 183.77C655.439 184.622 652.748 188.954 651.83 193.211C651.357 195.394 651.229 197.63 651.102 199.869C650.982 201.968 650.862 204.069 650.457 206.131C650.236 207.318 649.904 208.526 649.096 209.44C647.331 211.489 644.25 211.229 641.479 210.995C641.213 210.973 640.951 210.951 640.692 210.931C632.422 210.278 624.308 213.608 617.134 217.773C614.564 219.259 612.062 220.859 609.562 222.457C605.055 225.339 600.555 228.216 595.684 230.41C594.488 230.949 593.255 231.46 592.016 231.973C586.479 234.267 580.828 236.61 577.843 241.646C576.331 244.158 575.757 247.506 577.409 249.901C577.765 250.436 578.848 251.046 579.996 251.692C581.87 252.747 583.917 253.9 583.256 254.982C582.488 256.196 580.768 256.302 579.3 256.257C576.334 256.179 573.361 256.094 570.384 256.01C567.468 255.926 564.549 255.843 561.629 255.766C558.884 255.685 556.056 255.627 553.478 256.562C550.899 257.524 548.585 259.724 548.367 262.49C548.286 263.593 548.545 264.679 548.804 265.768C549.075 266.904 549.346 268.042 549.233 269.204C549.16 270.062 548.871 270.884 548.581 271.71C548.358 272.343 548.134 272.98 548.007 273.636C547.255 277.302 549.446 280.895 551.863 283.764C552.232 284.197 552.611 284.63 552.992 285.063L552.994 285.065C555.109 287.475 557.274 289.943 558.022 293.025C558.316 294.238 558.356 295.628 557.573 296.597C556.15 298.406 553.17 297.551 551.505 295.998C549.595 294.221 548.436 291.856 547.277 289.49C546.13 287.147 544.983 284.805 543.106 283.032C541.626 281.595 539.754 280.638 537.901 279.69L537.802 279.64C537.321 279.397 536.842 279.155 536.362 278.913L535.31 278.382C532.617 277.022 529.931 275.667 527.229 274.326C523.668 274.776 521.805 278.877 521.764 282.469C521.738 284.7 522.262 286.874 522.787 289.049C523.113 290.403 523.44 291.758 523.634 293.126C523.777 294.086 523.806 295.149 523.275 295.994C522.242 297.604 519.674 297.232 518.211 295.989C514.584 292.815 515.579 286.983 517.351 282.524C517.449 282.278 517.548 282.031 517.647 281.782C519.356 277.512 521.246 272.789 519.314 268.681C518.918 267.871 518.305 267.052 517.447 266.791C516.105 266.399 514.747 267.448 514.088 268.668C513.738 269.357 513.519 270.094 513.3 270.831L513.299 270.832C513.121 271.43 512.943 272.028 512.696 272.601C511.622 275.095 509.294 276.697 506.975 278.293C505.376 279.394 503.78 280.492 502.601 281.878C501.936 282.662 501.377 283.506 501.055 284.524C500.223 287.096 501.016 289.738 501.818 292.41C502.286 293.969 502.758 295.54 502.911 297.113C503.343 301.461 501.365 305.454 499.373 309.476C497.591 313.073 495.799 316.693 495.708 320.609C495.642 323.375 496.444 326.047 497.248 328.723C498.001 331.229 498.755 333.739 498.798 336.335C498.858 340.64 496.942 344.711 494.903 348.504C492.178 353.542 488.847 358.687 483.687 361.21C481.784 362.146 479.713 362.671 477.633 363.199C476.085 363.592 474.533 363.985 473.041 364.551C469.573 365.877 466.142 368.649 465.986 372.371C464.984 372.812 463.955 373.251 462.954 373.664C459.826 371.958 459.538 367.315 461.35 364.246C463.008 361.439 465.846 359.624 468.6 357.864C468.739 357.775 468.879 357.685 469.018 357.596C469.134 357.522 469.25 357.447 469.366 357.372C472.769 355.171 476.073 352.748 479.169 350.151C482.718 347.195 486.275 343.504 486.476 338.885C486.567 337.043 486.097 335.25 485.624 333.449C485.302 332.222 484.979 330.991 484.831 329.737C484.468 326.616 485.194 323.493 485.916 320.452C486.77 316.907 487.617 313.369 488.464 309.83L488.467 309.818C489.316 306.27 490.165 302.722 491.022 299.167C492.323 293.759 493.654 288.298 496.319 283.392C496.738 282.623 497.384 281.675 498.142 280.65C498.609 280.011 499.122 279.331 499.658 278.619L499.663 278.612C504.022 272.825 509.958 264.946 505.909 260.069C505.01 258.977 503.688 258.387 502.367 257.799C501.01 257.194 499.655 256.589 498.76 255.442C498.319 254.872 498.02 254.195 497.724 253.521C497.298 252.555 496.876 251.597 496.04 250.978C494.149 249.578 491.28 250.907 490.064 252.916C489.217 254.317 488.875 255.942 488.531 257.572C488.383 258.279 488.234 258.987 488.043 259.677C485.924 267.305 478.892 272.458 471.954 276.227C471.61 276.412 471.264 276.596 470.919 276.779C468.513 278.056 466.103 279.336 464.064 281.093C461.705 283.127 459.799 285.892 459.619 288.987C459.488 290.839 459.972 292.663 460.457 294.486C460.966 296.402 461.475 298.316 461.268 300.259C461.15 301.315 460.829 302.331 460.508 303.348C460.293 304.026 460.079 304.703 459.925 305.393C459.309 308.185 459.809 310.883 460.31 313.585C460.664 315.496 461.018 317.409 460.979 319.358C460.876 323.655 460.094 328.462 458.721 332.56C458.432 333.445 457.753 334.528 456.84 334.265C456.25 334.099 455.982 333.46 455.793 332.879C454.704 329.558 454.197 326.048 454.26 322.566C454.28 321.685 454.335 320.792 454.391 319.898L454.391 319.895C454.597 316.565 454.804 313.211 453.229 310.345C452.203 308.524 450.583 307.137 448.99 305.779C447.816 304.795 446.643 303.812 445.472 302.83C440.614 298.758 435.77 294.698 430.927 290.621C427.868 288.047 424.586 285.053 424.239 281.061C424.171 280.27 424.225 279.457 424.28 278.646C424.378 277.187 424.476 275.734 423.858 274.426C422.825 272.197 419.766 271.284 417.563 272.346C415.332 273.434 414.139 276.097 414.508 278.539C414.641 279.457 414.979 280.328 415.319 281.205C415.445 281.532 415.572 281.86 415.689 282.191C417.273 286.517 418.098 294.617 414.83 298.512C414.077 299.41 412.939 300.163 411.801 300.916C410.885 301.523 409.968 302.13 409.254 302.811C407.455 304.519 405.527 306.085 403.522 307.538L403.499 307.554C403.026 307.88 402.526 308.225 401.934 308.277C401.36 308.33 400.697 307.97 400.616 307.395C400.555 306.983 400.764 306.612 400.999 306.27C402.026 304.612 403.208 303.074 404.386 301.541C405.142 300.558 405.896 299.577 406.605 298.569C406.867 298.228 409.517 291.416 407.524 292.08C404.203 293.196 400.55 293.288 397.165 292.386C395.785 292.009 394.423 291.465 393.063 290.923C390.106 289.744 387.162 288.57 384.095 289.127C383.675 289.203 383.24 289.308 382.799 289.415C381.137 289.817 379.408 290.234 378.213 289.164C376.883 287.982 377.264 285.768 378.21 284.263C378.563 283.7 378.982 283.176 379.401 282.653C380.102 281.775 380.801 280.901 381.176 279.862C381.775 278.204 381.049 275.826 379.259 275.683C377.59 273.593 375.948 274.352 373.874 275.312C372.826 275.797 371.668 276.332 370.34 276.577C364.097 277.779 357.863 276.4 351.588 275.013C347.448 274.098 343.291 273.179 339.102 272.994C336.928 272.914 334.606 273.072 332.854 274.374C332.187 274.871 331.619 275.53 331.055 276.184C330.114 277.276 329.184 278.355 327.825 278.645C325.348 279.177 323.063 276.396 323.405 273.88C323.721 271.337 325.858 269.4 328.17 268.343C329.617 267.707 331.146 267.314 332.672 266.923L332.675 266.922C333.613 266.681 334.549 266.441 335.465 266.144C336.404 265.864 337.349 265.475 337.931 264.714C338.656 263.824 338.743 262.603 338.799 261.462L339.134 254.672C339.247 252.935 339.288 251.004 338.213 249.617C337.266 248.399 335.684 247.913 334.171 247.675C327.984 246.716 321.85 249.109 316.073 251.438C315.185 251.775 314.295 252.167 313.635 252.842C312.944 253.597 312.621 254.643 312.408 255.64C312.114 257.044 311.957 258.48 311.799 259.915C311.536 262.31 311.274 264.701 310.381 266.921C308.928 270.444 304.887 273.457 301.397 271.896C299.735 271.169 298.647 269.636 297.564 268.109C296.407 266.48 295.257 264.858 293.418 264.233C291.799 263.67 290.113 264.05 288.4 264.436C287.31 264.682 286.209 264.93 285.107 264.939C283.762 264.953 282.45 264.599 281.142 264.246C280.675 264.12 280.209 263.994 279.742 263.885C279.629 263.859 279.515 263.833 279.401 263.807L279.368 263.799L279.367 263.799C278.558 263.613 277.696 263.415 276.832 263.278C273.73 262.69 270.474 262.475 268.28 264.463C266.427 266.141 266.205 268.989 266.546 271.456C266.635 272.106 266.751 272.756 266.867 273.404C267.197 275.245 267.525 277.078 267.214 278.895C266.98 280.326 265.895 281.907 264.496 281.565C263.849 281.424 263.386 280.884 262.948 280.373C259.372 276.167 256.477 271.94 254.081 266.975C253.82 266.437 253.579 265.96 253.361 265.528C251.726 262.292 251.404 261.654 253.648 257.56C254.426 256.128 254.381 254.275 253.552 252.873C247.559 252.958 242.399 258.775 242.518 264.635C242.545 265.488 242.659 266.338 242.773 267.185C242.976 268.693 243.178 270.192 242.878 271.677C242.411 273.968 239.829 276.101 237.791 274.911C236.416 274.108 236.124 272.297 235.957 270.709C235.373 265.453 234.82 260.089 235.947 254.917C237.073 249.745 240.179 244.725 245.044 242.678C245.381 242.537 245.727 242.41 246.073 242.282C247.04 241.925 248.012 241.566 248.807 240.904C249.772 240.107 250.347 238.938 250.759 237.76C252.188 233.739 252.05 229.402 251.911 225.072C251.765 220.498 251.619 215.93 253.322 211.748C254.329 211.744 255.071 212.706 255.489 213.625C256.927 216.71 257.02 220.14 257.113 223.59C257.172 225.75 257.231 227.917 257.62 230.012C258.72 235.866 262.31 240.889 265.803 245.69C267.816 248.485 269.856 251.281 271.896 254.077C272.685 255.178 273.526 256.336 274.688 257.074C275.584 257.662 276.631 257.959 277.714 258.094C278.579 258.219 279.476 258.236 280.348 258.224C284.812 258.227 289.386 257.663 293.378 255.654C297.37 253.646 300.71 249.972 301.444 245.57C302.092 241.745 300.794 238.061 299.485 234.346C298.623 231.898 297.756 229.437 297.437 226.912C297.071 224.055 297.415 221.162 297.758 218.278C298.151 214.967 298.543 211.667 297.858 208.446C297.057 204.763 294.972 201.604 292.877 198.432C291.199 195.89 289.515 193.34 288.48 190.504C287.872 188.822 287.487 187.027 287.104 185.238C286.357 181.747 285.614 178.28 283.22 175.732C281.77 174.217 279.888 173.199 277.935 172.503C272.721 170.62 268.657 171.622 263.699 172.845L263.697 172.846L263.695 172.846C262.678 173.097 261.623 173.358 260.512 173.604C255.782 174.672 253.986 179.361 252.132 184.199C251.115 186.851 250.082 189.548 248.539 191.718C246.228 194.953 242.67 197.01 239.223 198.991C235.413 201.156 230.856 202.723 226.312 204.285C220.601 206.249 214.909 208.206 210.738 211.335C207.612 213.687 206.025 217.304 204.424 220.952C203.52 223.013 202.612 225.082 201.42 226.94C200.853 227.81 200.231 228.638 199.609 229.465C198.875 230.442 198.141 231.419 197.499 232.464C193.497 239.1 194.309 247.472 195.234 255.196C195.118 255.212 194.998 255.228 194.874 255.246C194.724 255.267 194.569 255.289 194.409 255.312C192.557 255.576 190.121 255.923 188.478 255.842L138.591 253.381C138.907 256.095 137.639 258.861 136.369 261.631C135.179 264.227 133.988 266.826 134.099 269.387C134.173 271.15 134.642 272.717 135.093 274.22C135.862 276.787 136.575 279.168 135.164 282.018C131.588 277.24 122.727 274.761 117.882 279.151C117.182 279.785 116.573 280.537 115.965 281.286C114.891 282.612 113.824 283.928 112.279 284.565C110.938 285.096 109.48 285.024 108.015 284.952C107.479 284.925 106.942 284.898 106.41 284.901C95.3818 284.956 91.0512 296.586 89.4154 305.463C88.8818 308.403 88.462 311.387 88.042 314.373C86.7847 323.313 85.5248 332.271 81.2001 340.099C79.7771 342.659 78.0329 345.086 76.2935 347.507C72.7744 352.405 69.2747 357.276 68.4925 363.16C68.1948 365.447 68.3322 367.746 68.4697 370.048C68.555 371.474 68.6403 372.902 68.622 374.329C68.548 379.846 66.9305 385.142 65.3076 390.455C64.0332 394.627 62.7556 398.81 62.2197 403.119C60.6893 415.377 65.2648 427.474 69.7871 438.996C72.2379 445.284 74.7053 451.556 77.176 457.837C77.9452 459.792 78.7148 461.749 79.4843 463.707C78.3748 465.244 75.9186 465.844 73.4646 466.444C71.0068 467.045 68.5513 467.645 67.4537 469.185C66.4286 470.61 66.3363 472.41 66.2455 474.18C66.2224 474.63 66.1994 475.079 66.1611 475.519C65.719 480.616 61.6695 485.998 56.6112 485.34C55.4614 485.187 54.3738 484.733 53.2833 484.278C52.5271 483.962 51.7695 483.646 50.9887 483.429C47.0426 482.302 43.1398 483.722 39.1745 485.165C36.7737 486.039 34.35 486.921 31.88 487.251C31.1652 487.348 30.419 487.41 29.667 487.472C26.8729 487.703 23.9984 487.941 22.3501 490.048C22.0422 490.453 21.7998 490.903 21.5591 491.349C21.2079 491.999 20.8605 492.643 20.3194 493.133C18.3623 494.924 15.8122 493.738 13.1798 492.514C11.9007 491.919 10.6023 491.316 9.34292 491.04C6.03074 490.305 2.36195 492.383 1.25198 495.569C0.362933 498.139 1.04096 500.949 1.72836 503.57C2.27415 505.737 2.97314 507.954 3.67659 510.185C4.76274 513.63 5.85965 517.109 6.41975 520.491C6.75769 522.566 6.69518 524.776 6.63227 527C6.51627 531.101 6.39893 535.25 8.78877 538.687C10.4481 541.067 13.0375 542.401 15.6515 543.746C17.4028 544.648 19.1658 545.556 20.6667 546.788C24.9937 550.355 26.4847 555.947 27.9807 561.558C29.4241 566.972 30.8721 572.403 34.8762 576.05C36.8178 577.817 39.2757 579.074 41.7036 580.316C45.5633 582.29 49.3472 584.225 50.86 588.111C51.6924 590.222 51.6435 592.558 51.5957 594.839C51.5907 595.077 51.5858 595.315 51.5818 595.552C51.418 604.975 53.9221 612.305 56.471 619.767C58.3007 625.123 60.1534 630.547 61.0591 636.86L61.094 637.119C61.3008 638.66 61.5174 640.272 62.4348 641.529C63.4052 642.83 65.4966 643.477 66.6948 642.366C67.2425 641.822 67.4632 641.036 67.6723 640.292C67.6927 640.219 67.713 640.147 67.7334 640.075C68.6505 636.777 70.9695 634.545 73.1883 632.41C75.0533 630.614 76.8474 628.887 77.6788 626.653C78.8265 623.606 78.0865 620.53 77.3446 617.445C76.6285 614.467 75.9105 611.482 76.8862 608.508C77.8032 605.732 79.7008 603.227 81.5611 600.77C84.4403 596.969 87.2303 593.286 86.1567 588.899C85.8948 587.859 85.4219 586.888 84.9508 585.922C84.3983 584.789 83.8485 583.661 83.6446 582.431C83.2399 580.151 85.0724 577.22 87.2698 577.927C90.417 575.579 93.7648 575.642 97.1457 575.705C100.384 575.766 103.652 575.828 106.803 573.772C108.215 572.86 109.437 571.599 110.647 570.35C112.691 568.241 114.702 566.166 117.538 565.861C121.698 565.395 125.144 567.627 128.551 569.834Z" fill="#9E9E9E" fill-opacity="0.6"/>
<path d="M858.756 142.378C861.568 140.011 861.303 135.451 859.556 132.234C859.183 131.535 858.647 130.801 857.864 130.68C857.106 130.588 856.425 131.154 855.855 131.67C855.773 131.744 855.692 131.818 855.61 131.892L855.524 131.971L855.435 132.052L855.425 132.061C853.476 133.837 851.438 135.694 848.851 136.226C847.383 136.519 845.633 136.339 843.847 136.156C840.183 135.78 836.366 135.388 834.502 139.03C832.577 142.747 836.068 151.441 840.39 152.117C842.418 152.408 844.33 151.168 845.763 149.714C846.19 149.296 846.598 148.854 847.005 148.413C847.987 147.348 848.966 146.286 850.214 145.577C851.399 144.896 852.755 144.574 854.103 144.255C855.783 143.856 857.45 143.461 858.756 142.378Z" fill="#9E9E9E" fill-opacity="0.6"/>
<path d="M850.994 184.351C851.96 184.122 852.926 183.894 853.817 183.465C855.407 182.699 856.747 180.914 856.147 179.278C855.739 178.169 854.628 177.515 853.536 177.025C848.553 174.846 838.831 173.25 833.892 176.247C831.228 177.83 829.935 181.96 832.2 184.059C832.804 184.629 833.594 184.99 834.376 185.348C835.445 185.836 836.5 186.318 837.048 187.32C837.405 187.976 837.458 188.731 837.511 189.49C837.539 189.897 837.568 190.305 837.644 190.699C837.832 191.851 838.75 193.095 839.88 192.824C840.375 192.712 840.749 192.322 841.093 191.958C841.646 191.367 842.18 190.746 842.714 190.124L842.717 190.121C844.487 188.06 846.265 185.991 848.76 184.985C849.48 184.709 850.237 184.53 850.994 184.351Z" fill="#9E9E9E" fill-opacity="0.6"/>
<path d="M650.422 157.746C650.41 157.898 650.395 158.053 650.38 158.21C650.291 159.143 650.196 160.124 650.818 160.761C651.57 161.516 652.749 161.282 653.825 161.07C653.893 161.056 653.96 161.043 654.027 161.03C654.107 161.014 654.186 160.999 654.264 160.985C656.98 160.548 659.91 161.863 661.29 164.245C662.642 166.626 662.262 169.929 660.316 171.848C658.913 173.244 656.988 173.841 655.094 174.429C654.63 174.573 654.167 174.717 653.715 174.871C650.56 175.914 647.62 177.565 645.118 179.729L645.045 179.791C644.127 180.573 643.124 181.427 641.935 181.342C640.228 181.176 639.408 179.039 639.762 177.368C640.016 176.274 640.603 175.292 641.19 174.311L641.191 174.308C641.484 173.818 641.777 173.328 642.028 172.824C642.274 172.332 642.556 170.632 642.919 168.441C643.989 161.996 645.763 151.304 649.38 154.591C650.241 155.341 650.505 156.607 650.422 157.746Z" fill="#9E9E9E" fill-opacity="0.6"/>
<path d="M636.673 164.138C636.588 163.495 636.499 162.827 636.568 162.127C636.655 161.41 636.452 160.88 636.251 160.355C636.028 159.77 635.807 159.191 635.991 158.368C636.117 157.799 636.711 157.151 637.325 156.481C637.901 155.853 638.495 155.204 638.737 154.583C641.033 148.87 639.328 145.355 633.676 146.247C620.23 148.415 613.397 158.887 626.937 166.961C629.555 168.533 633.045 170.067 635.454 168.144C637.036 166.871 636.863 165.564 636.673 164.138Z" fill="#9E9E9E" fill-opacity="0.6"/>
<path d="M627.633 134.105C627.826 134.529 628.127 134.88 628.427 135.229C628.739 135.591 629.049 135.951 629.235 136.39C629.843 137.863 628.808 139.527 627.585 140.583C626.103 141.851 624.279 142.712 622.469 143.567C619.871 144.793 617.302 146.006 615.821 148.388C615.679 148.611 615.543 148.848 615.405 149.087L615.404 149.089L615.402 149.092C614.856 150.044 614.289 151.031 613.255 151.284C612.317 151.537 611.334 151.053 610.604 150.391C607.735 147.853 607.908 142.689 610.937 140.333C611.103 140.205 611.277 140.083 611.451 139.961C611.901 139.646 612.353 139.33 612.669 138.894C613.453 137.802 613.194 136.374 612.947 135.013C612.909 134.801 612.871 134.59 612.837 134.383C611.808 128.75 616.196 115.408 624.422 120.823C627.322 122.736 628.381 126.655 627.749 130.081C627.711 130.282 627.669 130.485 627.626 130.689C627.381 131.856 627.128 133.061 627.633 134.105Z" fill="#9E9E9E" fill-opacity="0.6"/>
<path d="M513.01 186.225C513.519 183.092 511.247 179.468 508.115 179.504C506.061 179.541 504.455 180.93 502.846 182.322C502.235 182.85 501.623 183.38 500.987 183.835C495.3 187.921 487.853 186.242 480.808 184.654C477.573 183.925 474.423 183.215 471.568 183.092C464.233 182.784 459.065 184.898 453.097 188.878C438.968 198.318 423.725 206.16 408.54 213.972C403.455 216.588 398.377 219.201 393.348 221.87C391.923 222.616 390.468 223.416 389.374 224.614C386.954 227.326 387.042 231.605 388.622 234.896C390.23 238.161 393.02 240.668 395.76 243.063L395.796 243.094C397.247 244.354 398.768 245.676 399.461 247.493C400.007 248.877 400 250.374 399.994 251.881C399.991 252.58 399.988 253.281 400.04 253.974C400.279 257.416 401.937 260.765 404.519 263.071C406.972 265.207 410.919 266.327 413.443 264.274C416.269 261.942 415.364 258.063 414.464 254.21C414.145 252.84 413.826 251.474 413.675 250.181C412.959 244.292 416.396 238.635 420.76 234.603C423.318 232.255 426.203 230.306 429.088 228.358C431.123 226.983 433.159 225.608 435.081 224.092C437.41 222.248 439.566 220.212 441.724 218.173C443.555 216.444 445.388 214.714 447.329 213.098C455.505 206.286 465.532 201.689 476.042 200.003C479.079 199.506 482.197 199.23 485.313 198.953C493.095 198.263 500.871 197.574 507.372 193.462C510.04 191.797 512.503 189.332 513.01 186.225Z" fill="#9E9E9E" fill-opacity="0.6"/>
<path d="M820.757 150.577C821.917 153.02 823.276 154.184 824.807 155.496C825.652 156.22 826.549 156.989 827.494 158.043C828.602 159.323 829.419 160.969 829.174 162.618C828.809 165.05 826.42 166.566 824.193 167.573L824.142 167.595C823.099 168.054 821.986 168.543 821.454 169.561C820.883 170.615 821.145 171.806 821.41 173.015C821.632 174.028 821.857 175.053 821.598 176.021C821.17 177.525 819.598 178.482 818.037 178.677C816.476 178.872 814.918 178.441 813.415 178.013C810.81 177.286 807.994 176.412 806.444 174.184C805.89 173.391 805.543 172.474 805.2 171.564C805.055 171.18 804.91 170.797 804.751 170.425C804.343 169.498 803.822 168.592 803.301 167.689C802.071 165.553 800.848 163.429 801.156 161.072C801.503 158.448 803.978 156.283 806.617 156.332C807.35 156.335 808.066 156.485 808.785 156.634C809.266 156.734 809.748 156.835 810.237 156.892C811.456 157.006 812.857 156.749 813.534 155.72C814.365 154.518 813.813 153.084 813.249 151.617C812.738 150.288 812.217 148.933 812.705 147.702C813.387 146.02 815.749 145.592 817.368 146.434C818.989 147.25 819.967 148.931 820.757 150.577Z" fill="#9E9E9E" fill-opacity="0.6"/>
</svg>
