<svg width="1211" height="687" viewBox="0 0 1211 687" fill="none" xmlns="http://www.w3.org/2000/svg">
<path d="M128.364 569.879C130.069 570.983 131.764 572.081 133.534 572.831L133.561 572.832C134.253 573.139 135.002 573.421 135.767 573.35C138.091 573.165 137.35 570.514 136.685 569.093C136.405 568.519 136.045 567.993 135.687 567.471C135.193 566.749 134.702 566.032 134.427 565.197C134.381 565.031 134.335 564.866 134.424 564.707C134.513 564.575 134.705 564.53 134.87 564.511C137.263 564.003 139.192 562.437 139.068 559.98C138.951 557.314 138.925 554.693 138.9 552.065L138.9 552.064C138.889 550.954 138.878 549.842 138.861 548.725C138.846 546.819 138.709 544.634 137.216 543.444C136.582 542.939 135.774 542.67 134.979 542.406C133.903 542.048 132.849 541.698 132.284 540.777C131.807 539.964 131.828 538.985 131.873 538.062L132.787 521.199C133.144 514.418 142.091 509.557 148.589 506.027L148.591 506.026C150.029 505.245 151.348 504.529 152.426 503.871C153.015 503.519 153.787 503.312 154.367 503.695C154.949 504.05 155.104 504.766 155.208 505.424C155.647 508.495 155.695 511.59 155.742 514.684C155.777 517.006 155.813 519.328 156.014 521.637C156.069 522.184 156.28 522.875 156.823 522.902C157.04 522.913 157.208 522.812 157.378 522.684C157.987 522.273 158.381 521.654 158.779 521.027C159.043 520.611 159.309 520.192 159.642 519.828C160.281 519.122 160.986 518.966 161.713 518.806C162.167 518.705 162.629 518.603 163.09 518.365C164.07 517.814 165.415 516.492 166.139 515.602C166.596 515.047 166.898 514.364 167.201 513.678C167.455 513.103 167.71 512.526 168.058 512.021C170.664 508.311 175.827 507.395 180.352 507.836C182.009 507.987 183.656 508.277 185.3 508.566C188.147 509.067 190.986 509.567 193.862 509.346C194.087 509.327 194.317 509.306 194.55 509.283L194.552 509.283C196.434 509.104 198.489 508.908 199.782 510.183C200.758 511.137 200.928 512.505 201.102 513.895C201.21 514.762 201.319 515.638 201.625 516.427C202.598 518.969 205.339 520.219 208.023 521.442C210.994 522.795 213.894 524.117 214.246 527.124C217.382 529.473 217.537 530.745 217.976 534.349L218.019 534.702L218.051 534.962C218.33 537.23 218.343 539.51 218.356 541.792C218.366 543.644 218.377 545.497 218.529 547.347C218.622 548.767 218.899 550.333 219.968 551.284C221.375 552.52 223.335 552.164 225.276 551.812C225.964 551.688 226.65 551.563 227.307 551.51C230.07 551.274 232.64 552.405 235.233 553.545C237.003 554.323 238.783 555.106 240.642 555.463C242.541 555.818 244.474 555.717 246.411 555.616C247.5 555.56 248.591 555.503 249.677 555.527C252.694 555.622 256.026 556.521 257.613 559.104C258.465 560.473 258.688 562.077 258.912 563.69C259.092 564.991 259.273 566.297 259.786 567.488C260.98 570.325 263.834 572.072 266.657 573.327C272.057 575.728 277.562 576.309 283.152 576.899C284.98 577.092 286.818 577.286 288.663 577.544C290.854 577.843 293.5 577.184 294.336 575.129C295.208 572.912 293.239 570.337 290.885 570.03C290.839 570.025 290.792 570.02 290.745 570.015C290.381 569.975 290.005 569.935 289.702 569.727C289.336 569.437 289.197 568.94 289.084 568.471C288.628 566.679 287.758 565.002 286.547 563.609C286.218 563.236 285.865 562.881 285.513 562.528L285.512 562.527C284.763 561.773 284.018 561.024 283.507 560.11C282.758 558.739 282.718 556.803 283.935 555.856C284.83 555.172 285.978 555.271 287.144 555.371C288.115 555.455 289.098 555.539 289.958 555.173C291.59 554.498 292.139 552.647 292.666 550.868L292.667 550.866C292.786 550.465 292.903 550.068 293.032 549.689C293.798 547.412 295.366 545.421 297.391 544.105C299.344 542.854 300.304 543.723 301.964 545.224C302.049 545.301 302.136 545.379 302.225 545.459C302.491 545.703 302.746 545.972 303 546.24L303.002 546.242C303.767 547.05 304.529 547.853 305.585 547.967C309.405 548.346 309.615 541.876 307.723 539.959C307.634 539.875 307.541 539.793 307.447 539.71C307.153 539.45 306.851 539.183 306.662 538.844C306.441 538.431 306.409 537.921 306.38 537.436L306.378 537.414C306.222 534.521 306.392 531.616 306.914 528.756C307.171 527.407 307.795 525.804 309.161 525.708C310.474 525.582 311.33 526.986 311.898 528.157C315.124 535.069 320.819 536.602 328.28 536.018L328.78 535.978C333.287 535.615 338.127 535.226 341.892 537.669L341.921 537.689C343.129 538.508 344.693 539.57 345.842 538.708C346.244 538.397 346.458 537.922 346.671 537.45C346.878 536.99 347.085 536.532 347.462 536.229C348.454 535.434 349.968 536.189 350.708 537.206C351.008 537.607 351.252 538.058 351.496 538.511C351.855 539.176 352.216 539.844 352.757 540.356C354.337 540.522 355.636 540.572 356.963 540.622C358.093 540.664 359.243 540.708 360.602 540.825L367.456 541.408C369.741 541.603 372.027 541.797 374.319 541.992C376.054 542.132 377.927 542.252 379.44 541.373C379.93 541.073 380.356 540.677 380.781 540.281C381.282 539.815 381.782 539.35 382.387 539.041C384.671 537.857 387.005 539.29 389.36 540.736C390.318 541.324 391.279 541.914 392.242 542.332C393.23 542.765 394.337 543.052 395.439 543.336C397.844 543.958 400.221 544.573 401.256 546.697C402.418 549.058 401.101 551.421 399.739 553.865C398.637 555.842 397.506 557.871 397.632 559.996C397.847 563.355 401.946 565.817 405.009 564.416C405.082 564.383 405.155 564.347 405.229 564.311C405.638 564.111 406.067 563.901 406.503 563.946C407.739 564.069 407.792 565.505 407.844 566.897C407.86 567.335 407.876 567.768 407.928 568.154C408.234 570.327 410.267 571.303 412.376 572.317C414.02 573.107 415.711 573.919 416.666 575.338C417.454 576.508 417.654 577.961 417.852 579.397C418.088 581.107 418.32 582.792 419.536 583.947C421.432 585.783 424.597 585.095 426.944 583.877C427.35 583.663 427.758 583.436 428.168 583.206C430.101 582.127 432.094 581.014 434.263 581.189C437.6 581.435 439.883 579.288 442.233 576.899C442.591 576.561 442.906 576.192 443.223 575.82C443.513 575.479 443.805 575.136 444.133 574.814C445.847 573.184 448.199 572.401 450.439 571.695C450.485 571.681 450.53 571.668 450.575 571.654C451 571.525 451.427 571.395 451.866 571.466C453.379 571.704 453.622 573.949 452.769 575.241C452.149 576.173 451.527 576.806 450.976 577.367C449.829 578.535 448.995 579.386 449.144 581.95C449.361 585.282 451.872 588.456 454.043 590.796C454.621 591.405 455.218 592.005 455.816 592.605C458.215 595.016 460.629 597.441 461.891 600.576C463.169 603.74 463.12 607.28 463.072 610.79C463.014 615.076 462.956 619.317 465.315 622.772C465.737 623.388 466.229 623.958 466.722 624.528C467.266 625.159 467.811 625.79 468.262 626.484C469.82 628.91 470.133 631.804 470.449 634.72C470.696 637.01 470.946 639.314 471.8 641.415C472.65 643.499 474.754 645.536 476.861 644.769C478.827 644.033 479.014 641.789 479.203 639.505C479.287 638.503 479.37 637.494 479.605 636.6C479.808 635.793 480.396 634.924 481.209 634.991C482.123 635.072 482.616 636.929 483.034 638.503C483.248 639.31 483.442 640.042 483.664 640.422C485.119 642.917 487.804 644.792 490.476 645.795C494.38 647.24 498.685 647.153 502.802 646.485C503.141 646.429 503.48 646.371 503.819 646.312C505.533 646.014 507.237 645.718 508.955 645.917C511.014 646.127 513.111 647.211 513.914 649.129C514.166 649.72 514.273 650.356 514.379 650.995C514.459 651.471 514.538 651.947 514.678 652.407C515.285 654.393 516.902 655.76 518.532 657.138C519.987 658.368 521.452 659.607 522.216 661.301C522.737 662.435 522.912 663.712 523.086 664.974C523.33 666.751 523.571 668.501 524.765 669.785C526.315 671.468 528.892 671.65 531.177 671.681L531.269 671.683L531.27 671.683C534.588 671.754 536.034 671.785 536.872 671.086C537.52 670.546 537.804 669.571 538.307 667.841C538.473 667.273 538.662 666.623 538.895 665.881C539.088 665.292 539.337 664.651 539.869 664.35C540.681 663.9 541.719 664.387 542.226 665.147C542.696 665.891 542.791 666.826 542.88 667.713L542.886 667.766C543.357 672.554 544.512 677.294 546.251 681.764C546.88 683.374 547.72 685.103 549.321 685.754C551.83 686.776 554.469 684.592 555.917 682.295C556.193 681.857 556.458 681.403 556.725 680.947L556.728 680.942C557.859 679.008 559.008 677.045 561.01 676.175C561.689 675.887 562.428 675.741 563.161 675.597C564.291 675.374 565.407 675.153 566.269 674.42C569.705 671.472 573.728 669.49 577.757 667.504L577.759 667.502L577.761 667.501C579.396 666.695 581.032 665.889 582.631 665.017C585.253 663.583 587.492 661.528 589.714 659.489C592.02 657.373 594.307 655.274 596.981 653.908C600.706 652.027 602.859 654.527 605.013 657.028C606.864 659.177 608.716 661.327 611.565 660.7C612.511 660.497 613.31 659.949 614.109 659.401C614.795 658.93 615.481 658.46 616.261 658.209C619 657.309 622.217 659.973 621.859 662.814C623.935 667.654 630.145 669.24 635.298 670.175C638.65 670.798 642.067 670.798 645.482 670.797C647.343 670.797 649.203 670.797 651.052 670.898C651.722 670.931 652.398 670.976 653.076 671.022C656.436 671.249 659.852 671.48 662.928 670.204C666.625 668.671 669.286 663.847 666.97 660.574C666.751 660.282 666.504 660.01 666.257 659.738C665.955 659.405 665.653 659.072 665.402 658.7C664.487 657.375 664.353 655.681 664.322 654.1C664.195 647.287 665.649 640.443 668.54 634.269C669.211 632.805 670.019 631.32 671.319 630.349C672.592 629.377 674.488 629.035 675.833 629.918C676.602 630.421 677.076 631.23 677.555 632.049C677.946 632.717 678.34 633.392 678.902 633.909C679.772 634.7 680.979 635.009 682.142 635.307L682.208 635.325C683.15 635.552 684.09 635.783 685.03 636.013C687.767 636.686 690.5 637.357 693.268 637.939C694.434 638.197 695.735 638.282 697.053 638.368C699.144 638.505 701.28 638.645 702.992 639.481C705.499 640.678 706.536 643.59 707.484 646.252L707.597 646.57C707.791 647.094 707.988 647.689 708.199 648.323C709.427 652.021 711.102 657.065 715.018 657.282C716.437 657.37 717.827 657.041 719.21 656.714C719.89 656.553 720.568 656.392 721.247 656.282C724.031 655.821 726.885 656.147 729.726 656.472C733.216 656.871 736.686 657.267 739.98 656.199C740.671 655.988 741.339 655.694 741.828 655.174C742.722 654.147 742.579 652.711 742.435 651.282C742.41 651.025 742.384 650.767 742.364 650.513C742.349 650.312 742.337 650.113 742.332 649.917C742.281 648.199 742.969 646.382 744.405 645.418C745.813 644.48 748.035 644.671 749 646.08C749.394 646.632 749.555 647.211 749.714 647.781C749.905 648.466 750.092 649.136 750.672 649.729C752.077 651.158 754.924 651.568 757.084 651.88C757.434 651.931 757.767 651.978 758.072 652.028L768.281 653.675C769.902 653.918 771.602 654.22 772.856 655.289C773.713 656.037 774.25 657.073 774.782 658.098C774.866 658.26 774.95 658.422 775.035 658.582C776.68 661.658 779.63 664.772 783.065 664.124C783.864 663.966 784.613 663.615 785.365 663.263C785.752 663.081 786.14 662.9 786.536 662.744C789.361 661.601 792.179 661.928 795.014 662.258C796.693 662.453 798.379 662.649 800.076 662.54C804.063 662.274 807.908 661.048 810.975 658.477C811.836 657.76 812.659 656.992 813.48 656.225L813.481 656.225C815.31 654.516 817.133 652.814 819.367 651.703C820.475 651.149 821.652 650.76 822.829 650.37L822.83 650.37C823.758 650.063 824.685 649.756 825.58 649.369C827.584 648.487 829.561 647.033 830.156 644.911C830.239 644.635 830.298 644.354 830.356 644.073C830.456 643.591 830.555 643.109 830.784 642.655C831.162 641.89 831.879 641.343 832.586 640.802L832.676 640.734C834.418 639.452 836.143 638.102 837.864 636.755C839.605 635.394 841.341 634.035 843.088 632.753C845.315 631.133 847.024 631.63 849.08 632.227C850.099 632.524 851.203 632.845 852.497 632.945C854.935 633.131 857.105 631.951 859.3 630.756C860.695 629.997 862.1 629.232 863.591 628.809C866.288 628.008 869.126 628.365 871.957 628.72C872.924 628.841 873.89 628.963 874.85 629.038C878.619 629.333 883.013 628.569 884.943 625.315C885.212 624.85 885.429 624.359 885.645 623.87C885.834 623.44 886.023 623.012 886.247 622.603C886.919 621.434 887.928 620.771 888.944 620.104C890.046 619.381 891.154 618.653 891.846 617.27C893.055 614.825 892.998 611.582 891.17 609.45C891.078 609.348 890.982 609.246 890.886 609.145L890.884 609.143C890.473 608.706 890.056 608.263 889.84 607.723C889.574 607.03 889.669 606.217 889.759 605.487C890.246 601.685 890.74 597.884 891.234 594.083C891.728 590.282 892.222 586.481 892.709 582.68C892.737 582.474 892.768 582.257 892.8 582.031C893.162 579.485 893.693 575.748 892.143 573.722C891.429 572.761 889.813 572.409 889.034 573.296C888.634 573.755 888.544 574.361 888.453 574.971C888.374 575.505 888.294 576.042 888.005 576.485C887.729 576.922 887.278 577.195 886.815 577.475C886.635 577.584 886.453 577.695 886.279 577.816C885.458 578.39 885.1 579.131 884.738 579.879C884.491 580.39 884.243 580.905 883.844 581.371C883.441 581.814 882.671 581.967 882.283 581.566C881.997 581.28 881.963 580.87 881.955 580.488C881.777 575.824 882.116 571.158 882.995 566.572C883.405 564.333 884.18 561.866 886.216 560.877C886.851 560.573 887.55 560.449 888.247 560.326C889.02 560.189 889.791 560.053 890.468 559.671C890.957 559.373 891.359 558.952 891.76 558.532C891.936 558.348 892.111 558.165 892.293 557.992C893.497 556.771 894.987 555.81 896.594 555.236C897.559 554.896 898.515 554.604 899.46 554.316C901.959 553.552 904.375 552.815 906.645 551.267C907.561 550.653 908.457 550.001 909.353 549.347C911.569 547.731 913.791 546.112 916.343 545.075C921.426 543.011 927.144 543.538 932.615 544.108C934.431 544.279 936.325 544.509 937.916 545.377C939.612 546.305 940.842 547.863 942.019 549.391C943.654 551.54 945.296 553.682 946.938 555.824C948.583 557.969 950.227 560.114 951.864 562.265C952.504 563.086 953.145 563.908 953.532 564.879C953.735 565.372 953.87 565.902 954.005 566.429C954.258 567.418 954.509 568.401 955.201 569.128C956.204 570.159 957.661 570.3 959.136 570.442C959.909 570.516 960.687 570.591 961.407 570.795C963.476 571.36 965.029 572.989 966.474 574.585C967.075 575.237 967.666 575.905 968.255 576.572L968.258 576.575C972.151 580.981 975.991 585.328 982.503 584.633C984.227 584.445 985.989 584.042 987.245 582.879C987.76 582.427 988.159 581.872 988.559 581.316C988.865 580.89 989.172 580.462 989.533 580.079C990.941 578.596 993.02 577.828 995.061 577.846C997.103 577.838 999.111 578.536 1000.85 579.63C1001.36 579.945 1001.87 580.295 1002.37 580.645C1003.9 581.71 1005.44 582.783 1007.25 582.913C1008.01 582.975 1008.77 582.865 1009.52 582.755C1010.43 582.622 1011.33 582.49 1012.22 582.668C1015.83 583.364 1018.41 587.384 1018.29 590.837C1018.29 591.125 1018.25 591.485 1018.21 591.885C1018.05 593.632 1017.81 596.14 1019.28 596.766C1019.81 597.01 1020.43 597.049 1021.02 597.087C1021.17 597.097 1021.32 597.107 1021.47 597.119C1022.88 597.298 1024.24 597.855 1025.31 598.725C1025.52 598.898 1025.73 599.083 1025.94 599.269L1025.94 599.27C1026.6 599.86 1027.26 600.452 1028.1 600.659C1029.09 600.926 1030.23 600.546 1030.84 599.733C1031.52 598.841 1031.5 597.814 1031.48 596.798C1031.46 595.99 1031.44 595.189 1031.78 594.47C1032.4 593.106 1034.38 592.241 1035.93 591.568C1036.07 591.503 1036.22 591.439 1036.36 591.378C1036.55 591.292 1036.73 591.209 1036.9 591.128C1038.8 590.242 1040.62 589.188 1042.34 587.993C1043.49 587.206 1044.72 585.96 1044.27 584.658C1044.17 584.312 1043.95 584.004 1043.74 583.702C1043.42 583.257 1043.12 582.822 1043.19 582.29C1043.24 581.884 1043.5 581.543 1043.76 581.229C1045.99 578.535 1048.32 575.927 1050.74 573.378C1050.99 573.114 1051.28 572.763 1051.62 572.37C1053.21 570.484 1055.62 567.637 1057.79 568.826C1058.54 569.239 1058.89 570.041 1059.23 570.853C1059.44 571.333 1059.65 571.817 1059.94 572.226C1060.23 572.622 1060.61 572.947 1060.99 573.272C1061.37 573.597 1061.75 573.922 1062.04 574.317C1062.86 575.446 1062.77 577.185 1061.85 578.228C1061.72 578.369 1061.58 578.501 1061.44 578.633C1061.15 578.915 1060.85 579.196 1060.67 579.559C1060.45 579.984 1060.43 580.446 1060.41 580.907L1060.41 580.992C1060.36 583.048 1060.3 585.717 1061.47 587.44C1061.72 587.808 1062.02 588.137 1062.31 588.465C1062.64 588.841 1062.98 589.217 1063.24 589.651C1064.1 590.981 1064.2 592.629 1064.29 594.244C1064.3 594.424 1064.31 594.603 1064.33 594.781C1064.34 594.932 1064.35 595.083 1064.36 595.233C1064.56 597.579 1065.17 599.876 1065.79 602.165C1066.61 605.238 1067.43 608.297 1067.23 611.439C1067.23 611.557 1067.22 611.675 1067.21 611.793C1067.18 612.379 1067.14 612.959 1067.29 613.511C1067.48 614.039 1067.82 614.48 1068.16 614.923L1068.17 614.925C1068.27 615.062 1068.38 615.199 1068.48 615.34C1069.55 616.89 1069.88 619.547 1068.4 620.944C1067.46 621.823 1066.13 622.139 1064.86 622.076C1064.71 622.069 1064.56 622.057 1064.41 622.043C1064.27 622.03 1064.12 622.014 1063.97 621.998L1063.97 621.998C1063.52 621.95 1063.07 621.901 1062.63 621.912C1061.9 621.93 1061.12 622.191 1060.66 622.768C1060.45 623.03 1060.31 623.353 1060.18 623.672C1059.99 624.148 1059.79 624.615 1059.36 624.854C1058.96 625.06 1058.64 625.185 1058.39 625.287C1057.58 625.604 1057.37 625.688 1057.33 627.232C1057.33 627.461 1057.32 627.689 1057.32 627.916L1057.32 627.931C1057.29 629.483 1057.26 630.99 1056.13 632.237C1055.6 632.843 1054.9 633.273 1054.2 633.699C1053.31 634.245 1052.42 634.784 1051.94 635.678C1051.37 636.685 1051.44 637.968 1051.91 638.999C1052.56 640.396 1053.7 641.253 1054.85 642.115C1056.19 643.127 1057.55 644.147 1058.15 646.059C1058.34 646.692 1058.46 647.354 1058.58 648.015C1058.8 649.259 1059.02 650.498 1059.76 651.529C1060.29 652.255 1061.03 652.79 1061.77 653.327C1062.15 653.605 1062.53 653.883 1062.89 654.189C1065.4 656.382 1066.36 659.996 1066.64 663.195C1066.77 664.733 1066.52 666.392 1066.27 668.048L1066.27 668.049C1065.96 670.045 1065.66 672.037 1066.03 673.811C1066.33 675.078 1067.55 676.227 1068.81 675.936C1069.72 675.736 1070.31 674.921 1070.84 674.157C1071.68 672.976 1072.5 671.766 1073.32 670.557L1073.33 670.55C1073.94 669.682 1074.56 668.759 1074.8 667.736C1074.98 666.923 1074.92 666.076 1074.86 665.245L1074.85 665.057C1074.84 664.988 1074.84 664.92 1074.83 664.852C1074.64 661.657 1074.73 657.469 1075.95 654.452C1076.29 653.624 1077.07 652.71 1077.92 653.024C1078.46 653.241 1078.67 653.851 1078.86 654.405C1079.26 655.677 1079.66 656.949 1080.09 658.223C1080.16 658.444 1080.23 658.693 1080.41 658.838C1080.62 659.011 1080.86 659.051 1081.11 659.09C1082.7 659.305 1084.55 659.45 1085.72 658.31C1086.22 657.815 1086.49 657.152 1086.76 656.485C1087.03 655.824 1087.31 655.16 1087.8 654.656C1089.28 653.171 1091.03 653.696 1092.78 654.22C1094.49 654.731 1096.19 655.242 1097.64 653.889C1098.5 653.073 1098.73 651.88 1098.95 650.684C1099.05 650.173 1099.14 649.661 1099.29 649.178C1099.82 647.448 1101.02 646.088 1102.22 644.724C1103.07 643.763 1103.92 642.8 1104.53 641.704C1106.35 638.445 1106.81 635.282 1106.96 631.587C1107.4 619.817 1107.99 608.039 1108.59 596.27L1108.59 596.266C1108.77 592.736 1108.95 589.207 1109.12 585.679C1109.2 584.159 1109.19 582.658 1109.19 581.16L1109.19 581.157L1109.19 581.154C1109.19 578.962 1109.19 576.778 1109.42 574.559C1109.45 574.274 1109.48 573.988 1109.51 573.701L1109.52 573.698C1109.87 570.374 1110.25 566.882 1108.59 563.845C1108.39 563.474 1108.2 563.123 1108.01 562.785C1106.57 560.161 1105.57 558.347 1105.77 554.884L1107.32 528.36C1107.5 525.246 1106.12 523.388 1104.42 521.104C1104.03 520.58 1103.62 520.034 1103.21 519.444C1100.14 515.018 1097.07 510.599 1094 506.179C1090.93 501.76 1087.86 497.341 1084.79 492.914C1082.37 489.419 1079.84 485.564 1080.05 481.3C1080.09 480.561 1080.21 479.826 1080.33 479.092C1080.49 478.098 1080.65 477.104 1080.61 476.1C1080.61 476.042 1080.6 475.985 1080.6 475.926C1080.6 475.859 1080.59 475.791 1080.59 475.722C1080.58 475.533 1080.57 475.339 1080.56 475.142C1080.44 473.322 1080.31 471.281 1081.88 470.69C1083.16 470.208 1084.47 471.253 1085.45 472.228C1091.9 478.754 1097.62 485.981 1103.33 493.196C1105.38 495.791 1107.43 498.383 1109.52 500.941L1109.55 500.98C1111.57 503.491 1113.65 506.089 1114.47 509.218C1114.56 509.559 1114.63 509.911 1114.71 510.265C1114.98 511.602 1115.27 512.97 1116.26 513.88C1116.91 514.478 1117.75 514.764 1118.58 515.049C1118.91 515.161 1119.24 515.273 1119.56 515.404C1122.74 516.65 1124.88 519.533 1126.84 522.298L1136.16 535.337C1136.82 536.295 1137.51 537.255 1138.2 538.187C1139.03 539.36 1139.86 540.533 1140.7 541.706C1141.2 542.419 1141.71 543.131 1142.22 543.844C1142.54 544.3 1142.86 544.757 1143.19 545.213C1143.57 545.739 1143.95 546.398 1144.35 547.086L1144.35 547.09L1144.35 547.091C1145.17 548.509 1146.07 550.05 1147.18 550.801C1147.92 551.273 1148.92 551.404 1149.6 550.866C1150.03 550.56 1150.24 550.053 1150.43 549.573C1150.89 548.479 1151.33 547.357 1151.74 546.234C1152.05 545.378 1152.35 544.412 1151.98 543.55C1151.66 542.81 1150.95 542.405 1150.22 541.991C1149.88 541.798 1149.54 541.604 1149.23 541.372C1147.13 539.771 1147.06 536.719 1147.19 534.084C1147.21 533.677 1147.26 533.243 1147.57 533.041C1147.77 532.887 1148.01 532.899 1148.26 532.911C1148.6 532.937 1149 533.049 1149.42 533.167C1150.34 533.423 1151.36 533.706 1152.06 533.18C1152.22 533.076 1152.33 532.913 1152.44 532.74C1152.47 532.704 1152.49 532.668 1152.52 532.632C1152.87 532.159 1153.46 531.671 1153.99 531.969C1154.06 532.013 1154.11 532.064 1154.16 532.114C1154.19 532.143 1154.22 532.172 1154.26 532.2C1154.28 532.22 1154.31 532.24 1154.33 532.258C1154.69 532.549 1155.2 532.598 1155.67 532.644C1155.72 532.649 1155.77 532.653 1155.81 532.658C1157.06 532.774 1158.36 532.757 1159.6 532.573C1160.09 532.515 1160.59 532.403 1160.96 532.095C1161.33 531.759 1161.49 531.168 1161.21 530.773C1161.08 530.604 1160.9 530.486 1160.74 530.396C1160.61 530.319 1160.49 530.245 1160.37 530.175L1160.35 530.168C1158.77 529.236 1158 528.785 1157.24 526.929C1156.75 525.707 1156.02 524.5 1154.89 523.818C1153.2 522.82 1151.94 523.617 1150.77 524.352C1149.37 525.235 1148.11 526.03 1146.43 523.51C1145.55 522.159 1144.27 521.116 1142.77 520.552C1141.79 520.158 1140.76 519.979 1139.72 519.8C1138.72 519.627 1137.72 519.453 1136.77 519.085C1135.34 518.547 1134.42 517.627 1133.44 516.644C1133.11 516.309 1132.77 515.966 1132.4 515.629C1130.86 514.192 1129.31 512.591 1129.12 510.376C1129.07 509.841 1129.1 509.299 1129.14 508.759C1129.19 508.111 1129.23 507.466 1129.13 506.837C1128.93 505.576 1128.21 504.516 1127.48 503.444C1127.05 502.813 1126.62 502.178 1126.29 501.496C1125.28 499.377 1125.4 496.879 1125.52 494.516C1125.53 494.135 1125.55 493.728 1125.76 493.411C1125.99 493.069 1126.41 492.872 1126.8 492.728C1129.14 491.726 1130.84 490.858 1131.64 488.392C1132.38 486.196 1132.26 483.658 1130.18 482.194C1129.16 481.477 1127.94 481.188 1126.73 480.9C1126.26 480.788 1125.79 480.676 1125.33 480.539C1121.69 479.433 1118.77 476.785 1115.95 474.223C1109.47 468.249 1102.98 462.269 1096.49 456.289C1090.01 450.316 1083.53 444.344 1077.05 438.378L1076.82 438.165C1073.85 435.443 1070.84 432.687 1067.33 430.683C1065.53 429.642 1062.84 428.992 1061.67 430.704C1060.87 431.89 1061.36 433.575 1062.32 434.656C1062.88 435.312 1063.58 435.824 1064.28 436.337L1064.28 436.338C1064.74 436.671 1065.19 437.004 1065.61 437.378C1066.99 438.617 1068.01 440.192 1068.96 441.764C1069.59 442.799 1070.23 443.825 1070.87 444.846L1070.88 444.862L1070.88 444.865C1071.26 445.471 1071.64 446.075 1072.01 446.679C1071.13 446.962 1070.17 446.533 1069.35 446.057L1069.26 446.001C1068.49 445.514 1067.68 444.997 1066.79 445.005C1065.83 445.04 1064.89 445.973 1065.25 446.836C1063.98 447.907 1063.34 448.945 1062.63 450.092C1062.21 450.762 1061.78 451.469 1061.18 452.243C1060.01 453.765 1057.92 454.261 1055.99 454.111C1054.59 454.002 1053.23 453.597 1051.87 453.192C1051.62 453.116 1051.36 453.04 1051.11 452.966C1050.88 452.9 1050.65 452.836 1050.42 452.774C1044.83 451.355 1038.73 452.007 1033.56 454.611C1032.75 455.034 1031.91 455.51 1031.44 456.276C1030.56 457.648 1031.01 459.495 1031.84 460.897C1032.11 461.387 1032.42 461.856 1032.73 462.324L1032.74 462.327C1033.33 463.221 1033.92 464.11 1034.24 465.127C1035.31 468.365 1033.23 471.965 1030.33 473.81C1030.05 473.986 1029.71 474.16 1029.36 474.197C1028.29 474.254 1027.7 472.999 1027.4 471.977C1027.12 470.956 1026.82 469.933 1026.52 468.884C1025.91 466.839 1024.78 464.36 1022.63 464.363C1017.58 464.452 1020.11 470.258 1021.52 473.501C1021.82 474.179 1022.06 474.745 1022.18 475.123C1022.56 476.312 1022.44 478.104 1021.21 478.179C1020.47 478.251 1019.88 477.569 1019.48 476.977C1018.05 474.946 1016.77 472.814 1015.65 470.608C1015.2 469.769 1014.79 468.85 1014.83 467.926C1014.84 467.44 1014.97 466.97 1015.1 466.504L1015.1 466.503C1015.19 466.186 1015.28 465.872 1015.33 465.555C1015.45 464.744 1015.2 463.779 1014.48 463.471C1012.99 463.66 1012 464.515 1010.99 465.382C1010.33 465.954 1009.66 466.53 1008.84 466.923C1008.21 467.231 1007.48 467.379 1006.75 467.527C1005.43 467.796 1004.1 468.067 1003.36 469.293C1003.05 469.827 1002.94 470.444 1002.84 471.065C1002.76 471.521 1002.68 471.98 1002.52 472.41C1002.17 473.428 1000.88 474.29 1000.07 473.596C999.702 473.306 999.59 472.81 999.504 472.343C998.488 467.011 998.294 461.011 1001.78 456.555C1002.13 456.109 1002.5 455.68 1002.87 455.251C1003.62 454.392 1004.36 453.533 1004.92 452.544C1006.11 450.452 1006.34 447.958 1006.54 445.572L1007.18 437.681C1007.26 436.514 1007.35 435.293 1006.75 434.283C1006.5 433.842 1006.14 433.481 1005.78 433.122C1005.4 432.751 1005.03 432.381 1004.79 431.927C1004.3 430.949 1004.43 429.813 1004.57 428.73C1005.25 423.809 1005.93 418.887 1006.61 413.938C1006.96 411.232 1007.4 408.395 1009.05 406.244C1009.14 406.136 1009.22 406.028 1009.31 405.919C1009.41 405.797 1009.51 405.674 1009.61 405.55C1010.48 404.505 1011.38 403.413 1011.11 402.153C1010.77 400.612 1009.76 399.547 1008.75 398.484C1007.42 397.079 1006.09 395.676 1006.32 393.177C1006.51 391.062 1007.8 389.111 1009.65 388.086C1009.8 388.007 1009.95 387.932 1010.1 387.855C1010.83 387.496 1011.57 387.125 1011.86 386.398C1012.33 385.288 1011.52 384.358 1010.68 383.379C1010.08 382.688 1009.46 381.972 1009.26 381.151C1008.56 378.228 1011.46 373.785 1013.51 370.656C1013.99 369.921 1014.42 369.26 1014.74 368.707C1017.45 364.103 1020.47 359.678 1023.78 355.485C1025.7 353.047 1028.5 350.435 1031.5 351.291C1031.99 351.442 1032.45 351.68 1032.91 351.919C1033.44 352.193 1033.97 352.467 1034.54 352.612C1035.59 352.882 1037.03 352.408 1037.14 351.297C1037.19 350.864 1036.99 350.419 1036.79 350.028C1036.37 349.176 1035.8 348.393 1035.29 347.685C1033.8 345.61 1032.77 344.182 1037.16 343.566C1039.8 343.206 1041.93 341.296 1043.85 339.458C1044.19 339.137 1044.53 338.815 1044.87 338.494C1045.4 338.001 1045.92 337.507 1046.44 337.013C1047.31 336.198 1048.17 335.383 1049.04 334.568C1049.64 334.026 1050.28 333.295 1050.1 332.497C1049.94 331.938 1049.43 331.575 1048.94 331.23C1048.89 331.195 1048.84 331.16 1048.79 331.125C1048.75 331.096 1048.71 331.067 1048.67 331.038C1047.39 330.076 1045.68 326.588 1046.13 325.086C1046.69 323.272 1049.48 322.229 1051.65 321.413C1052.37 321.143 1053.03 320.898 1053.51 320.658C1056.89 319.027 1059.64 316.168 1061.23 312.761C1061.5 312.122 1061.87 311.377 1062.58 311.276C1063.18 311.197 1063.76 311.688 1063.94 312.269C1064.15 312.782 1064.09 313.374 1064.03 313.931L1064.02 314.07C1064.01 314.165 1063.99 314.266 1063.98 314.374C1063.97 314.475 1063.95 314.581 1063.94 314.692C1063.6 317.192 1062.93 322.224 1064.85 323.641C1065.85 324.371 1067.23 324.085 1068.44 323.763C1070.7 323.14 1073.43 322.049 1073.73 319.722C1073.81 319.164 1073.73 318.597 1073.66 318.034C1073.56 317.37 1073.48 316.709 1073.64 316.069C1073.91 315.085 1074.71 314.395 1075.51 313.704C1076.28 313.036 1077.05 312.368 1077.35 311.433C1077.59 310.757 1077.53 310.041 1077.46 309.316C1077.43 308.98 1077.4 308.641 1077.4 308.305C1077.36 305.409 1079.27 303.114 1081.2 300.802C1082.99 298.654 1084.79 296.491 1085.05 293.816C1085.11 293.329 1085.08 292.81 1084.83 292.362C1084.2 291.242 1082.51 291.404 1081.38 292.056C1081.05 292.259 1080.73 292.49 1080.41 292.721C1079.66 293.266 1078.91 293.804 1078.03 293.932C1076.63 294.136 1075.23 293.196 1074.5 291.989C1073.77 290.782 1073.54 289.328 1073.42 287.906C1073.27 285.938 1073.24 283.976 1073.33 281.993C1073.41 280.908 1073.47 279.686 1072.89 278.786C1072.61 278.356 1072.22 278.033 1071.82 277.709C1071.57 277.503 1071.32 277.297 1071.1 277.064C1069.47 275.426 1069.56 273.064 1069.65 270.638C1069.72 268.867 1069.79 267.061 1069.19 265.48C1068.57 263.831 1067.64 262.368 1066.73 260.955C1064.58 257.59 1062.61 254.502 1065.5 249.833C1066.21 248.693 1067.07 247.64 1067.93 246.591C1069.35 244.844 1070.77 243.105 1071.49 240.98C1071.68 240.429 1071.85 239.829 1072.02 239.218L1072.02 239.216C1072.75 236.626 1073.54 233.847 1076.01 233.77C1078.11 233.738 1079.44 235.954 1080.3 237.875C1080.53 238.376 1080.75 238.877 1080.98 239.376L1081.66 240.905L1081.68 240.935C1082.57 242.909 1083.45 244.875 1084.32 246.841C1084.84 247.983 1085.41 249.181 1086.49 249.752C1088.17 250.597 1090.29 249.504 1091.21 247.862C1092.14 246.246 1092.18 244.261 1092.19 242.383L1092.27 225.887L1092.27 225.877C1092.27 224.845 1092.27 223.787 1091.85 222.844C1091.64 222.404 1091.35 221.994 1091.05 221.588C1090.51 220.835 1089.98 220.097 1090.04 219.215C1090.1 218.337 1090.71 217.674 1091.34 217.002C1091.85 216.45 1092.36 215.892 1092.58 215.202C1093.14 213.351 1091.29 211.599 1089.44 211.018C1088.78 210.818 1088.09 210.695 1087.4 210.571C1086.17 210.353 1084.94 210.134 1083.88 209.491C1080.84 207.707 1080.61 203.476 1080.88 200.249C1080.9 199.814 1080.98 199.355 1081.24 199.014C1081.51 198.689 1081.94 198.528 1082.36 198.369C1082.88 198.17 1083.4 197.975 1083.57 197.469C1083.64 197.281 1083.65 197.091 1083.63 196.872C1083.63 196.216 1083.64 195.551 1083.64 194.883L1083.65 193.225C1083.65 192.707 1083.65 192.163 1083.89 191.685C1084.04 191.311 1084.36 191.027 1084.67 190.77C1085.89 189.687 1091.8 186.848 1090.59 191.062C1090.4 191.676 1090.03 192.203 1089.66 192.731C1089.33 193.196 1089 193.662 1088.8 194.187C1088.4 195.12 1088.43 196.156 1088.46 197.138C1088.53 199.673 1088.67 202.294 1089.95 204.481C1091.84 207.652 1095.65 209.004 1099.14 210.242L1099.41 210.339C1100.45 210.69 1101.52 211.096 1102.3 211.87C1103.13 212.728 1103.54 213.891 1103.8 215.048C1104.33 217.034 1104.8 219.181 1104.86 221.226C1104.91 222.899 1104.31 224.282 1103.68 225.761L1103.68 225.762C1103.51 226.138 1103.35 226.521 1103.19 226.916C1101.58 230.866 1101.63 234.871 1103.48 238.747C1103.73 239.275 1104.02 239.787 1104.3 240.297C1104.7 241.025 1105.1 241.75 1105.42 242.518C1106.03 243.979 1106.31 245.542 1106.59 247.113L1106.64 247.425C1107.75 253.66 1109.19 259.83 1110.93 265.933C1111.24 267.013 1111.56 268.09 1111.88 269.167L1111.88 269.182C1113.07 273.221 1114.27 277.255 1114.88 281.429C1115.04 282.526 1115.15 283.648 1114.9 284.725C1114.77 285.276 1114.55 285.815 1114.33 286.352C1113.9 287.389 1113.47 288.415 1113.74 289.487C1113.88 290.009 1114.18 290.493 1114.47 290.97C1114.92 291.702 1115.36 292.418 1115.19 293.234C1115.09 293.811 1114.68 294.279 1114.3 294.72L1114.22 294.82C1113.15 296.047 1112.24 297.908 1113.21 299.235C1113.57 299.723 1114.1 300.019 1114.62 300.312C1114.73 300.373 1114.84 300.435 1114.94 300.498C1115.01 300.535 1115.07 300.572 1115.13 300.609C1118.37 302.73 1120.48 308.579 1120.11 312.263C1120.09 312.371 1120.08 312.478 1120.07 312.586C1120.06 312.666 1120.05 312.746 1120.03 312.826C1119.94 313.538 1119.84 314.256 1120 314.954C1120.18 315.67 1120.61 316.318 1121.07 316.94C1126.11 324.022 1131.63 330.775 1137.61 337.114C1139.03 338.627 1140.64 340.204 1142.67 340.522C1143.85 340.723 1145.04 340.48 1146.22 340.237C1146.84 340.109 1147.47 339.981 1148.09 339.918C1149.98 339.739 1151.92 340.134 1153.53 341.085C1154.73 341.77 1155.72 342.712 1156.71 343.658C1157.1 344.029 1157.49 344.401 1157.89 344.758C1161.66 348.155 1166.3 350.455 1170.94 352.752C1176.41 355.46 1181.87 358.166 1185.89 362.666C1186.09 362.889 1186.28 363.117 1186.48 363.345C1187.1 364.076 1187.72 364.81 1188.45 365.407C1189.76 366.461 1191.47 366.957 1193.15 367.446C1195.96 368.26 1198.68 369.051 1199.3 372.367C1200.64 379.613 1200.66 387.018 1200.69 394.419L1200.69 394.421C1200.69 394.958 1200.69 395.495 1200.7 396.032C1200.7 396.652 1200.7 397.273 1200.71 397.894C1200.72 398.684 1200.79 399.586 1201.39 400.078C1202.12 400.686 1203.31 400.309 1203.92 399.577C1204.52 398.854 1204.68 397.87 1204.84 396.935L1204.84 396.9C1204.86 396.746 1204.89 396.594 1204.91 396.444C1204.93 396.323 1204.95 396.203 1204.96 396.084L1205 395.824C1205.43 392.976 1205.77 390.637 1207.42 388.124C1207.58 387.887 1207.73 387.648 1207.89 387.407C1209.53 384.915 1211.3 382.221 1210.51 379.128C1210.21 377.928 1209.48 376.922 1208.75 375.914C1208.21 375.163 1207.66 374.411 1207.3 373.579C1206.38 371.483 1206.58 369.13 1206.77 366.849C1206.78 366.706 1206.8 366.563 1206.81 366.421C1207.08 363.194 1207.16 359.931 1207.04 356.685C1206.94 354.366 1206.76 351.988 1205.83 349.846C1204.3 346.35 1201.14 344.037 1197.99 341.737C1197.01 341.016 1196.03 340.296 1195.09 339.542C1192.53 337.482 1190.3 334.541 1189.84 331.196C1189.62 329.561 1189.94 327.903 1190.26 326.25L1190.26 326.249C1190.68 324.051 1191.1 321.863 1190.24 319.753C1189.71 318.425 1188.66 317.391 1187.64 316.376L1187.63 316.37L1187.63 316.364C1187.5 316.237 1187.37 316.111 1187.25 315.984C1182.27 310.947 1178.72 304.509 1177.1 297.623C1176.91 296.809 1176.75 295.988 1176.59 295.167L1176.59 295.165C1176.13 292.818 1175.67 290.474 1174.64 288.326C1173.94 286.854 1172.98 285.499 1172.02 284.149L1172.02 284.148C1170.54 282.046 1169.06 279.957 1168.57 277.462C1168.4 276.617 1168.36 275.754 1168.32 274.89C1168.27 273.899 1168.22 272.905 1167.99 271.934C1167.02 267.83 1163.39 265.545 1159.66 263.205C1157.33 261.743 1154.97 260.26 1153.2 258.299C1152.07 257.051 1151.2 255.617 1150.32 254.182C1149.67 253.126 1149.03 252.069 1148.28 251.086C1147.33 249.841 1145.76 248.62 1144.37 249.286C1143.07 249.906 1143.07 251.407 1143.06 252.976C1143.06 254.342 1143.06 255.76 1142.2 256.694C1140.71 258.336 1138.02 257.114 1136.2 255.853C1134.91 254.946 1133.54 253.98 1132.8 252.581C1132.13 251.304 1132.05 249.851 1131.96 248.387C1131.9 247.288 1131.84 246.183 1131.53 245.141C1130.74 242.38 1128.45 240.563 1126.13 238.72C1124.51 237.428 1122.86 236.124 1121.71 234.473C1118.74 230.188 1119.85 223.627 1124.06 220.594C1124.19 220.5 1124.33 220.409 1124.46 220.318C1124.99 219.962 1125.53 219.602 1125.9 219.079C1127.14 217.406 1126.17 215.354 1125.2 213.286C1124.24 211.262 1123.28 209.224 1124.38 207.514C1124.97 206.781 1125.82 207.368 1126.7 207.981C1127.11 208.266 1127.53 208.557 1127.94 208.724C1129.94 209.504 1131.61 206.591 1131 204.519C1130.68 203.427 1130.06 202.472 1129.44 201.517C1128.89 200.659 1128.33 199.8 1127.99 198.843C1126.9 195.577 1128.62 192.095 1130.3 189.074L1136.39 178.184C1136.76 177.52 1137.19 177.756 1137.74 178.067C1138.08 178.252 1138.46 178.463 1138.9 178.526C1139.25 178.574 1139.6 178.65 1139.95 178.725C1140.81 178.912 1141.66 179.097 1142.5 178.867C1144.77 178.243 1145.23 175.026 1144.21 172.907C1143.71 171.845 1143 170.906 1142.29 169.968C1141.56 169.01 1140.84 168.054 1140.34 166.971C1139.51 165.147 1139.39 163.091 1139.28 161.086L1139.27 161.037C1138.35 146.643 1135.76 132.357 1131.51 118.561C1130.56 115.383 1129.28 111.998 1126.42 110.332C1125.2 109.619 1123.49 108.581 1124.12 107.333C1124.37 106.811 1124.97 106.591 1125.52 106.388L1125.64 106.346C1128.16 105.49 1130.56 104.193 1132.66 102.554C1136.31 99.7118 1139.14 94.2426 1136.24 90.6689C1134.24 88.2014 1130.55 87.992 1127.49 88.7667C1126.33 89.0534 1125.18 89.4527 1124.04 89.8522C1122.2 90.4962 1120.35 91.141 1118.43 91.3149C1116.6 91.4747 1114.72 91.221 1112.85 90.9695C1109.84 90.5641 1106.87 90.1645 1104.24 91.5131C1102.41 92.4291 1100.66 93.9095 1098.96 95.3449C1098.04 96.1236 1097.13 96.889 1096.24 97.5439C1095.76 97.9014 1095.25 98.2847 1094.92 98.786C1094.45 99.6065 1094.45 100.587 1094.49 101.542C1094.51 103.803 1094.45 106.168 1093.48 108.244C1093.29 108.671 1092.97 109.118 1092.5 109.203C1091.82 109.306 1091.34 108.547 1091.07 107.908C1089.85 104.989 1088.94 101.922 1088.39 98.8175C1088.22 97.8833 1088.1 96.9247 1088.31 96.0092C1088.65 94.6103 1089.76 93.5489 1090.79 92.5922C1091.54 91.9018 1092.36 91.2607 1093.17 90.6218C1096.02 88.3907 1098.83 86.1863 1098.55 82.0028C1098.45 80.2279 1097.66 78.5826 1096.87 76.9915C1094.94 73.0573 1092.57 68.7201 1088.35 67.5319C1087.36 67.2402 1086.34 67.15 1085.32 67.0601C1084.51 66.9889 1083.7 66.9178 1082.92 66.7465C1081.14 66.3322 1079.3 65.1248 1079.09 63.3174C1078.74 60.4414 1082.44 58.8542 1085.35 58.8889C1085.75 58.8935 1086.16 58.9066 1086.58 58.9198C1089.15 59.0014 1091.91 59.0889 1093.57 57.2253C1094.54 56.153 1094.85 54.7241 1095.16 53.2898C1095.32 52.563 1095.48 51.8348 1095.72 51.1509C1097.39 46.468 1102.42 44.7562 1107.47 43.0382C1112.43 41.3501 1117.41 39.6559 1119.24 35.1312C1121.17 30.3525 1118.27 25.0093 1114.78 21.216C1113.95 20.3072 1113.06 19.4229 1112.17 18.5363L1112.17 18.5353L1112.17 18.5331C1109.38 15.748 1106.57 12.9405 1105.22 9.28149C1104.98 8.63466 1104.76 7.94189 1104.54 7.24068C1103.64 4.36408 1102.69 1.34498 1099.92 0.77035C1095.94 -0.106981 1092.56 3.26582 1089.87 6.34619C1085.46 11.3561 1081.05 16.3931 1076.66 21.4315C1076.09 22.0566 1075.48 22.789 1075.38 23.6283C1075.13 25.9574 1078.38 26.9072 1080.66 26.4752C1080.9 26.4326 1081.15 26.386 1081.4 26.3388C1083.54 25.9388 1085.92 25.4941 1087.3 27.0479C1088.26 29.709 1085.53 32.4879 1082.74 32.7586C1079.96 33.0016 1077.34 31.6003 1074.88 30.2836L1074.86 30.2733C1072.4 28.9264 1069.69 27.5947 1066.92 27.9754C1063.74 28.427 1061.44 30.9939 1059.23 33.4587L1059.23 33.462L1059.22 33.4641C1058.87 33.865 1058.51 34.2632 1058.15 34.649C1054.9 38.1601 1050.94 40.9242 1047 43.6779L1046.81 43.8095C1038.91 49.3554 1031.02 54.8742 1023.1 60.3916C1020.28 62.3761 1017.43 64.3865 1015.15 66.9696C1013.08 69.277 1011.54 72.0317 1010.02 74.768L1009.94 74.9079C1009.38 75.9238 1008.84 76.9945 1008.29 78.0817L1008.29 78.0834L1008.29 78.0847C1006.43 81.7623 1004.48 85.6297 1001.39 88.2084C1000.3 89.1264 998.942 89.8246 997.57 90.5287C995.214 91.7384 992.824 92.9656 991.726 95.3552C991.513 95.8076 991.378 96.3182 991.464 96.7853C991.524 97.2239 991.777 97.6176 992.06 97.9582C993.898 100.206 996.773 100.808 999.702 101.421C1001.76 101.852 1003.85 102.289 1005.63 103.311C1006.78 103.961 1007.75 104.848 1008.73 105.739C1009.05 106.034 1009.38 106.329 1009.71 106.616L1009.77 106.666L1009.87 106.756C1010.58 107.379 1011.35 108.045 1011.61 108.969C1012.17 110.876 1010.36 112.665 1008.51 113.336C1007.75 113.599 1006.95 113.756 1006.16 113.912C1005.01 114.138 1003.87 114.364 1002.85 114.908C1002.12 115.293 1001.48 115.818 1000.85 116.34C1000.43 116.696 999.998 117.051 999.542 117.359C998.414 118.147 996.893 118.617 995.67 118.039C993.649 117.068 993.819 114.163 994.361 112.012C994.931 109.835 995.367 107.079 993.553 105.764C991.608 104.362 988.939 106.027 987.353 107.827C986.804 108.481 986.281 109.136 985.997 109.938C985.55 111.278 985.856 112.79 986.196 114.169C988.242 122.928 988.163 124.53 981.368 130.375C977.815 133.413 975.928 138.003 974.804 142.576L974.696 143.024C973.314 148.75 971.548 156.066 964.12 156.071C962.161 156.056 960.603 155.08 959.224 153.787C959.04 153.62 958.899 153.441 958.759 153.263C958.562 153.012 958.367 152.765 958.059 152.559C957.815 152.385 957.514 152.306 957.213 152.227C956.704 152.094 956.195 151.96 955.967 151.367C955.63 150.479 956.625 149.629 957.517 149.21C958.381 148.79 959.444 148.216 959.384 147.233C959.308 146.004 957.66 145.76 956.457 145.864C952.928 146.207 949.465 146.88 946.001 147.553L945.907 147.572C943.958 147.958 941.962 148.354 940.353 149.48C939.073 150.392 938.137 151.682 937.206 152.965L937.203 152.97L937.201 152.972C936.964 153.299 936.727 153.625 936.485 153.945C934.56 156.545 932.242 158.827 929.9 161.053C928.987 161.906 928.044 162.813 927.606 163.962C927.071 165.319 927.29 166.788 927.509 168.254C927.583 168.751 927.657 169.247 927.702 169.739C927.879 171.654 927.299 174.048 925.447 174.61C925.147 174.698 924.833 174.731 924.52 174.763C924.169 174.8 923.82 174.836 923.497 174.95C922.125 175.382 921.484 176.84 920.89 178.19L920.886 178.199C920.835 178.315 920.785 178.43 920.734 178.543C920.093 179.955 918.766 181.468 917.261 181.067C916.149 180.764 915.707 179.644 915.253 178.494C914.862 177.504 914.462 176.492 913.62 175.96C912.617 175.311 911.326 175.547 910.22 175.901C908.478 176.441 906.545 177.544 906.429 179.362C906.408 179.773 906.485 180.175 906.562 180.573C906.637 180.965 906.711 181.354 906.692 181.744C906.653 182.532 905.929 183.422 905.208 183.141C904.791 182.979 904.598 182.558 904.403 182.134L904.402 182.133C904.335 181.986 904.267 181.839 904.19 181.702C903.282 180.242 901.096 180.406 899.461 180.979C899.297 181.034 899.13 181.091 898.962 181.149L898.956 181.151L898.954 181.152C897.456 181.668 895.838 182.225 894.48 181.523C894.294 181.432 894.163 181.316 894.034 181.174C893.627 180.609 894.099 179.87 894.533 179.347C895.462 178.168 896.452 176.855 896.39 175.355C896.328 173.854 894.629 172.436 893.338 173.217C892.4 173.799 891.512 174.313 890.652 174.811C888.758 175.908 886.995 176.929 885.104 178.446C883.828 179.472 882.603 180.583 881.931 182.047C880.737 184.738 881.016 188.455 881.859 191.246C882.77 194.286 883.147 197.136 882.823 200.388C882.721 201.363 882.305 202.622 881.296 202.654C880.86 202.659 880.463 202.422 880.124 202.133C878.67 200.863 878.24 198.873 877.828 196.965L877.772 196.702C877.744 196.575 877.716 196.448 877.688 196.322C877.198 194.12 876.515 191.963 875.609 189.903C875.536 189.736 875.435 189.568 875.303 189.48C874.907 189.242 874.422 189.681 874.291 190.138C874.266 190.204 874.244 190.274 874.223 190.345C874.213 190.378 874.203 190.411 874.193 190.445C874.09 190.797 873.983 191.159 873.66 191.332C873.074 191.63 872.45 191.027 872.095 190.492C870.876 188.717 869.398 186.683 867.276 186.66C865.869 186.667 864.745 187.555 863.605 188.456C862.714 189.16 861.813 189.872 860.759 190.178C859.768 190.483 858.723 190.395 857.677 190.308C856.71 190.227 855.741 190.146 854.815 190.375C853.601 190.696 852.582 191.49 851.694 192.372C850.553 193.432 849.481 194.74 849.433 196.263C849.397 197.244 849.773 198.21 850.144 199.16C850.624 200.392 851.094 201.598 850.637 202.775C850.311 203.629 849.591 204.214 848.874 204.796L848.873 204.797C848.559 205.052 848.245 205.307 847.966 205.583C845.759 207.843 848.127 210.057 850.055 211.241L858.059 216.21C858.957 216.771 859.957 217.474 860.041 218.513C860.133 219.961 858.4 220.883 856.934 220.81C856.29 220.778 855.653 220.633 855.016 220.487C854.226 220.307 853.437 220.127 852.637 220.163C851.191 220.227 849.601 221.565 850.132 222.925C851.001 225.239 847.777 226.37 845.004 227.343C844.32 227.584 843.662 227.814 843.101 228.051C840.237 229.271 836.962 231.097 836.727 234.189C836.692 234.713 836.75 235.259 836.807 235.804C836.918 236.868 837.029 237.923 836.446 238.777C835.623 240.016 833.742 240.059 832.387 239.393C831.499 238.949 830.757 238.281 830.01 237.61C829.639 237.276 829.266 236.942 828.875 236.633C827.172 235.297 825.06 234.512 822.889 234.378C822.293 234.321 821.554 234.393 821.256 234.923C821.048 235.267 821.081 235.704 821.116 236.087C821.553 239.603 822.589 243.001 823.624 246.397C824.622 249.67 825.619 252.941 826.08 256.317C826.219 257.358 826.182 258.663 825.259 259.162C824.093 259.8 823.236 258.664 822.323 257.454C821.484 256.342 820.598 255.168 819.381 255.251C818.938 255.263 818.528 255.469 818.12 255.673C817.876 255.795 817.633 255.917 817.385 255.997C816.058 256.394 814.68 255.645 813.515 254.962C811.401 253.686 809.284 252.439 807.168 251.191C806.216 250.626 805.239 250.006 804.77 249.03C804.312 248.073 804.423 246.98 804.529 245.94L804.541 245.826L804.553 245.698C804.937 241.796 804.34 237.329 801.159 235.048C800.643 234.685 800.072 234.382 799.504 234.082C798.333 233.461 797.173 232.847 796.532 231.716C796.161 231.084 796.023 230.356 795.887 229.635C795.83 229.331 795.773 229.028 795.699 228.734C794.956 225.594 792.305 223.04 789.18 222.368C786.054 221.724 782.587 223.023 780.663 225.596C780.547 225.751 780.434 225.912 780.32 226.075L780.319 226.078C779.891 226.689 779.453 227.317 778.794 227.628C777.595 228.195 776.129 227.551 775.166 226.659C774.787 226.317 774.441 225.937 774.097 225.558C773.543 224.948 772.991 224.341 772.308 223.904C766.902 220.343 760.688 228.776 763.249 233.695C763.677 234.519 764.343 235.191 765.009 235.863C765.698 236.558 766.387 237.253 766.815 238.118C767.609 239.682 767.463 241.526 767.296 243.261C767.288 243.321 767.28 243.382 767.272 243.443C767.198 244.003 767.124 244.558 766.855 245.036C766.232 246.067 764.856 246.38 763.667 246.185C762.887 246.057 762.161 245.768 761.429 245.475C761.047 245.323 760.662 245.169 760.267 245.037C757.965 244.243 755.377 244.279 753.1 245.174C752.447 245.423 751.823 245.734 751.201 246.044C750.318 246.484 749.438 246.922 748.482 247.179C745.504 247.948 742.598 246.756 739.652 245.547C737.17 244.528 734.659 243.498 732.052 243.618C728.205 243.782 724.944 246.426 722.12 249.036L722.001 249.145C721.043 250.014 720.075 250.891 718.901 251.382C716.666 252.294 714.048 251.29 711.597 250.35C710.393 249.889 709.229 249.442 708.172 249.247C700.686 247.834 695.062 256.989 691 263.601L690.999 263.603C690.188 264.924 689.438 266.143 688.749 267.157C685.667 271.688 681.425 275.998 676.003 276.656C675.456 276.711 674.883 276.737 674.376 276.522C672.511 275.694 673.385 272.879 674.503 271.191C684.289 256.59 694.812 242.489 706.042 228.966C708.443 226.09 710.982 222.077 708.96 218.927C708.68 218.484 708.328 218.097 707.979 217.712C707.508 217.194 707.042 216.681 706.761 216.042C706.316 215.052 706.406 213.96 706.497 212.864C706.531 212.448 706.565 212.033 706.571 211.622C706.612 206.369 701.879 202.432 697.502 199.548C694.946 197.843 692.143 196.153 689.087 196.301C687.824 196.347 686.604 196.717 685.389 197.086C684.768 197.274 684.148 197.462 683.524 197.606C677.409 199.047 671.129 196.668 665.311 194.311C665.016 193.542 665.516 192.793 666 192.07C666.11 191.907 666.218 191.745 666.316 191.584C668.515 187.853 663.773 182.991 659.513 183.815C655.251 184.667 652.56 188.999 651.642 193.256C651.169 195.439 651.042 197.675 650.914 199.914C650.794 202.013 650.675 204.114 650.27 206.176C650.048 207.363 649.716 208.571 648.909 209.485C647.143 211.534 644.063 211.274 641.291 211.04C641.026 211.018 640.763 210.996 640.505 210.976C632.234 210.323 624.121 213.652 616.946 217.818C614.377 219.304 611.874 220.904 609.374 222.502C604.868 225.384 600.368 228.261 595.497 230.455C594.301 230.993 593.067 231.505 591.828 232.018C586.292 234.312 580.64 236.654 577.656 241.691C576.143 244.203 575.57 247.551 577.221 249.946C577.577 250.481 578.661 251.091 579.808 251.737C581.683 252.792 583.73 253.945 583.069 255.027C582.301 256.241 580.581 256.347 579.113 256.302C576.146 256.224 573.173 256.139 570.197 256.054C567.281 255.971 564.362 255.888 561.442 255.811C558.696 255.73 555.868 255.672 553.29 256.607C550.711 257.569 548.397 259.769 548.179 262.535C548.098 263.638 548.357 264.724 548.617 265.813C548.887 266.948 549.159 268.087 549.046 269.249C548.973 270.107 548.684 270.929 548.393 271.754C548.171 272.388 547.947 273.025 547.82 273.681C547.067 277.346 549.258 280.94 551.676 283.809C552.045 284.242 552.424 284.674 552.805 285.108L552.806 285.11C554.921 287.52 557.087 289.988 557.834 293.07C558.128 294.283 558.168 295.673 557.386 296.642C555.962 298.451 552.983 297.596 551.317 296.043C549.408 294.266 548.249 291.9 547.09 289.534C545.943 287.192 544.795 284.849 542.919 283.077C541.439 281.64 539.567 280.683 537.714 279.735L537.614 279.684C537.134 279.442 536.654 279.2 536.174 278.958L535.123 278.427C532.429 277.067 529.744 275.712 527.042 274.371C523.481 274.821 521.618 278.922 521.577 282.514C521.55 284.744 522.075 286.919 522.599 289.094C522.926 290.448 523.253 291.803 523.446 293.171C523.59 294.131 523.619 295.194 523.087 296.039C522.055 297.649 519.487 297.277 518.024 296.034C514.396 292.86 515.392 287.028 517.164 282.569C517.261 282.323 517.36 282.076 517.46 281.827C519.169 277.557 521.058 272.834 519.126 268.725C518.731 267.916 518.118 267.097 517.259 266.836C515.918 266.443 514.559 267.493 513.9 268.713C513.551 269.402 513.331 270.138 513.112 270.876L513.112 270.877C512.934 271.475 512.756 272.073 512.508 272.646C511.434 275.14 509.107 276.742 506.787 278.338C505.188 279.439 503.593 280.537 502.413 281.923C501.749 282.707 501.19 283.55 500.867 284.569C500.036 287.141 500.828 289.783 501.631 292.455C502.099 294.014 502.57 295.585 502.723 297.158C503.156 301.506 501.178 305.499 499.185 309.521C497.404 313.118 495.611 316.738 495.521 320.653C495.454 323.42 496.257 326.092 497.061 328.768C497.813 331.274 498.567 333.784 498.61 336.38C498.67 340.685 496.754 344.756 494.716 348.549C491.99 353.587 488.66 358.732 483.499 361.255C481.596 362.191 479.525 362.716 477.446 363.244C475.898 363.637 474.345 364.03 472.853 364.596C469.385 365.922 465.954 368.693 465.798 372.416C464.796 372.856 463.767 373.296 462.767 373.709C459.639 372.003 459.351 367.36 461.163 364.291C462.82 361.484 465.659 359.669 468.412 357.909C468.552 357.819 468.691 357.73 468.83 357.641C468.947 357.566 469.063 357.492 469.179 357.417C472.581 355.216 475.886 352.793 478.981 350.196C482.53 347.24 486.088 343.549 486.289 338.93C486.379 337.088 485.909 335.295 485.436 333.494C485.114 332.267 484.791 331.036 484.644 329.782C484.281 326.661 485.006 323.538 485.728 320.497C486.582 316.952 487.429 313.414 488.276 309.875L488.279 309.863C489.129 306.315 489.978 302.767 490.834 299.212C492.136 293.804 493.467 288.343 496.132 283.437C496.551 282.668 497.197 281.72 497.955 280.695C498.422 280.056 498.934 279.376 499.471 278.664L499.476 278.657C503.835 272.87 509.77 264.991 505.722 260.114C504.822 259.022 503.5 258.432 502.18 257.843C500.823 257.239 499.468 256.634 498.573 255.486C498.131 254.917 497.833 254.24 497.536 253.566C497.111 252.6 496.689 251.642 495.853 251.023C493.962 249.623 491.092 250.952 489.877 252.961C489.029 254.362 488.687 255.987 488.344 257.617C488.195 258.324 488.046 259.032 487.855 259.722C485.737 267.35 478.704 272.503 471.767 276.272C471.422 276.457 471.077 276.64 470.731 276.824C468.326 278.101 465.915 279.381 463.877 281.138C461.517 283.172 459.611 285.937 459.431 289.032C459.3 290.884 459.785 292.708 460.27 294.531C460.779 296.446 461.288 298.361 461.08 300.304C460.963 301.36 460.641 302.376 460.32 303.393C460.106 304.071 459.892 304.748 459.738 305.438C459.122 308.23 459.622 310.928 460.122 313.63C460.477 315.541 460.831 317.453 460.791 319.403C460.688 323.7 459.906 328.507 458.534 332.605C458.245 333.49 457.565 334.572 456.653 334.31C456.062 334.144 455.794 333.505 455.605 332.924C454.517 329.603 454.009 326.093 454.072 322.611C454.093 321.73 454.148 320.837 454.203 319.943L454.203 319.939C454.409 316.61 454.616 313.256 453.042 310.389C452.015 308.569 450.396 307.182 448.802 305.824C447.629 304.84 446.456 303.857 445.284 302.875C440.426 298.803 435.582 294.743 430.739 290.666C427.681 288.092 424.399 285.098 424.051 281.106C423.983 280.315 424.038 279.502 424.093 278.691C424.191 277.232 424.289 275.779 423.671 274.471C422.637 272.242 419.579 271.329 417.376 272.391C415.144 273.478 413.951 276.142 414.321 278.584C414.454 279.502 414.791 280.373 415.131 281.25C415.258 281.577 415.385 281.905 415.502 282.236C417.085 286.562 417.91 294.661 414.642 298.557C413.889 299.455 412.751 300.208 411.614 300.961C410.697 301.568 409.781 302.174 409.067 302.856C407.268 304.564 405.339 306.13 403.335 307.583L403.311 307.599C402.839 307.925 402.338 308.27 401.747 308.321C401.172 308.375 400.509 308.015 400.429 307.44C400.367 307.028 400.576 306.657 400.811 306.315C401.838 304.657 403.021 303.119 404.199 301.586C404.955 300.603 405.708 299.622 406.418 298.614C406.68 298.273 409.33 291.461 407.337 292.125C404.015 293.241 400.363 293.333 396.977 292.431C395.598 292.054 394.235 291.51 392.875 290.968C389.918 289.789 386.974 288.615 383.907 289.172C383.488 289.248 383.052 289.353 382.612 289.46C380.95 289.861 379.221 290.279 378.025 289.209C376.695 288.027 377.077 285.813 378.022 284.307C378.375 283.745 378.795 283.221 379.213 282.698C379.915 281.82 380.614 280.946 380.989 279.907C381.588 278.248 380.861 275.871 379.072 275.728C377.402 273.638 375.761 274.397 373.686 275.357C372.639 275.841 371.481 276.377 370.153 276.622C363.91 277.824 357.675 276.445 351.4 275.058C347.261 274.143 343.103 273.224 338.914 273.039C336.74 272.959 334.418 273.117 332.666 274.419C332 274.916 331.432 275.575 330.868 276.229C329.926 277.321 328.997 278.4 327.637 278.69C325.161 279.222 322.875 276.441 323.217 273.925C323.533 271.382 325.67 269.445 327.982 268.388C329.429 267.752 330.959 267.359 332.485 266.967L332.487 266.967C333.425 266.726 334.362 266.486 335.278 266.189C336.217 265.909 337.162 265.52 337.744 264.759C338.468 263.869 338.556 262.648 338.612 261.507L338.947 254.717C339.06 252.98 339.101 251.049 338.026 249.662C337.079 248.444 335.496 247.958 333.984 247.72C327.797 246.761 321.663 249.154 315.885 251.483C314.997 251.82 314.107 252.212 313.448 252.887C312.757 253.642 312.433 254.688 312.221 255.685C311.927 257.089 311.769 258.525 311.612 259.96C311.349 262.355 311.087 264.746 310.194 266.966C308.741 270.488 304.699 273.502 301.21 271.941C299.547 271.214 298.459 269.681 297.376 268.154C296.22 266.525 295.069 264.903 293.23 264.278C291.611 263.715 289.925 264.095 288.212 264.481C287.122 264.727 286.021 264.975 284.92 264.984C283.575 264.998 282.263 264.644 280.955 264.291C280.488 264.165 280.022 264.039 279.554 263.93C279.442 263.904 279.328 263.878 279.213 263.852L279.181 263.844L279.179 263.844C278.37 263.658 277.509 263.46 276.644 263.323C273.543 262.735 270.286 262.519 268.092 264.508C266.24 266.186 266.018 269.034 266.359 271.501C266.447 272.151 266.563 272.8 266.68 273.449C267.009 275.29 267.337 277.123 267.026 278.94C266.792 280.371 265.707 281.951 264.308 281.61C263.662 281.469 263.198 280.929 262.761 280.418C259.184 276.211 256.29 271.985 253.894 267.02C253.632 266.482 253.391 266.005 253.173 265.573C251.538 262.336 251.216 261.699 253.46 257.605C254.238 256.173 254.194 254.32 253.365 252.918C247.371 253.003 242.211 258.82 242.331 264.68C242.357 265.533 242.472 266.383 242.586 267.23C242.789 268.738 242.991 270.237 242.691 271.722C242.224 274.013 239.641 276.146 237.604 274.956C236.228 274.153 235.936 272.342 235.77 270.754C235.185 265.498 234.633 260.134 235.759 254.962C236.886 249.79 239.992 244.77 244.857 242.723C245.194 242.582 245.539 242.455 245.885 242.327C246.853 241.97 247.825 241.611 248.619 240.949C249.584 240.152 250.159 238.982 250.571 237.805C252.001 233.784 251.862 229.447 251.724 225.117C251.578 220.543 251.432 215.975 253.134 211.793C254.142 211.789 254.884 212.751 255.301 213.67C256.739 216.755 256.832 220.185 256.926 223.635C256.985 225.795 257.043 227.962 257.433 230.057C258.532 235.911 262.123 240.934 265.616 245.735C267.628 248.53 269.668 251.326 271.708 254.122C272.498 255.223 273.339 256.381 274.5 257.119C275.397 257.707 276.444 258.004 277.526 258.139C278.391 258.264 279.289 258.281 280.16 258.269C284.625 258.272 289.199 257.708 293.191 255.699C297.183 253.691 300.522 250.017 301.257 245.615C301.905 241.79 300.607 238.106 299.298 234.39C298.436 231.943 297.568 229.482 297.25 226.957C296.884 224.1 297.228 221.207 297.57 218.323C297.964 215.011 298.356 211.712 297.671 208.491C296.87 204.808 294.784 201.649 292.689 198.476C291.011 195.935 289.327 193.385 288.293 190.548C287.684 188.867 287.3 187.072 286.917 185.283C286.169 181.792 285.427 178.325 283.033 175.777C281.583 174.262 279.7 173.244 277.747 172.548C272.533 170.665 268.469 171.667 263.512 172.89L263.51 172.891L263.508 172.891C262.49 173.142 261.435 173.403 260.325 173.649C255.595 174.717 253.798 179.406 251.944 184.244C250.928 186.896 249.894 189.593 248.351 191.763C246.041 194.998 242.482 197.055 239.036 199.036C235.225 201.201 230.669 202.768 226.124 204.33C220.414 206.294 214.722 208.251 210.55 211.38C207.424 213.732 205.837 217.349 204.236 220.997C203.333 223.057 202.424 225.127 201.232 226.985C200.665 227.855 200.043 228.683 199.422 229.51C198.687 230.487 197.953 231.464 197.312 232.509C193.309 239.145 194.121 247.517 195.047 255.24C194.931 255.257 194.81 255.273 194.686 255.291C194.537 255.312 194.381 255.334 194.222 255.357C192.37 255.621 189.934 255.968 188.291 255.887L138.404 253.426C138.719 256.14 137.451 258.906 136.182 261.676C134.992 264.272 133.801 266.87 133.911 269.432C133.985 271.194 134.455 272.762 134.905 274.265C135.674 276.832 136.387 279.213 134.976 282.063C131.401 277.285 122.539 274.806 117.695 279.196C116.995 279.83 116.385 280.582 115.778 281.331C114.703 282.657 113.636 283.973 112.092 284.61C110.75 285.141 109.292 285.069 107.828 284.996C107.292 284.97 106.755 284.943 106.222 284.946C95.1943 285.001 90.8637 296.631 89.2279 305.508C88.6943 308.448 88.2745 311.432 87.8545 314.418C86.5972 323.358 85.3373 332.316 81.0126 340.144C79.5896 342.704 77.8454 345.131 76.106 347.552C72.5869 352.45 69.0872 357.321 68.305 363.204C68.0073 365.492 68.1447 367.791 68.2822 370.092C68.3675 371.519 68.4528 372.947 68.4345 374.374C68.3605 379.891 66.743 385.187 65.1201 390.5C63.8457 394.672 62.5681 398.855 62.0322 403.164C60.5018 415.422 65.0773 427.519 69.5996 439.041C72.0504 445.329 74.5178 451.601 76.9885 457.882C77.7577 459.837 78.5273 461.794 79.2968 463.752C78.1873 465.288 75.7311 465.889 73.2771 466.489C70.8193 467.09 68.3638 467.69 67.2662 469.23C66.2411 470.655 66.1488 472.455 66.058 474.225C66.0349 474.675 66.0119 475.124 65.9736 475.564C65.5315 480.661 61.482 486.043 56.4237 485.385C55.2739 485.232 54.1863 484.778 53.0958 484.323C52.3396 484.007 51.582 483.691 50.8012 483.474C46.8551 482.346 42.9522 483.767 38.987 485.21C36.5862 486.084 34.1625 486.966 31.6925 487.296C30.9777 487.393 30.2315 487.455 29.4795 487.517C26.6854 487.748 23.8109 487.986 22.1626 490.093C21.8547 490.498 21.6123 490.948 21.3716 491.394C21.0204 492.044 20.673 492.688 20.1319 493.178C18.1748 494.969 15.6247 493.783 12.9923 492.559C11.7132 491.964 10.4148 491.361 9.15541 491.085C5.84324 490.35 2.17444 492.428 1.06448 495.614C0.175431 498.184 0.853453 500.994 1.54085 503.615C2.08665 505.782 2.78564 507.999 3.48909 510.23C4.57524 513.675 5.67215 517.154 6.23225 520.536C6.57018 522.611 6.50768 524.821 6.44477 527.045C6.32877 531.146 6.21143 535.295 8.60127 538.732C10.2606 541.112 12.85 542.446 15.464 543.791C17.2153 544.693 18.9783 545.601 20.4792 546.833C24.8062 550.4 26.2972 555.992 27.7932 561.603C29.2366 567.017 30.6846 572.448 34.6887 576.095C36.6303 577.862 39.0882 579.119 41.5161 580.361C45.3758 582.335 49.1597 584.27 50.6725 588.155C51.5049 590.267 51.456 592.603 51.4082 594.884C51.4032 595.122 51.3982 595.36 51.3943 595.597C51.2305 605.019 53.7346 612.35 56.2835 619.812C58.1132 625.168 59.9659 630.591 60.8716 636.905L60.9065 637.164C61.1133 638.705 61.3299 640.317 62.2473 641.574C63.2177 642.874 65.3091 643.522 66.5073 642.411C67.055 641.867 67.2757 641.081 67.4848 640.337C67.5052 640.264 67.5254 640.192 67.5459 640.12C68.463 636.822 70.782 634.59 73.0008 632.454C74.8658 630.659 76.6599 628.932 77.4913 626.698C78.639 623.651 77.899 620.575 77.1571 617.49C76.441 614.512 75.723 611.527 76.6987 608.553C77.6157 605.777 79.5133 603.272 81.3736 600.815C84.2528 597.014 87.0428 593.33 85.9692 588.944C85.7074 587.904 85.2344 586.933 84.7633 585.967C84.2108 584.834 83.661 583.706 83.4571 582.476C83.0524 580.196 84.8849 577.265 87.0823 577.972C90.2295 575.624 93.5773 575.687 96.9582 575.75C100.196 575.811 103.464 575.873 106.616 573.817C108.027 572.905 109.249 571.644 110.459 570.395C112.504 568.286 114.514 566.211 117.351 565.906C121.511 565.44 124.957 567.672 128.364 569.879Z" fill="#9E9E9E" fill-opacity="0.6"/>
<path d="M858.569 142.422C861.381 140.056 861.116 135.496 859.369 132.279C858.995 131.58 858.46 130.846 857.676 130.725C856.918 130.633 856.237 131.199 855.667 131.715C855.586 131.789 855.504 131.863 855.423 131.937L855.336 132.016L855.247 132.097L855.237 132.106C853.289 133.881 851.251 135.739 848.664 136.271C847.195 136.564 845.445 136.384 843.659 136.201C839.996 135.825 836.178 135.433 834.315 139.075C832.389 142.792 835.88 151.486 840.203 152.162C842.23 152.453 844.143 151.213 845.575 149.759C846.003 149.341 846.41 148.899 846.817 148.458C847.8 147.393 848.779 146.331 850.026 145.622C851.211 144.941 852.568 144.619 853.916 144.3C855.595 143.901 857.262 143.506 858.569 142.422Z" fill="#9E9E9E" fill-opacity="0.6"/>
<path d="M850.807 184.396C851.773 184.167 852.739 183.939 853.63 183.51C855.219 182.744 856.559 180.959 855.96 179.323C855.552 178.213 854.44 177.56 853.348 177.07C848.365 174.891 838.644 173.295 833.704 176.292C831.04 177.875 829.748 182.005 832.012 184.104C832.617 184.674 833.407 185.035 834.189 185.393C835.258 185.881 836.313 186.363 836.86 187.365C837.218 188.021 837.271 188.776 837.324 189.535C837.352 189.942 837.38 190.35 837.456 190.744C837.644 191.896 838.563 193.14 839.692 192.869C840.188 192.757 840.561 192.367 840.906 192.003C841.459 191.412 841.992 190.79 842.527 190.168L842.529 190.166C844.3 188.105 846.077 186.036 848.573 185.03C849.292 184.754 850.049 184.575 850.807 184.396Z" fill="#9E9E9E" fill-opacity="0.6"/>
<path d="M650.234 157.791C650.223 157.943 650.208 158.098 650.193 158.255C650.103 159.188 650.009 160.169 650.63 160.806C651.382 161.561 652.561 161.327 653.638 161.115C653.706 161.101 653.773 161.088 653.84 161.075C653.919 161.059 653.998 161.044 654.076 161.03C656.793 160.593 659.723 161.908 661.102 164.29C662.455 166.671 662.074 169.974 660.128 171.893C658.726 173.289 656.801 173.886 654.907 174.474C654.442 174.618 653.98 174.762 653.527 174.916C650.372 175.958 647.432 177.61 644.93 179.774L644.857 179.836C643.939 180.618 642.936 181.472 641.747 181.387C640.04 181.221 639.22 179.084 639.575 177.413C639.828 176.319 640.415 175.337 641.002 174.356L641.003 174.353C641.296 173.863 641.589 173.373 641.841 172.869C642.086 172.377 642.368 170.677 642.732 168.485C643.801 162.041 645.576 151.349 649.192 154.636C650.053 155.386 650.318 156.652 650.234 157.791Z" fill="#9E9E9E" fill-opacity="0.6"/>
<path d="M636.486 164.183C636.401 163.539 636.312 162.872 636.38 162.172C636.467 161.455 636.265 160.925 636.064 160.4C635.84 159.815 635.619 159.236 635.803 158.413C635.93 157.844 636.523 157.196 637.137 156.526C637.714 155.897 638.308 155.249 638.549 154.628C640.846 148.915 639.141 145.4 633.489 146.292C620.042 148.46 613.21 158.932 626.75 167.006C629.367 168.578 632.858 170.112 635.267 168.189C636.849 166.916 636.675 165.609 636.486 164.183Z" fill="#9E9E9E" fill-opacity="0.6"/>
<path d="M627.445 134.15C627.638 134.574 627.94 134.925 628.24 135.274C628.551 135.635 628.861 135.996 629.047 136.434C629.655 137.908 628.62 139.572 627.398 140.628C625.916 141.896 624.091 142.757 622.282 143.612C619.683 144.838 617.115 146.051 615.633 148.433C615.491 148.656 615.355 148.893 615.218 149.132L615.216 149.134L615.215 149.137C614.668 150.089 614.101 151.076 613.068 151.329C612.129 151.582 611.146 151.098 610.417 150.436C607.547 147.898 607.72 142.734 610.749 140.378C610.915 140.249 611.09 140.128 611.264 140.006C611.714 139.691 612.165 139.375 612.481 138.939C613.265 137.847 613.006 136.418 612.76 135.058C612.721 134.846 612.683 134.635 612.649 134.427C611.62 128.795 616.008 115.453 624.235 120.868C627.135 122.781 628.194 126.7 627.562 130.126C627.524 130.327 627.481 130.53 627.438 130.734C627.193 131.901 626.94 133.105 627.445 134.15Z" fill="#9E9E9E" fill-opacity="0.6"/>
<path d="M512.823 186.27C513.331 183.137 511.06 179.513 507.928 179.549C505.874 179.586 504.268 180.975 502.659 182.367C502.048 182.895 501.436 183.425 500.799 183.88C495.113 187.966 487.665 186.287 480.621 184.699C477.386 183.97 474.236 183.26 471.38 183.137C464.045 182.829 458.878 184.943 452.91 188.923C438.78 198.363 423.538 206.205 408.353 214.017C403.268 216.633 398.189 219.246 393.161 221.915C391.735 222.661 390.28 223.461 389.187 224.659C386.766 227.371 386.855 231.65 388.435 234.941C390.043 238.206 392.832 240.712 395.572 243.107L395.608 243.138C397.059 244.399 398.581 245.721 399.274 247.538C399.819 248.922 399.813 250.419 399.806 251.926C399.803 252.625 399.8 253.326 399.853 254.019C400.091 257.461 401.75 260.81 404.331 263.116C406.785 265.252 410.731 266.372 413.255 264.319C416.082 261.987 415.176 258.108 414.277 254.255C413.957 252.885 413.638 251.519 413.488 250.226C412.771 244.337 416.208 238.68 420.572 234.648C423.13 232.3 426.015 230.351 428.9 228.403C430.936 227.028 432.971 225.653 434.893 224.137C437.223 222.293 439.379 220.257 441.537 218.218C443.368 216.489 445.2 214.759 447.141 213.143C455.318 206.331 465.345 201.734 475.855 200.047C478.892 199.551 482.009 199.275 485.125 198.998C492.908 198.308 500.683 197.619 507.184 193.507C509.853 191.841 512.316 189.376 512.823 186.27Z" fill="#9E9E9E" fill-opacity="0.6"/>
<path d="M820.57 150.622C821.73 153.065 823.088 154.229 824.619 155.541C825.464 156.265 826.361 157.034 827.307 158.088C828.414 159.367 829.231 161.014 828.987 162.663C828.621 165.095 826.233 166.611 824.005 167.618L823.954 167.64C822.911 168.099 821.799 168.588 821.266 169.606C820.696 170.66 820.957 171.851 821.222 173.06C821.444 174.073 821.669 175.098 821.41 176.066C820.982 177.57 819.411 178.527 817.849 178.722C816.288 178.917 814.73 178.486 813.227 178.058C810.622 177.331 807.807 176.457 806.256 174.229C805.702 173.436 805.356 172.519 805.012 171.609C804.867 171.225 804.723 170.842 804.563 170.47C804.156 169.543 803.634 168.637 803.114 167.734C801.884 165.598 800.661 163.474 800.968 161.117C801.316 158.493 803.791 156.328 806.429 156.377C807.162 156.38 807.879 156.53 808.597 156.679C809.079 156.779 809.561 156.88 810.05 156.937C811.269 157.051 812.67 156.794 813.347 155.765C814.177 154.563 813.626 153.128 813.062 151.662C812.551 150.333 812.03 148.978 812.517 147.747C813.199 146.065 815.562 145.637 817.181 146.479C818.801 147.294 819.78 148.976 820.57 150.622Z" fill="#9E9E9E" fill-opacity="0.6"/>
</svg>
