<svg width="90" height="114" viewBox="0 0 90 114" fill="none" xmlns="http://www.w3.org/2000/svg">
<path d="M45 19.5C39.8082 19.5 34.7331 21.0395 30.4163 23.9239C26.0995 26.8083 22.735 30.908 20.7482 35.7046C18.7614 40.5011 18.2415 45.7791 19.2544 50.8711C20.2672 55.9631 22.7673 60.6404 26.4384 64.3116C30.1096 67.9827 34.7869 70.4827 39.8789 71.4956C44.9709 72.5085 50.2489 71.9886 55.0454 70.0018C59.842 68.015 63.9417 64.6505 66.8261 60.3337C69.7105 56.0169 71.25 50.9418 71.25 45.75C71.2422 38.7905 68.4741 32.1182 63.5529 27.1971C58.6318 22.2759 51.9595 19.5078 45 19.5ZM45 43.875C46.824 43.8711 48.5867 44.5335 49.9568 45.7376C51.3269 46.9418 52.21 48.6049 52.4403 50.4143C52.6706 52.2238 52.2321 54.0551 51.2073 55.564C50.1825 57.0729 48.6419 58.1557 46.875 58.6088V60.75C46.875 61.2473 46.6775 61.7242 46.3258 62.0758C45.9742 62.4275 45.4973 62.625 45 62.625C44.5027 62.625 44.0258 62.4275 43.6742 62.0758C43.3225 61.7242 43.125 61.2473 43.125 60.75V58.6088C41.5191 58.1955 40.0956 57.2612 39.0777 55.9521C38.0597 54.643 37.5049 53.0332 37.5 51.375C37.5 50.8777 37.6975 50.4008 38.0492 50.0492C38.4008 49.6975 38.8777 49.5 39.375 49.5C39.8723 49.5 40.3492 49.6975 40.7008 50.0492C41.0525 50.4008 41.25 50.8777 41.25 51.375C41.25 52.1167 41.4699 52.8417 41.882 53.4584C42.294 54.0751 42.8797 54.5557 43.5649 54.8396C44.2502 55.1234 45.0042 55.1976 45.7316 55.0529C46.459 54.9082 47.1272 54.5511 47.6517 54.0266C48.1761 53.5022 48.5332 52.834 48.6779 52.1066C48.8226 51.3792 48.7484 50.6252 48.4646 49.9399C48.1807 49.2547 47.7001 48.669 47.0834 48.257C46.4667 47.8449 45.7417 47.625 45 47.625C43.176 47.6289 41.4133 46.9665 40.0432 45.7624C38.6731 44.5582 37.79 42.8951 37.5597 41.0857C37.3294 39.2762 37.7679 37.4449 38.7927 35.936C39.8175 34.4271 41.3581 33.3443 43.125 32.8913V30.75C43.125 30.2527 43.3225 29.7758 43.6742 29.4242C44.0258 29.0725 44.5027 28.875 45 28.875C45.4973 28.875 45.9742 29.0725 46.3258 29.4242C46.6775 29.7758 46.875 30.2527 46.875 30.75V32.8913C48.4809 33.3045 49.9044 34.2388 50.9223 35.5479C51.9403 36.857 52.4951 38.4668 52.5 40.125C52.5 40.6223 52.3025 41.0992 51.9508 41.4508C51.5992 41.8025 51.1223 42 50.625 42C50.1277 42 49.6508 41.8025 49.2992 41.4508C48.9475 41.0992 48.75 40.6223 48.75 40.125C48.75 39.3833 48.5301 38.6583 48.118 38.0416C47.706 37.4249 47.1203 36.9443 46.4351 36.6604C45.7498 36.3766 44.9958 36.3024 44.2684 36.4471C43.541 36.5918 42.8728 36.9489 42.3484 37.4734C41.8239 37.9978 41.4668 38.666 41.3221 39.3934C41.1774 40.1208 41.2516 40.8748 41.5354 41.5601C41.8193 42.2453 42.2999 42.831 42.9166 43.243C43.5333 43.6551 44.2583 43.875 45 43.875ZM45 0.75C33.0694 0.763647 21.6314 5.50909 13.1953 13.9453C4.75909 22.3814 0.013647 33.8194 0 45.75C0 80.0513 42.0932 111.558 43.8858 112.883C44.2083 113.121 44.5989 113.25 45 113.25C45.4011 113.25 45.7916 113.121 46.1142 112.883C47.9068 111.558 90 80.0513 90 45.75C89.9864 33.8194 85.2409 22.3814 76.8047 13.9453C68.3686 5.50909 56.9306 0.763647 45 0.75ZM45 79.5C38.3249 79.5 31.7997 77.5206 26.2495 73.8121C20.6993 70.1036 16.3735 64.8326 13.8191 58.6656C11.2646 52.4986 10.5962 45.7126 11.8985 39.1657C13.2007 32.6188 16.4151 26.6052 21.1351 21.8851C25.8552 17.1651 31.8688 13.9507 38.4157 12.6485C44.9626 11.3462 51.7486 12.0146 57.9156 14.5691C64.0826 17.1235 69.3536 21.4493 73.0621 26.9995C76.7706 32.5497 78.75 39.0749 78.75 45.75C78.7398 54.6979 75.1808 63.2765 68.8536 69.6036C62.5265 75.9308 53.9479 79.4898 45 79.5Z" fill="#414141"/>
<path fill-rule="evenodd" clip-rule="evenodd" d="M45 79.5C38.3249 79.5 31.7997 77.5206 26.2495 73.8121C20.6993 70.1036 16.3735 64.8326 13.8191 58.6656C11.2646 52.4986 10.5962 45.7126 11.8985 39.1657C13.2007 32.6188 16.4151 26.6052 21.1351 21.8851C25.8552 17.1651 31.8688 13.9507 38.4157 12.6485C44.9626 11.3462 51.7486 12.0146 57.9156 14.5691C64.0826 17.1235 69.3536 21.4493 73.0621 26.9995C76.7706 32.5497 78.75 39.0749 78.75 45.75C78.7398 54.6979 75.1808 63.2765 68.8536 69.6036C62.5265 75.9308 53.9479 79.4898 45 79.5ZM30.4163 23.9239C34.7331 21.0395 39.8082 19.5 45 19.5C51.9595 19.5078 58.6318 22.2759 63.5529 27.1971C68.4741 32.1182 71.2422 38.7905 71.25 45.75C71.25 50.9418 69.7105 56.0169 66.8261 60.3337C63.9417 64.6505 59.842 68.015 55.0454 70.0018C50.2489 71.9886 44.9709 72.5085 39.8789 71.4956C34.7869 70.4827 30.1096 67.9827 26.4384 64.3116C22.7673 60.6404 20.2672 55.9631 19.2544 50.8711C18.2415 45.7791 18.7614 40.5011 20.7482 35.7046C22.735 30.908 26.0995 26.8083 30.4163 23.9239Z" fill="white"/>
<path d="M45 43.875C46.824 43.8711 48.5867 44.5335 49.9568 45.7376C51.3269 46.9418 52.21 48.6049 52.4403 50.4143C52.6706 52.2238 52.2321 54.0551 51.2073 55.564C50.1825 57.0729 48.6419 58.1557 46.875 58.6088V60.75C46.875 61.2473 46.6775 61.7242 46.3258 62.0758C45.9742 62.4275 45.4973 62.625 45 62.625C44.5027 62.625 44.0258 62.4275 43.6742 62.0758C43.3225 61.7242 43.125 61.2473 43.125 60.75V58.6088C41.5191 58.1955 40.0956 57.2612 39.0777 55.9521C38.0597 54.643 37.5049 53.0332 37.5 51.375C37.5 50.8777 37.6975 50.4008 38.0492 50.0492C38.4008 49.6975 38.8777 49.5 39.375 49.5C39.8723 49.5 40.3492 49.6975 40.7008 50.0492C41.0525 50.4008 41.25 50.8777 41.25 51.375C41.25 52.1167 41.4699 52.8417 41.882 53.4584C42.294 54.0751 42.8797 54.5557 43.5649 54.8396C44.2502 55.1234 45.0042 55.1976 45.7316 55.0529C46.459 54.9082 47.1272 54.5511 47.6517 54.0266C48.1761 53.5022 48.5332 52.834 48.6779 52.1066C48.8226 51.3792 48.7484 50.6252 48.4646 49.9399C48.1807 49.2547 47.7001 48.669 47.0834 48.257C46.4667 47.8449 45.7417 47.625 45 47.625C43.176 47.6289 41.4133 46.9665 40.0432 45.7624C38.6731 44.5582 37.79 42.8951 37.5597 41.0857C37.3294 39.2762 37.7679 37.4449 38.7927 35.936C39.8175 34.4271 41.3581 33.3443 43.125 32.8913V30.75C43.125 30.2527 43.3225 29.7758 43.6742 29.4242C44.0258 29.0725 44.5027 28.875 45 28.875C45.4973 28.875 45.9742 29.0725 46.3258 29.4242C46.6775 29.7758 46.875 30.2527 46.875 30.75V32.8913C48.4809 33.3045 49.9044 34.2388 50.9223 35.5479C51.9403 36.857 52.4951 38.4668 52.5 40.125C52.5 40.6223 52.3025 41.0992 51.9508 41.4508C51.5992 41.8025 51.1223 42 50.625 42C50.1277 42 49.6508 41.8025 49.2992 41.4508C48.9475 41.0992 48.75 40.6223 48.75 40.125C48.75 39.3833 48.5301 38.6583 48.118 38.0416C47.706 37.4249 47.1203 36.9443 46.4351 36.6604C45.7498 36.3766 44.9958 36.3024 44.2684 36.4471C43.541 36.5918 42.8728 36.9489 42.3484 37.4734C41.8239 37.9978 41.4668 38.666 41.3221 39.3934C41.1774 40.1208 41.2516 40.8748 41.5354 41.5601C41.8193 42.2453 42.2999 42.831 42.9166 43.243C43.5333 43.6551 44.2583 43.875 45 43.875Z" fill="white"/>
</svg>
