<svg width="90" height="114" viewBox="0 0 90 114" fill="none" xmlns="http://www.w3.org/2000/svg">
<path d="M45 0.75C33.0694 0.763647 21.6314 5.50909 13.1953 13.9453C4.75909 22.3814 0.013647 33.8194 0 45.75C0 80.0513 42.0932 111.558 43.8858 112.883C44.2083 113.121 44.5989 113.25 45 113.25C45.4011 113.25 45.7916 113.121 46.1142 112.883C47.9068 111.558 90 80.0513 90 45.75C89.9864 33.8194 85.2409 22.3814 76.8047 13.9453C68.3686 5.50909 56.9306 0.763647 45 0.75ZM45 79.5C38.3249 79.5 31.7997 77.5206 26.2495 73.8121C20.6993 70.1036 16.3735 64.8326 13.8191 58.6656C11.2646 52.4986 10.5962 45.7126 11.8985 39.1657C13.2007 32.6188 16.4151 26.6052 21.1351 21.8851C25.8552 17.1651 31.8688 13.9507 38.4157 12.6485C44.9626 11.3462 51.7486 12.0146 57.9156 14.5691C64.0826 17.1235 69.3536 21.4493 73.0621 26.9995C76.7706 32.5497 78.75 39.0749 78.75 45.75C78.7398 54.6979 75.1808 63.2765 68.8536 69.6036C62.5265 75.9308 53.9479 79.4898 45 79.5ZM65.625 36.375C65.6976 38.4391 65.2137 40.4847 64.2241 42.2976C63.2344 44.1104 61.7755 45.6238 60 46.679V62.625C60 63.6196 59.6049 64.5734 58.9017 65.2767C58.1984 65.9799 57.2446 66.375 56.25 66.375C55.2554 66.375 54.3016 65.9799 53.5983 65.2767C52.8951 64.5734 52.5 63.6196 52.5 62.625V46.679C50.7245 45.6238 49.2656 44.1104 48.2759 42.2976C47.2863 40.4847 46.8024 38.4391 46.875 36.375C46.875 30.1714 51.0809 25.125 56.25 25.125C61.4191 25.125 65.625 30.1714 65.625 36.375ZM43.125 27V42C43.1234 43.4913 42.5302 44.9211 41.4757 45.9757C40.4211 47.0302 38.9913 47.6234 37.5 47.625V62.625C37.5 63.6196 37.1049 64.5734 36.4016 65.2767C35.6984 65.9799 34.7446 66.375 33.75 66.375C32.7554 66.375 31.8016 65.9799 31.0984 65.2767C30.3951 64.5734 30 63.6196 30 62.625V47.625C28.5087 47.6234 27.0789 47.0302 26.0243 45.9757C24.9698 44.9211 24.3766 43.4913 24.375 42V27C24.375 26.5027 24.5725 26.0258 24.9242 25.6742C25.2758 25.3225 25.7527 25.125 26.25 25.125C26.7473 25.125 27.2242 25.3225 27.5758 25.6742C27.9275 26.0258 28.125 26.5027 28.125 27V36.375H31.875V27C31.875 26.5027 32.0725 26.0258 32.4242 25.6742C32.7758 25.3225 33.2527 25.125 33.75 25.125C34.2473 25.125 34.7242 25.3225 35.0758 25.6742C35.4275 26.0258 35.625 26.5027 35.625 27V36.375H39.375V27C39.375 26.5027 39.5725 26.0258 39.9242 25.6742C40.2758 25.3225 40.7527 25.125 41.25 25.125C41.7473 25.125 42.2242 25.3225 42.5758 25.6742C42.9275 26.0258 43.125 26.5027 43.125 27Z" fill="#414141"/>
<path fill-rule="evenodd" clip-rule="evenodd" d="M45 79.5C38.3249 79.5 31.7997 77.5206 26.2495 73.8121C20.6993 70.1036 16.3735 64.8326 13.8191 58.6656C11.2646 52.4986 10.5962 45.7126 11.8985 39.1657C13.2007 32.6188 16.4151 26.6052 21.1351 21.8851C25.8552 17.1651 31.8688 13.9507 38.4157 12.6485C44.9626 11.3462 51.7486 12.0146 57.9156 14.5691C64.0826 17.1235 69.3536 21.4493 73.0621 26.9995C76.7706 32.5497 78.75 39.0749 78.75 45.75C78.7398 54.6979 75.1808 63.2765 68.8536 69.6036C62.5265 75.9308 53.9479 79.4898 45 79.5ZM64.2241 42.2976C65.2137 40.4847 65.6976 38.4391 65.625 36.375C65.625 30.1714 61.4191 25.125 56.25 25.125C51.0809 25.125 46.875 30.1714 46.875 36.375C46.8024 38.4391 47.2863 40.4847 48.2759 42.2976C49.2656 44.1104 50.7245 45.6238 52.5 46.679V62.625C52.5 63.6196 52.8951 64.5734 53.5983 65.2767C54.3016 65.9799 55.2554 66.375 56.25 66.375C57.2446 66.375 58.1984 65.9799 58.9017 65.2767C59.6049 64.5734 60 63.6196 60 62.625V46.679C61.7755 45.6238 63.2344 44.1104 64.2241 42.2976ZM43.125 42V27C43.125 26.5027 42.9275 26.0258 42.5758 25.6742C42.2242 25.3225 41.7473 25.125 41.25 25.125C40.7527 25.125 40.2758 25.3225 39.9242 25.6742C39.5725 26.0258 39.375 26.5027 39.375 27V36.375H35.625V27C35.625 26.5027 35.4275 26.0258 35.0758 25.6742C34.7242 25.3225 34.2473 25.125 33.75 25.125C33.2527 25.125 32.7758 25.3225 32.4242 25.6742C32.0725 26.0258 31.875 26.5027 31.875 27V36.375H28.125V27C28.125 26.5027 27.9275 26.0258 27.5758 25.6742C27.2242 25.3225 26.7473 25.125 26.25 25.125C25.7527 25.125 25.2758 25.3225 24.9242 25.6742C24.5725 26.0258 24.375 26.5027 24.375 27V42C24.3766 43.4913 24.9698 44.9211 26.0243 45.9757C27.0789 47.0302 28.5087 47.6234 30 47.625V62.625C30 63.6196 30.3951 64.5734 31.0984 65.2767C31.8016 65.9799 32.7554 66.375 33.75 66.375C34.7446 66.375 35.6984 65.9799 36.4016 65.2767C37.1049 64.5734 37.5 63.6196 37.5 62.625V47.625C38.9913 47.6234 40.4211 47.0302 41.4757 45.9757C42.5302 44.9211 43.1234 43.4913 43.125 42Z" fill="white"/>
</svg>
