<svg width="90" height="114" viewBox="0 0 90 114" fill="none" xmlns="http://www.w3.org/2000/svg">
<path d="M65.2908 35.3066C65.4634 35.5557 65.5731 35.8428 65.6105 36.1435C65.648 36.4442 65.6121 36.7495 65.506 37.0333L59.881 52.0333C59.7468 52.3906 59.5069 52.6986 59.1931 52.916C58.8793 53.1334 58.5067 53.2499 58.125 53.25H35.625C35.2069 53.25 34.8008 53.1102 34.4712 52.8529C34.1416 52.5957 33.9074 52.2356 33.8059 51.83L28.8913 32.1709C28.7905 31.7648 28.5566 31.4042 28.2268 31.1466C27.8971 30.8891 27.4906 30.7494 27.0722 30.75H24.375C23.8777 30.75 23.4008 30.5525 23.0492 30.2008C22.6975 29.8492 22.5 29.3723 22.5 28.875C22.5 28.3777 22.6975 27.9008 23.0492 27.5492C23.4008 27.1975 23.8777 27 24.375 27H27.0722C28.327 26.9985 29.5463 27.4173 30.5354 28.1896C31.5246 28.9619 32.2266 30.0431 32.5296 31.2609L33.3389 34.5H63.75C64.0529 34.4998 64.3513 34.5731 64.6197 34.7136C64.8881 34.8541 65.1184 35.0576 65.2908 35.3066ZM39.375 55.125C38.2625 55.125 37.1749 55.4549 36.2499 56.073C35.3249 56.6911 34.6039 57.5696 34.1782 58.5974C33.7524 59.6252 33.641 60.7562 33.8581 61.8474C34.0751 62.9385 34.6109 63.9408 35.3975 64.7275C36.1842 65.5141 37.1865 66.0499 38.2776 66.2669C39.3688 66.484 40.4998 66.3726 41.5276 65.9468C42.5554 65.5211 43.4339 64.8001 44.052 63.8751C44.6701 62.9501 45 61.8625 45 60.75C44.9984 59.2587 44.4052 57.8289 43.3507 56.7743C42.2961 55.7198 40.8663 55.1266 39.375 55.125ZM54.375 55.125C53.2625 55.125 52.1749 55.4549 51.2499 56.073C50.3249 56.6911 49.6039 57.5696 49.1782 58.5974C48.7524 59.6252 48.641 60.7562 48.8581 61.8474C49.0751 62.9385 49.6109 63.9408 50.3975 64.7275C51.1842 65.5141 52.1865 66.0499 53.2776 66.2669C54.3688 66.484 55.4998 66.3726 56.5276 65.9468C57.5554 65.5211 58.4339 64.8001 59.052 63.8751C59.6701 62.9501 60 61.8625 60 60.75C59.9984 59.2587 59.4052 57.8289 58.3507 56.7743C57.2961 55.7198 55.8663 55.1266 54.375 55.125ZM90 45.75C90 80.0513 47.9068 111.558 46.1142 112.883C45.7916 113.121 45.4011 113.25 45 113.25C44.5989 113.25 44.2083 113.121 43.8858 112.883C42.0932 111.558 0 80.0513 0 45.75C1.77842e-07 33.8153 4.74106 22.3693 13.1802 13.9302C21.6193 5.49106 33.0653 0.75 45 0.75C56.9347 0.75 68.3807 5.49106 76.8198 13.9302C85.2589 22.3693 90 33.8153 90 45.75ZM78.75 45.75C78.75 39.0749 76.7706 32.5497 73.0621 26.9995C69.3536 21.4493 64.0826 17.1235 57.9156 14.5691C51.7486 12.0146 44.9626 11.3462 38.4157 12.6485C31.8688 13.9507 25.8552 17.1651 21.1351 21.8851C16.4151 26.6052 13.2007 32.6188 11.8985 39.1657C10.5962 45.7126 11.2646 52.4986 13.8191 58.6656C16.3735 64.8326 20.6993 70.1036 26.2495 73.8121C31.7997 77.5206 38.3249 79.5 45 79.5C53.9479 79.4898 62.5265 75.9308 68.8536 69.6036C75.1808 63.2765 78.7398 54.6979 78.75 45.75Z" fill="#414141"/>
<path fill-rule="evenodd" clip-rule="evenodd" d="M78.75 45.75C78.75 39.0749 76.7706 32.5497 73.0621 26.9995C69.3536 21.4493 64.0826 17.1235 57.9156 14.5691C51.7486 12.0146 44.9626 11.3462 38.4157 12.6485C31.8688 13.9507 25.8552 17.1651 21.1351 21.8851C16.4151 26.6052 13.2007 32.6188 11.8985 39.1657C10.5962 45.7126 11.2646 52.4986 13.8191 58.6656C16.3735 64.8326 20.6993 70.1036 26.2495 73.8121C31.7997 77.5206 38.3249 79.5 45 79.5C53.9479 79.4898 62.5265 75.9308 68.8536 69.6036C75.1808 63.2765 78.7398 54.6979 78.75 45.75ZM65.6105 36.1435C65.5731 35.8428 65.4634 35.5557 65.2908 35.3066C65.1184 35.0576 64.8881 34.8541 64.6197 34.7136C64.3513 34.5731 64.0529 34.4998 63.75 34.5H33.3389L32.5296 31.2609C32.2266 30.0431 31.5246 28.9619 30.5354 28.1896C29.5463 27.4173 28.327 26.9985 27.0722 27H24.375C23.8777 27 23.4008 27.1975 23.0492 27.5492C22.6975 27.9008 22.5 28.3777 22.5 28.875C22.5 29.3723 22.6975 29.8492 23.0492 30.2008C23.4008 30.5525 23.8777 30.75 24.375 30.75H27.0722C27.4906 30.7494 27.8971 30.8891 28.2268 31.1466C28.5566 31.4042 28.7905 31.7648 28.8913 32.1709L33.8059 51.83C33.9074 52.2356 34.1416 52.5957 34.4712 52.8529C34.8008 53.1102 35.2069 53.25 35.625 53.25H58.125C58.5067 53.2499 58.8793 53.1334 59.1931 52.916C59.5069 52.6986 59.7468 52.3906 59.881 52.0333L65.506 37.0333C65.6121 36.7495 65.648 36.4442 65.6105 36.1435ZM36.2499 56.073C37.1749 55.4549 38.2625 55.125 39.375 55.125C40.8663 55.1266 42.2961 55.7198 43.3507 56.7743C44.4052 57.8289 44.9984 59.2587 45 60.75C45 61.8625 44.6701 62.9501 44.052 63.8751C43.4339 64.8001 42.5554 65.5211 41.5276 65.9468C40.4998 66.3726 39.3688 66.484 38.2776 66.2669C37.1865 66.0499 36.1842 65.5141 35.3975 64.7275C34.6109 63.9408 34.0751 62.9385 33.8581 61.8474C33.641 60.7562 33.7524 59.6252 34.1782 58.5974C34.6039 57.5696 35.3249 56.6911 36.2499 56.073ZM51.2499 56.073C52.1749 55.4549 53.2625 55.125 54.375 55.125C55.8663 55.1266 57.2961 55.7198 58.3507 56.7743C59.4052 57.8289 59.9984 59.2587 60 60.75C60 61.8625 59.6701 62.9501 59.052 63.8751C58.4339 64.8001 57.5554 65.5211 56.5276 65.9468C55.4998 66.3726 54.3688 66.484 53.2776 66.2669C52.1865 66.0499 51.1842 65.5141 50.3975 64.7275C49.6109 63.9408 49.0751 62.9385 48.8581 61.8474C48.641 60.7562 48.7524 59.6252 49.1782 58.5974C49.6039 57.5696 50.3249 56.6911 51.2499 56.073Z" fill="white"/>
</svg>
