<svg width="32" height="18" viewBox="0 0 32 18" fill="none" xmlns="http://www.w3.org/2000/svg">
<path fill-rule="evenodd" clip-rule="evenodd" d="M30.9619 1.22907C31.1806 0.542265 30.9619 0.0375977 29.921 0.0375977H26.4792C25.604 0.0375977 25.2005 0.473556 24.9817 0.954291C24.9817 0.954291 23.2314 4.97205 20.7519 7.58184C19.9497 8.33729 19.585 8.57766 19.1474 8.57766C18.9287 8.57766 18.612 8.33729 18.612 7.65055V1.22907C18.612 0.404906 18.358 0.0375977 17.6287 0.0375977H12.22C11.6731 0.0375977 11.3442 0.420112 11.3442 0.782634C11.3442 1.56392 12.5839 1.7441 12.7117 3.94187V8.71508C12.7117 9.76159 12.511 9.95132 12.0734 9.95132C10.9066 9.95132 8.06837 5.91562 6.38502 1.29772C6.05512 0.400164 5.72424 0.0375977 4.84459 0.0375977H1.40273C0.419344 0.0375977 0.222656 0.473556 0.222656 0.954291C0.222656 1.81281 1.38952 6.07093 5.65578 11.7026C8.49994 15.5486 12.5072 17.6334 16.1536 17.6334C18.3414 17.6334 18.612 17.1703 18.612 16.3727V13.466C18.612 12.5399 18.8193 12.355 19.5121 12.355C20.0226 12.355 20.8977 12.5954 22.9398 14.4498C25.2734 16.6475 25.6582 17.6334 26.9708 17.6334H30.4127C31.3961 17.6334 31.8878 17.1703 31.6041 16.2565C31.2937 15.3458 30.1795 14.0244 28.7011 12.4581C27.8988 11.5652 26.6955 10.6038 26.3309 10.1229C25.8204 9.50489 25.9663 9.23011 26.3309 8.68073C26.3309 8.68073 30.5243 3.11771 30.9619 1.22907Z" fill="white"/>
</svg>
